Playfair_1200pt SemiCondensed Black.ufo
<glyph name="numbersign" format="2">
  <advance width="793"/>
  <unicode hex="0023"/>
  <outline>
    <contour>
      <point x="410" y="5" type="line"/>
      <point x="540" y="41" type="line"/>
      <point x="664" y="682" type="line"/>
      <point x="534" y="645" type="line"/>
    </contour>
    <contour>
      <point x="57" y="38" type="line"/>
      <point x="670" y="209" type="line"/>
      <point x="670" y="210" type="line"/>
      <point x="57" y="39" type="line"/>
    </contour>
    <contour>
      <point x="133" y="-72" type="line"/>
      <point x="263" y="-36" type="line"/>
      <point x="387" y="605" type="line"/>
      <point x="257" y="568" type="line"/>
    </contour>
    <contour>
      <point x="123" y="376" type="line"/>
      <point x="736" y="547" type="line"/>
      <point x="736" y="548" type="line"/>
      <point x="123" y="377" type="line"/>
    </contour>
  </outline>
</glyph>
<glyph name="percent" format="2">
  <advance width="816"/>
  <unicode hex="0025"/>
  <outline>
    <contour>
      <point x="169" y="-14" type="line"/>
      <point x="652" y="532" type="line"/>
      <point x="651" y="533" type="line"/>
      <point x="168" y="-13" type="line"/>
    </contour>
    <contour>
      <point x="575" y="-14" type="curve" smooth="yes"/>
      <point x="679" y="-14"/>
      <point x="751" y="38"/>
      <point x="751" y="114" type="curve" smooth="yes"/>
      <point x="751" y="188"/>
      <point x="684" y="237"/>
      <point x="583" y="237" type="curve" smooth="yes"/>
      <point x="478" y="237"/>
      <point x="407" y="185"/>
      <point x="407" y="108" type="curve" smooth="yes"/>
      <point x="407" y="35"/>
      <point x="474" y="-14"/>
    </contour>
    <contour>
      <point x="580" y="-13" type="curve" smooth="yes"/>
      <point x="541" y="-13"/>
      <point x="520" y="31"/>
      <point x="520" y="114" type="curve" smooth="yes"/>
      <point x="520" y="196"/>
      <point x="539" y="236"/>
      <point x="578" y="236" type="curve" smooth="yes"/>
      <point x="617" y="236"/>
      <point x="638" y="192"/>
      <point x="638" y="109" type="curve" smooth="yes"/>
      <point x="638" y="27"/>
      <point x="619" y="-13"/>
    </contour>
    <contour>
      <point x="233" y="282" type="curve" smooth="yes"/>
      <point x="337" y="282"/>
      <point x="409" y="334"/>
      <point x="409" y="410" type="curve" smooth="yes"/>
      <point x="409" y="484"/>
      <point x="342" y="533"/>
      <point x="241" y="533" type="curve" smooth="yes"/>
      <point x="136" y="533"/>
      <point x="65" y="481"/>
      <point x="65" y="404" type="curve" smooth="yes"/>
      <point x="65" y="331"/>
      <point x="132" y="282"/>
    </contour>
    <contour>
      <point x="238" y="283" type="curve" smooth="yes"/>
      <point x="199" y="283"/>
      <point x="178" y="327"/>
      <point x="178" y="410" type="curve" smooth="yes"/>
      <point x="178" y="492"/>
      <point x="197" y="532"/>
      <point x="236" y="532" type="curve" smooth="yes"/>
      <point x="275" y="532"/>
      <point x="296" y="488"/>
      <point x="296" y="405" type="curve" smooth="yes"/>
      <point x="296" y="323"/>
      <point x="277" y="283"/>
    </contour>
    <contour>
      <point x="492" y="474" type="curve" smooth="yes"/>
      <point x="553" y="474"/>
      <point x="611" y="495"/>
      <point x="652" y="532" type="curve"/>
      <point x="651" y="533" type="line"/>
      <point x="612" y="497"/>
      <point x="552" y="475"/>
      <point x="492" y="475" type="curve" smooth="yes"/>
      <point x="442" y="475"/>
      <point x="379" y="490"/>
      <point x="341" y="512" type="curve"/>
      <point x="340" y="511" type="line"/>
      <point x="381" y="489"/>
      <point x="442" y="474"/>
    </contour>
  </outline>
</glyph>
<glyph name="ampersand" format="2">
  <advance width="1148"/>
  <unicode hex="0026"/>
  <outline>
    <contour>
      <point x="370" y="-14" type="curve" smooth="yes"/>
      <point x="589" y="-14"/>
      <point x="722" y="96"/>
      <point x="794" y="337" type="curve"/>
      <point x="793" y="337" type="line"/>
      <point x="736" y="164"/>
      <point x="622" y="75"/>
      <point x="458" y="75" type="curve" smooth="yes"/>
      <point x="303" y="75"/>
      <point x="219" y="155"/>
      <point x="219" y="304" type="curve" smooth="yes"/>
      <point x="219" y="416"/>
      <point x="268" y="531"/>
      <point x="316" y="531" type="curve" smooth="yes"/>
      <point x="337" y="531"/>
      <point x="349" y="507"/>
      <point x="349" y="465" type="curve" smooth="yes"/>
      <point x="349" y="391"/>
      <point x="311" y="306"/>
      <point x="253" y="250" type="curve"/>
      <point x="253" y="249" type="line"/>
      <point x="495" y="358"/>
      <point x="669" y="517"/>
      <point x="669" y="630" type="curve" smooth="yes"/>
      <point x="669" y="678"/>
      <point x="638" y="712"/>
      <point x="595" y="712" type="curve" smooth="yes"/>
      <point x="559" y="712"/>
      <point x="533" y="689"/>
      <point x="533" y="656" type="curve" smooth="yes"/>
      <point x="533" y="605"/>
      <point x="594" y="566"/>
      <point x="594" y="519" type="curve" smooth="yes"/>
      <point x="594" y="471"/>
      <point x="526" y="405"/>
      <point x="394" y="324" type="curve"/>
      <point x="394" y="323" type="line"/>
      <point x="450" y="372"/>
      <point x="474" y="408"/>
      <point x="474" y="444" type="curve" smooth="yes"/>
      <point x="474" y="499"/>
      <point x="417" y="533"/>
      <point x="326" y="533" type="curve" smooth="yes"/>
      <point x="157" y="533"/>
      <point x="31" y="412"/>
      <point x="31" y="248" type="curve" smooth="yes"/>
      <point x="31" y="86"/>
      <point x="160" y="-14"/>
    </contour>
    <contour>
      <point x="567" y="152" type="curve" smooth="yes"/>
      <point x="604" y="152"/>
      <point x="631" y="176"/>
      <point x="631" y="208" type="curve" smooth="yes"/>
      <point x="631" y="277"/>
      <point x="515" y="308"/>
      <point x="515" y="329" type="curve" smooth="yes"/>
      <point x="515" y="341"/>
      <point x="571" y="348"/>
      <point x="650" y="348" type="curve" smooth="yes"/>
      <point x="768" y="348"/>
      <point x="836" y="308"/>
      <point x="926" y="308" type="curve" smooth="yes"/>
      <point x="1033" y="308"/>
      <point x="1113" y="363"/>
      <point x="1113" y="436" type="curve" smooth="yes"/>
      <point x="1113" y="475"/>
      <point x="1090" y="498"/>
      <point x="1051" y="498" type="curve" smooth="yes"/>
      <point x="943" y="498"/>
      <point x="988" y="309"/>
      <point x="937" y="309" type="curve" smooth="yes"/>
      <point x="896" y="309"/>
      <point x="834" y="438"/>
      <point x="715" y="438" type="curve" smooth="yes"/>
      <point x="600" y="438"/>
      <point x="484" y="340"/>
      <point x="484" y="243" type="curve" smooth="yes"/>
      <point x="484" y="191"/>
      <point x="519" y="152"/>
    </contour>
  </outline>
</glyph>
<glyph name="quotesingle" format="2">
  <advance width="262"/>
  <unicode hex="0027"/>
  <outline>
    <contour>
      <point x="130" y="438" type="curve"/>
      <point x="132" y="438" type="line"/>
      <point x="175" y="545"/>
      <point x="225" y="581"/>
      <point x="225" y="643" type="curve" smooth="yes"/>
      <point x="225" y="694"/>
      <point x="186" y="730"/>
      <point x="131" y="730" type="curve" smooth="yes"/>
      <point x="76" y="730"/>
      <point x="37" y="693"/>
      <point x="37" y="642" type="curve" smooth="yes"/>
      <point x="37" y="580"/>
      <point x="86" y="545"/>
    </contour>
  </outline>
</glyph>
<glyph name="parenleft" format="2">
  <advance width="484"/>
  <unicode hex="0028"/>
  <outline>
    <contour>
      <point x="456" y="-191" type="curve"/>
      <point x="457" y="-190" type="line"/>
      <point x="319" y="-53"/>
      <point x="263" y="87"/>
      <point x="263" y="295" type="curve" smooth="yes"/>
      <point x="263" y="506"/>
      <point x="320" y="649"/>
      <point x="457" y="781" type="curve"/>
      <point x="456" y="782" type="line"/>
      <point x="223" y="675"/>
      <point x="106" y="512"/>
      <point x="106" y="297" type="curve" smooth="yes"/>
      <point x="106" y="81"/>
      <point x="223" y="-83"/>
    </contour>
  </outline>
</glyph>
<glyph name="plus" format="2">
  <advance width="627"/>
  <unicode hex="002B"/>
  <outline>
    <contour>
      <point x="313" y="16" type="line"/>
      <point x="314" y="16" type="line"/>
      <point x="314" y="265" type="line"/>
      <point x="564" y="265" type="line"/>
      <point x="564" y="266" type="line"/>
      <point x="314" y="266" type="line"/>
      <point x="314" y="517" type="line"/>
      <point x="313" y="517" type="line"/>
      <point x="313" y="266" type="line"/>
      <point x="63" y="266" type="line"/>
      <point x="63" y="265" type="line"/>
      <point x="313" y="265" type="line"/>
    </contour>
  </outline>
</glyph>
<glyph name="comma" format="2">
  <advance width="281"/>
  <unicode hex="002C"/>
  <outline>
    <contour>
      <point x="132" y="-124" type="line"/>
      <point x="203" y="-98"/>
      <point x="238" y="-47"/>
      <point x="238" y="29" type="curve" smooth="yes"/>
      <point x="238" y="107"/>
      <point x="200" y="154"/>
      <point x="135" y="154" type="curve" smooth="yes"/>
      <point x="79" y="154"/>
      <point x="43" y="121"/>
      <point x="43" y="71" type="curve" smooth="yes"/>
      <point x="43" y="24"/>
      <point x="73" y="-9"/>
      <point x="117" y="-9" type="curve" smooth="yes"/>
      <point x="151" y="-9"/>
      <point x="185" y="11"/>
      <point x="206" y="11" type="curve" smooth="yes"/>
      <point x="219" y="11"/>
      <point x="227" y="2"/>
      <point x="227" y="-15" type="curve" smooth="yes"/>
      <point x="227" y="-60"/>
      <point x="188" y="-102"/>
      <point x="132" y="-123" type="curve"/>
    </contour>
  </outline>
</glyph>
<glyph name="period" format="2">
  <advance width="282"/>
  <unicode hex="002E"/>
  <anchor x="0" y="0" name="^entry"/>
  <anchor x="429" y="0" name="^exit"/>
  <anchor x="141" y="0" name="_Ldot"/>
  <anchor x="141" y="140" name="_ascender"/>
  <anchor x="141" y="0" name="_baseline"/>
  <anchor x="141" y="0" name="_center"/>
  <anchor x="141" y="0" name="center"/>
  <outline>
    <contour>
      <point x="141" y="-14" type="curve" smooth="yes"/>
      <point x="204" y="-14"/>
      <point x="239" y="15"/>
      <point x="239" y="70" type="curve" smooth="yes"/>
      <point x="239" y="125"/>
      <point x="204" y="154"/>
      <point x="141" y="154" type="curve" smooth="yes"/>
      <point x="77" y="154"/>
      <point x="43" y="125"/>
      <point x="43" y="70" type="curve" smooth="yes"/>
      <point x="43" y="15"/>
      <point x="77" y="-14"/>
    </contour>
  </outline>
</glyph>
<glyph name="slash" format="2">
  <advance width="333"/>
  <unicode hex="002F"/>
  <anchor x="81" y="708" name="ascender"/>
  <anchor x="253" y="0" name="baseline"/>
  <outline>
    <contour>
      <point x="30" y="-14" type="line"/>
      <point x="31" y="-14" type="line"/>
      <point x="303" y="722" type="line"/>
      <point x="302" y="722" type="line"/>
    </contour>
  </outline>
</glyph>
<glyph name="zero" format="2">
  <advance width="703"/>
  <unicode hex="0030"/>
  <anchor x="351" y="260" name="center"/>
  <outline>
    <contour>
      <point x="346" y="-14" type="curve" smooth="yes"/>
      <point x="522" y="-14"/>
      <point x="649" y="104"/>
      <point x="649" y="268" type="curve" smooth="yes"/>
      <point x="649" y="425"/>
      <point x="530" y="533"/>
      <point x="357" y="533" type="curve" smooth="yes"/>
      <point x="180" y="533"/>
      <point x="54" y="416"/>
      <point x="54" y="252" type="curve" smooth="yes"/>
      <point x="54" y="95"/>
      <point x="173" y="-14"/>
    </contour>
    <contour>
      <point x="346" y="-13" type="curve" smooth="yes"/>
      <point x="282" y="-13"/>
      <point x="241" y="90"/>
      <point x="241" y="255" type="curve" smooth="yes"/>
      <point x="241" y="425"/>
      <point x="286" y="532"/>
      <point x="357" y="532" type="curve" smooth="yes"/>
      <point x="421" y="532"/>
      <point x="462" y="429"/>
      <point x="462" y="264" type="curve" smooth="yes"/>
      <point x="462" y="95"/>
      <point x="417" y="-13"/>
    </contour>
  </outline>
</glyph>
<glyph name="one" format="2">
  <advance width="382"/>
  <unicode hex="0031"/>
  <outline>
    <contour>
      <point x="16" y="0" type="line"/>
      <point x="53" y="1"/>
      <point x="126" y="4"/>
      <point x="200" y="4" type="curve" smooth="yes"/>
      <point x="254" y="4"/>
      <point x="311" y="1"/>
      <point x="338" y="0" type="curve"/>
      <point x="338" y="1" type="line"/>
      <point x="297" y="3"/>
      <point x="282" y="17"/>
      <point x="282" y="73" type="curve" smooth="yes"/>
      <point x="282" y="540" type="line"/>
      <point x="219" y="504"/>
      <point x="142" y="491"/>
      <point x="16" y="489" type="curve"/>
      <point x="16" y="488" type="line"/>
      <point x="82" y="486"/>
      <point x="102" y="476"/>
      <point x="102" y="379" type="curve" smooth="yes"/>
      <point x="102" y="83" type="line" smooth="yes"/>
      <point x="102" y="18"/>
      <point x="70" y="3"/>
      <point x="16" y="1" type="curve"/>
    </contour>
  </outline>
</glyph>
<glyph name="two" format="2">
  <advance width="529"/>
  <unicode hex="0032"/>
  <outline>
    <contour>
      <point x="499" y="-5" type="curve"/>
      <point x="496" y="38"/>
      <point x="495" y="87"/>
      <point x="495" y="188" type="curve"/>
      <point x="494" y="188" type="line"/>
      <point x="489" y="157"/>
      <point x="482" y="147"/>
      <point x="427" y="147" type="curve" smooth="yes"/>
      <point x="156" y="147" type="line"/>
      <point x="156" y="148" type="line"/>
      <point x="274" y="226"/>
      <point x="459" y="280"/>
      <point x="459" y="407" type="curve" smooth="yes"/>
      <point x="459" y="487"/>
      <point x="387" y="533"/>
      <point x="260" y="533" type="curve" smooth="yes"/>
      <point x="118" y="533"/>
      <point x="22" y="476"/>
      <point x="22" y="392" type="curve" smooth="yes"/>
      <point x="22" y="344"/>
      <point x="54" y="312"/>
      <point x="103" y="312" type="curve" smooth="yes"/>
      <point x="144" y="312"/>
      <point x="169" y="334"/>
      <point x="169" y="369" type="curve" smooth="yes"/>
      <point x="169" y="420"/>
      <point x="120" y="437"/>
      <point x="120" y="477" type="curve" smooth="yes"/>
      <point x="120" y="505"/>
      <point x="145" y="523"/>
      <point x="184" y="523" type="curve" smooth="yes"/>
      <point x="244" y="523"/>
      <point x="272" y="487"/>
      <point x="272" y="411" type="curve" smooth="yes"/>
      <point x="272" y="227"/>
      <point x="89" y="85"/>
      <point x="11" y="1" type="curve"/>
      <point x="11" y="0" type="line"/>
      <point x="410" y="0" type="line" smooth="yes"/>
      <point x="446" y="0"/>
      <point x="488" y="-1"/>
    </contour>
  </outline>
</glyph>
<glyph name="three" format="2">
  <advance width="555"/>
  <unicode hex="0033"/>
  <outline>
    <contour>
      <point x="263" y="-150" type="curve" smooth="yes"/>
      <point x="416" y="-150"/>
      <point x="525" y="-77"/>
      <point x="525" y="26" type="curve" smooth="yes"/>
      <point x="525" y="124"/>
      <point x="423" y="190"/>
      <point x="262" y="195" type="curve"/>
      <point x="417" y="219"/>
      <point x="506" y="286"/>
      <point x="506" y="378" type="curve" smooth="yes"/>
      <point x="506" y="473"/>
      <point x="419" y="533"/>
      <point x="283" y="533" type="curve" smooth="yes"/>
      <point x="146" y="533"/>
      <point x="43" y="473"/>
      <point x="43" y="392" type="curve" smooth="yes"/>
      <point x="43" y="344"/>
      <point x="75" y="312"/>
      <point x="124" y="312" type="curve" smooth="yes"/>
      <point x="165" y="312"/>
      <point x="190" y="334"/>
      <point x="190" y="369" type="curve" smooth="yes"/>
      <point x="190" y="416"/>
      <point x="143" y="438"/>
      <point x="143" y="476" type="curve" smooth="yes"/>
      <point x="143" y="504"/>
      <point x="170" y="523"/>
      <point x="210" y="523" type="curve" smooth="yes"/>
      <point x="285" y="523"/>
      <point x="336" y="457"/>
      <point x="336" y="361" type="curve" smooth="yes"/>
      <point x="336" y="289"/>
      <point x="308" y="227"/>
      <point x="261" y="196" type="curve"/>
      <point x="244" y="197"/>
      <point x="234" y="198"/>
      <point x="222" y="198" type="curve" smooth="yes"/>
      <point x="203" y="198"/>
      <point x="192" y="195"/>
      <point x="192" y="189" type="curve" smooth="yes"/>
      <point x="192" y="185"/>
      <point x="198" y="182"/>
      <point x="206" y="182" type="curve" smooth="yes"/>
      <point x="218" y="182"/>
      <point x="232" y="185"/>
      <point x="261" y="194" type="curve"/>
      <point x="310" y="159"/>
      <point x="338" y="96"/>
      <point x="338" y="23" type="curve" smooth="yes"/>
      <point x="338" y="-79"/>
      <point x="286" y="-142"/>
      <point x="201" y="-142" type="curve" smooth="yes"/>
      <point x="161" y="-142"/>
      <point x="138" y="-128"/>
      <point x="138" y="-104" type="curve" smooth="yes"/>
      <point x="138" y="-63"/>
      <point x="205" y="-37"/>
      <point x="205" y="20" type="curve" smooth="yes"/>
      <point x="205" y="61"/>
      <point x="171" y="89"/>
      <point x="122" y="89" type="curve" smooth="yes"/>
      <point x="66" y="89"/>
      <point x="28" y="52"/>
      <point x="28" y="-3" type="curve" smooth="yes"/>
      <point x="28" y="-90"/>
      <point x="124" y="-150"/>
    </contour>
  </outline>
</glyph>
<glyph name="four" format="2">
  <advance width="566"/>
  <unicode hex="0034"/>
  <outline>
    <contour>
      <point x="2" y="24" type="line"/>
      <point x="539" y="24" type="line"/>
      <point x="539" y="161" type="line"/>
      <point x="115" y="161" type="line"/>
      <point x="115" y="159" type="line"/>
      <point x="423" y="532" type="line"/>
      <point x="422" y="533" type="line"/>
      <point x="2" y="25" type="line"/>
    </contour>
    <contour>
      <point x="283" y="-141" type="line"/>
      <point x="423" y="-141" type="line"/>
      <point x="423" y="533" type="line"/>
      <point x="422" y="533" type="line"/>
      <point x="283" y="365" type="line"/>
    </contour>
  </outline>
</glyph>
<glyph name="five" format="2">
  <advance width="526"/>
  <unicode hex="0035"/>
  <outline>
    <contour>
      <point x="236" y="-150" type="curve" smooth="yes"/>
      <point x="395" y="-150"/>
      <point x="495" y="-71"/>
      <point x="495" y="56" type="curve" smooth="yes"/>
      <point x="495" y="180"/>
      <point x="410" y="251"/>
      <point x="263" y="251" type="curve" smooth="yes"/>
      <point x="186" y="251"/>
      <point x="130" y="232"/>
      <point x="101" y="215" type="curve"/>
      <point x="122" y="367" type="line"/>
      <point x="166" y="358"/>
      <point x="212" y="353"/>
      <point x="256" y="353" type="curve" smooth="yes"/>
      <point x="395" y="353"/>
      <point x="471" y="419"/>
      <point x="469" y="548" type="curve"/>
      <point x="468" y="548" type="line"/>
      <point x="434" y="518"/>
      <point x="353" y="503"/>
      <point x="274" y="503" type="curve" smooth="yes"/>
      <point x="229" y="503"/>
      <point x="173" y="510"/>
      <point x="142" y="519" type="curve"/>
      <point x="99" y="213" type="line"/>
      <point x="100" y="213" type="line"/>
      <point x="117" y="224"/>
      <point x="145" y="231"/>
      <point x="174" y="231" type="curve" smooth="yes"/>
      <point x="260" y="231"/>
      <point x="308" y="167"/>
      <point x="308" y="54" type="curve" smooth="yes"/>
      <point x="308" y="-65"/>
      <point x="257" y="-144"/>
      <point x="180" y="-144" type="curve" smooth="yes"/>
      <point x="153" y="-144"/>
      <point x="140" y="-132"/>
      <point x="140" y="-109" type="curve" smooth="yes"/>
      <point x="140" y="-61"/>
      <point x="195" y="-49"/>
      <point x="195" y="12" type="curve" smooth="yes"/>
      <point x="195" y="54"/>
      <point x="167" y="79"/>
      <point x="122" y="79" type="curve" smooth="yes"/>
      <point x="66" y="79"/>
      <point x="28" y="42"/>
      <point x="28" y="-14" type="curve" smooth="yes"/>
      <point x="28" y="-97"/>
      <point x="109" y="-150"/>
    </contour>
    <contour>
      <point x="79" y="177" type="curve" smooth="yes"/>
      <point x="91" y="177"/>
      <point x="100" y="192"/>
      <point x="101" y="214" type="curve"/>
      <point x="100" y="214" type="line"/>
      <point x="81" y="204"/>
      <point x="71" y="194"/>
      <point x="71" y="185" type="curve" smooth="yes"/>
      <point x="71" y="180"/>
      <point x="74" y="177"/>
    </contour>
  </outline>
</glyph>
<glyph name="six" format="2">
  <advance width="632"/>
  <unicode hex="0036"/>
  <outline>
    <contour>
      <point x="321" y="-14" type="curve" smooth="yes"/>
      <point x="479" y="-14"/>
      <point x="578" y="79"/>
      <point x="578" y="227" type="curve" smooth="yes"/>
      <point x="578" y="359"/>
      <point x="499" y="448"/>
      <point x="382" y="448" type="curve" smooth="yes"/>
      <point x="311" y="448"/>
      <point x="257" y="413"/>
      <point x="236" y="348" type="curve"/>
      <point x="237" y="348" type="line"/>
      <point x="254" y="395"/>
      <point x="288" y="420"/>
      <point x="319" y="420" type="curve" smooth="yes"/>
      <point x="367" y="420"/>
      <point x="391" y="352"/>
      <point x="391" y="215" type="curve" smooth="yes"/>
      <point x="391" y="71"/>
      <point x="365" y="-13"/>
      <point x="321" y="-13" type="curve" smooth="yes"/>
      <point x="270" y="-13"/>
      <point x="241" y="109"/>
      <point x="241" y="323" type="curve" smooth="yes"/>
      <point x="241" y="591"/>
      <point x="292" y="717"/>
      <point x="400" y="717" type="curve" smooth="yes"/>
      <point x="435" y="717"/>
      <point x="454" y="703"/>
      <point x="454" y="678" type="curve" smooth="yes"/>
      <point x="454" y="637"/>
      <point x="406" y="614"/>
      <point x="406" y="568" type="curve" smooth="yes"/>
      <point x="406" y="533"/>
      <point x="431" y="511"/>
      <point x="472" y="511" type="curve" smooth="yes"/>
      <point x="520" y="511"/>
      <point x="553" y="542"/>
      <point x="553" y="589" type="curve" smooth="yes"/>
      <point x="553" y="665"/>
      <point x="472" y="722"/>
      <point x="363" y="722" type="curve" smooth="yes"/>
      <point x="176" y="722"/>
      <point x="54" y="560"/>
      <point x="54" y="313" type="curve" smooth="yes"/>
      <point x="54" y="99"/>
      <point x="146" y="-14"/>
    </contour>
  </outline>
</glyph>
<glyph name="seven" format="2">
  <advance width="492"/>
  <unicode hex="0037"/>
  <outline>
    <contour>
      <point x="237" y="-148" type="curve" smooth="yes"/>
      <point x="301" y="-148"/>
      <point x="328" y="-103"/>
      <point x="328" y="-60" type="curve" smooth="yes"/>
      <point x="328" y="-28"/>
      <point x="323" y="-10"/>
      <point x="323" y="22" type="curve" smooth="yes"/>
      <point x="323" y="228"/>
      <point x="450" y="408"/>
      <point x="501" y="518" type="curve"/>
      <point x="501" y="519" type="line"/>
      <point x="159" y="519" type="line" smooth="yes"/>
      <point x="107" y="519"/>
      <point x="46" y="520"/>
      <point x="30" y="524" type="curve"/>
      <point x="33" y="474"/>
      <point x="34" y="418"/>
      <point x="34" y="301" type="curve"/>
      <point x="35" y="301" type="line"/>
      <point x="42" y="355"/>
      <point x="65" y="372"/>
      <point x="135" y="372" type="curve" smooth="yes"/>
      <point x="422" y="372" type="line"/>
      <point x="422" y="371" type="line"/>
      <point x="355" y="287"/>
      <point x="146" y="115"/>
      <point x="146" y="-39" type="curve" smooth="yes"/>
      <point x="146" y="-105"/>
      <point x="175" y="-148"/>
    </contour>
  </outline>
</glyph>
<glyph name="eight" format="2">
  <advance width="577"/>
  <unicode hex="0038"/>
  <outline>
    <contour>
      <point x="279" y="-14" type="curve" smooth="yes"/>
      <point x="443" y="-14"/>
      <point x="547" y="68"/>
      <point x="547" y="197" type="curve" smooth="yes"/>
      <point x="547" y="436"/>
      <point x="197" y="421"/>
      <point x="197" y="623" type="curve" smooth="yes"/>
      <point x="197" y="681"/>
      <point x="226" y="720"/>
      <point x="270" y="720" type="curve" smooth="yes"/>
      <point x="334" y="720"/>
      <point x="383" y="640"/>
      <point x="383" y="536" type="curve" smooth="yes"/>
      <point x="383" y="496"/>
      <point x="376" y="456"/>
      <point x="365" y="426" type="curve"/>
      <point x="366" y="425" type="line"/>
      <point x="454" y="454"/>
      <point x="504" y="507"/>
      <point x="504" y="573" type="curve" smooth="yes"/>
      <point x="504" y="661"/>
      <point x="415" y="722"/>
      <point x="287" y="722" type="curve" smooth="yes"/>
      <point x="145" y="722"/>
      <point x="57" y="649"/>
      <point x="57" y="531" type="curve" smooth="yes"/>
      <point x="57" y="296"/>
      <point x="400" y="308"/>
      <point x="400" y="108" type="curve" smooth="yes"/>
      <point x="400" y="38"/>
      <point x="356" y="-12"/>
      <point x="295" y="-12" type="curve" smooth="yes"/>
      <point x="217" y="-12"/>
      <point x="165" y="69"/>
      <point x="165" y="190" type="curve" smooth="yes"/>
      <point x="165" y="236"/>
      <point x="172" y="274"/>
      <point x="192" y="330" type="curve"/>
      <point x="191" y="331" type="line"/>
      <point x="85" y="296"/>
      <point x="29" y="237"/>
      <point x="29" y="159" type="curve" smooth="yes"/>
      <point x="29" y="55"/>
      <point x="129" y="-14"/>
    </contour>
  </outline>
</glyph>
<glyph name="nine" format="2">
  <advance width="632"/>
  <unicode hex="0039"/>
  <outline>
    <contour>
      <point x="273" y="-150" type="curve" smooth="yes"/>
      <point x="459" y="-150"/>
      <point x="578" y="-7"/>
      <point x="578" y="216" type="curve" smooth="yes"/>
      <point x="578" y="420"/>
      <point x="481" y="533"/>
      <point x="306" y="533" type="curve" smooth="yes"/>
      <point x="152" y="533"/>
      <point x="54" y="447"/>
      <point x="54" y="312" type="curve" smooth="yes"/>
      <point x="54" y="192"/>
      <point x="133" y="111"/>
      <point x="250" y="111" type="curve" smooth="yes"/>
      <point x="321" y="111"/>
      <point x="375" y="146"/>
      <point x="396" y="211" type="curve"/>
      <point x="395" y="211" type="line"/>
      <point x="378" y="164"/>
      <point x="344" y="139"/>
      <point x="313" y="139" type="curve" smooth="yes"/>
      <point x="265" y="139"/>
      <point x="241" y="201"/>
      <point x="241" y="326" type="curve" smooth="yes"/>
      <point x="241" y="457"/>
      <point x="265" y="532"/>
      <point x="306" y="532" type="curve" smooth="yes"/>
      <point x="360" y="532"/>
      <point x="391" y="411"/>
      <point x="391" y="206" type="curve" smooth="yes"/>
      <point x="391" y="-36"/>
      <point x="343" y="-145"/>
      <point x="234" y="-145" type="curve" smooth="yes"/>
      <point x="198" y="-145"/>
      <point x="179" y="-132"/>
      <point x="179" y="-106" type="curve" smooth="yes"/>
      <point x="179" y="-65"/>
      <point x="226" y="-42"/>
      <point x="226" y="4" type="curve" smooth="yes"/>
      <point x="226" y="39"/>
      <point x="201" y="61"/>
      <point x="160" y="61" type="curve" smooth="yes"/>
      <point x="111" y="61"/>
      <point x="79" y="29"/>
      <point x="79" y="-18" type="curve" smooth="yes"/>
      <point x="79" y="-95"/>
      <point x="160" y="-150"/>
    </contour>
  </outline>
</glyph>
<glyph name="at" format="2">
  <advance width="927"/>
  <unicode hex="0040"/>
  <outline>
    <contour>
      <point x="354" y="-161" type="curve" smooth="yes"/>
      <point x="443" y="-161"/>
      <point x="519" y="-141"/>
      <point x="577" y="-102" type="curve"/>
      <point x="577" y="-101" type="line"/>
      <point x="519" y="-140"/>
      <point x="443" y="-160"/>
      <point x="354" y="-160" type="curve" smooth="yes"/>
      <point x="157" y="-160"/>
      <point x="51" y="-61"/>
      <point x="51" y="122" type="curve" smooth="yes"/>
      <point x="51" y="408"/>
      <point x="308" y="667"/>
      <point x="595" y="667" type="curve" smooth="yes"/>
      <point x="773" y="667"/>
      <point x="882" y="570"/>
      <point x="882" y="413" type="curve" smooth="yes"/>
      <point x="882" y="190"/>
      <point x="715" y="47"/>
      <point x="635" y="47" type="curve" smooth="yes"/>
      <point x="617" y="47"/>
      <point x="609" y="52"/>
      <point x="619" y="87" type="curve" smooth="yes"/>
      <point x="710" y="415" type="line" smooth="yes"/>
      <point x="720" y="453"/>
      <point x="732" y="470"/>
      <point x="742" y="483" type="curve"/>
      <point x="741" y="484" type="line"/>
      <point x="707" y="440"/>
      <point x="646" y="410"/>
      <point x="556" y="393" type="curve"/>
      <point x="489" y="148" type="line" smooth="yes"/>
      <point x="467" y="67"/>
      <point x="491" y="26"/>
      <point x="562" y="26" type="curve" smooth="yes"/>
      <point x="721" y="26"/>
      <point x="883" y="191"/>
      <point x="883" y="413" type="curve" smooth="yes"/>
      <point x="883" y="572"/>
      <point x="774" y="668"/>
      <point x="596" y="668" type="curve" smooth="yes"/>
      <point x="307" y="668"/>
      <point x="50" y="411"/>
      <point x="50" y="121" type="curve" smooth="yes"/>
      <point x="50" y="-62"/>
      <point x="156" y="-161"/>
    </contour>
    <contour>
      <point x="362" y="26" type="curve" smooth="yes"/>
      <point x="411" y="26"/>
      <point x="447" y="47"/>
      <point x="483" y="97" type="curve"/>
      <point x="483" y="98" type="line"/>
      <point x="470" y="88"/>
      <point x="456" y="84"/>
      <point x="436" y="84" type="curve" smooth="yes"/>
      <point x="393" y="84"/>
      <point x="375" y="114"/>
      <point x="375" y="186" type="curve" smooth="yes"/>
      <point x="375" y="329"/>
      <point x="447" y="477"/>
      <point x="518" y="477" type="curve" smooth="yes"/>
      <point x="550" y="477"/>
      <point x="559" y="448"/>
      <point x="552" y="370" type="curve"/>
      <point x="662" y="405" type="line"/>
      <point x="619" y="456"/>
      <point x="574" y="478"/>
      <point x="511" y="478" type="curve" smooth="yes"/>
      <point x="357" y="478"/>
      <point x="226" y="345"/>
      <point x="226" y="189" type="curve" smooth="yes"/>
      <point x="226" y="89"/>
      <point x="279" y="26"/>
    </contour>
  </outline>
</glyph>
<glyph name="A" format="2">
  <advance width="761"/>
  <unicode hex="0041"/>
  <anchor x="387" y="0" name="bottom"/>
  <anchor x="371" y="354" name="center"/>
  <anchor x="603" y="0" name="ogonek"/>
  <anchor x="370" y="708" name="top"/>
  <anchor x="370" y="688" name="top_low_1"/>
  <anchor x="370" y="668" name="top_low_2"/>
  <anchor x="370" y="648" name="top_low_3"/>
  <outline>
    <contour>
      <point x="168" y="248" type="curve"/>
      <point x="273" y="496" type="line"/>
      <point x="263" y="476" type="line"/>
      <point x="447" y="88" type="line"/>
      <point x="478" y="24"/>
      <point x="466" y="7"/>
      <point x="423" y="3" type="curve"/>
      <point x="403" y="1" type="line"/>
      <point x="403" y="0" type="line"/>
      <point x="438" y="1"/>
      <point x="502" y="3"/>
      <point x="590" y="3" type="curve"/>
      <point x="601" y="3" type="line"/>
      <point x="619" y="3" type="line"/>
      <point x="687" y="3"/>
      <point x="739" y="1"/>
      <point x="766" y="0" type="curve"/>
      <point x="766" y="1" type="line"/>
      <point x="752" y="3" type="line"/>
      <point x="718" y="8"/>
      <point x="702" y="21"/>
      <point x="686" y="57" type="curve"/>
      <point x="369" y="723" type="line"/>
      <point x="368" y="723" type="line"/>
      <point x="166" y="248" type="line"/>
      <point x="90" y="69"/>
      <point x="59" y="24"/>
      <point x="2" y="5" type="curve"/>
      <point x="-10" y="1" type="line"/>
      <point x="-10" y="0" type="line"/>
      <point x="29" y="2"/>
      <point x="52" y="3"/>
      <point x="91" y="3" type="curve"/>
      <point x="132" y="3"/>
      <point x="158" y="2"/>
      <point x="218" y="0" type="curve"/>
      <point x="218" y="1" type="line"/>
      <point x="211" y="2" type="line"/>
      <point x="124" y="14"/>
      <point x="108" y="106"/>
    </contour>
    <contour>
      <point x="158" y="228" type="line"/>
      <point x="454" y="228" type="line"/>
      <point x="454" y="229" type="line"/>
      <point x="159" y="229" type="line"/>
    </contour>
  </outline>
</glyph>
<glyph name="B" format="2">
  <advance width="706"/>
  <unicode hex="0042"/>
  <anchor x="354" y="0" name="bottom"/>
  <anchor x="202" y="367" name="center"/>
  <anchor x="373" y="0" name="currency"/>
  <anchor x="354" y="708" name="top"/>
  <anchor x="354" y="688" name="top_low_1"/>
  <anchor x="354" y="668" name="top_low_2"/>
  <anchor x="354" y="648" name="top_low_3"/>
  <outline>
    <contour>
      <point x="346" y="0" type="curve"/>
      <point x="427" y="0" type="line" smooth="yes"/>
      <point x="590" y="0"/>
      <point x="686" y="70"/>
      <point x="686" y="179" type="curve" smooth="yes"/>
      <point x="686" y="308"/>
      <point x="584" y="367"/>
      <point x="375" y="367" type="curve"/>
      <point x="375" y="368" type="line"/>
      <point x="546" y="378"/>
      <point x="634" y="437"/>
      <point x="634" y="547" type="curve" smooth="yes"/>
      <point x="634" y="657"/>
      <point x="559" y="708"/>
      <point x="395" y="708" type="curve" smooth="yes"/>
      <point x="346" y="708" type="line"/>
      <point x="320" y="708"/>
      <point x="272" y="705"/>
      <point x="208" y="705" type="curve"/>
      <point x="125" y="705"/>
      <point x="63" y="707"/>
      <point x="30" y="708" type="curve"/>
      <point x="30" y="707" type="line"/>
      <point x="46" y="705" type="line"/>
      <point x="91" y="700"/>
      <point x="101" y="684"/>
      <point x="101" y="621" type="curve"/>
      <point x="101" y="87" type="line"/>
      <point x="101" y="24"/>
      <point x="91" y="8"/>
      <point x="46" y="3" type="curve"/>
      <point x="30" y="1" type="line"/>
      <point x="30" y="0" type="line"/>
      <point x="63" y="1"/>
      <point x="125" y="3"/>
      <point x="208" y="3" type="curve"/>
      <point x="272" y="3"/>
      <point x="320" y="0"/>
    </contour>
    <contour>
      <point x="365" y="2" type="curve" smooth="yes"/>
      <point x="317" y="2"/>
      <point x="304" y="20"/>
      <point x="304" y="87" type="curve" smooth="yes"/>
      <point x="304" y="705" type="line"/>
      <point x="344" y="705" type="line" smooth="yes"/>
      <point x="410" y="705"/>
      <point x="448" y="639"/>
      <point x="448" y="543" type="curve" smooth="yes"/>
      <point x="448" y="434"/>
      <point x="415" y="368"/>
      <point x="361" y="368" type="curve" smooth="yes"/>
      <point x="245" y="368" type="line"/>
      <point x="245" y="367" type="line"/>
      <point x="358" y="367" type="line" smooth="yes"/>
      <point x="435" y="367"/>
      <point x="476" y="300"/>
      <point x="476" y="187" type="curve" smooth="yes"/>
      <point x="476" y="67"/>
      <point x="435" y="2"/>
    </contour>
  </outline>
</glyph>
<glyph name="C" format="2">
  <advance width="718"/>
  <unicode hex="0043"/>
  <anchor x="418" y="0" name="bottom"/>
  <anchor x="387" y="354" name="center"/>
  <anchor x="414" y="0" name="currency"/>
  <anchor x="247" y="354" name="middlestroke"/>
  <anchor x="387" y="708" name="top"/>
  <anchor x="387" y="688" name="top_low_1"/>
  <anchor x="387" y="668" name="top_low_2"/>
  <anchor x="387" y="648" name="top_low_3"/>
  <outline>
    <contour>
      <point x="389" y="-14" type="curve" smooth="yes"/>
      <point x="534" y="-14"/>
      <point x="565" y="39"/>
      <point x="619" y="39" type="curve" smooth="yes"/>
      <point x="647" y="39"/>
      <point x="659" y="26"/>
      <point x="666" y="-14" type="curve"/>
      <point x="667" y="-14" type="line"/>
      <point x="664" y="37"/>
      <point x="663" y="108"/>
      <point x="663" y="260" type="curve"/>
      <point x="662" y="260" type="line"/>
      <point x="646" y="88"/>
      <point x="573" y="-2"/>
      <point x="462" y="-2" type="curve" smooth="yes"/>
      <point x="325" y="-2"/>
      <point x="247" y="127"/>
      <point x="247" y="355" type="curve" smooth="yes"/>
      <point x="247" y="583"/>
      <point x="323" y="709"/>
      <point x="459" y="709" type="curve" smooth="yes"/>
      <point x="571" y="709"/>
      <point x="644" y="620"/>
      <point x="662" y="448" type="curve"/>
      <point x="663" y="448" type="line"/>
      <point x="663" y="605"/>
      <point x="664" y="671"/>
      <point x="667" y="722" type="curve"/>
      <point x="666" y="722" type="line"/>
      <point x="659" y="685"/>
      <point x="645" y="668"/>
      <point x="620" y="668" type="curve" smooth="yes"/>
      <point x="562" y="668"/>
      <point x="530" y="722"/>
      <point x="384" y="722" type="curve" smooth="yes"/>
      <point x="174" y="722"/>
      <point x="37" y="575"/>
      <point x="37" y="349" type="curve" smooth="yes"/>
      <point x="37" y="125"/>
      <point x="152" y="-14"/>
    </contour>
  </outline>
</glyph>
<glyph name="D" format="2">
  <advance width="813"/>
  <unicode hex="0044"/>
  <anchor x="388" y="0" name="bottom"/>
  <anchor x="213" y="356" name="center"/>
  <anchor x="403" y="708" name="top"/>
  <anchor x="403" y="688" name="top_low_1"/>
  <anchor x="403" y="668" name="top_low_2"/>
  <anchor x="403" y="648" name="top_low_3"/>
  <outline>
    <contour>
      <point x="346" y="0" type="curve"/>
      <point x="354" y="0" type="line" smooth="yes"/>
      <point x="618" y="0"/>
      <point x="776" y="139"/>
      <point x="776" y="370" type="curve" smooth="yes"/>
      <point x="776" y="591"/>
      <point x="632" y="708"/>
      <point x="358" y="708" type="curve" smooth="yes"/>
      <point x="346" y="708" type="line"/>
      <point x="320" y="708"/>
      <point x="272" y="705"/>
      <point x="208" y="705" type="curve"/>
      <point x="125" y="705"/>
      <point x="63" y="707"/>
      <point x="30" y="708" type="curve"/>
      <point x="30" y="707" type="line"/>
      <point x="46" y="705" type="line"/>
      <point x="91" y="700"/>
      <point x="101" y="684"/>
      <point x="101" y="621" type="curve"/>
      <point x="101" y="87" type="line"/>
      <point x="101" y="24"/>
      <point x="91" y="8"/>
      <point x="46" y="3" type="curve"/>
      <point x="30" y="1" type="line"/>
      <point x="30" y="0" type="line"/>
      <point x="63" y="1"/>
      <point x="125" y="3"/>
      <point x="208" y="3" type="curve"/>
      <point x="272" y="3"/>
      <point x="320" y="0"/>
    </contour>
    <contour>
      <point x="373" y="2" type="curve" smooth="yes"/>
      <point x="318" y="2"/>
      <point x="304" y="18"/>
      <point x="304" y="85" type="curve" smooth="yes"/>
      <point x="304" y="706" type="line"/>
      <point x="364" y="706" type="line" smooth="yes"/>
      <point x="508" y="706"/>
      <point x="566" y="600"/>
      <point x="566" y="356" type="curve" smooth="yes"/>
      <point x="566" y="110"/>
      <point x="507" y="2"/>
    </contour>
  </outline>
</glyph>
<glyph name="E" format="2">
  <advance width="681"/>
  <unicode hex="0045"/>
  <anchor x="346" y="0" name="bottom"/>
  <anchor x="321" y="354" name="center"/>
  <anchor x="559" y="0" name="ogonek"/>
  <anchor x="321" y="708" name="top"/>
  <anchor x="321" y="688" name="top_low_1"/>
  <anchor x="321" y="668" name="top_low_2"/>
  <anchor x="321" y="648" name="top_low_3"/>
  <outline>
    <contour>
      <point x="186" y="3" type="curve"/>
      <point x="202" y="3" type="line"/>
      <point x="359" y="3" type="line"/>
      <point x="481" y="3"/>
      <point x="558" y="2"/>
      <point x="613" y="0" type="curve"/>
      <point x="612" y="87"/>
      <point x="616" y="181"/>
      <point x="624" y="280" type="curve"/>
      <point x="623" y="280" type="line"/>
      <point x="569" y="118"/>
      <point x="482" y="4"/>
      <point x="359" y="4" type="curve"/>
      <point x="349" y="4" type="line"/>
      <point x="313" y="4"/>
      <point x="303" y="22"/>
      <point x="303" y="85" type="curve"/>
      <point x="303" y="704" type="line"/>
      <point x="334" y="704" type="line"/>
      <point x="457" y="704"/>
      <point x="536" y="628"/>
      <point x="573" y="508" type="curve"/>
      <point x="574" y="508" type="line"/>
      <point x="568" y="584"/>
      <point x="566" y="651"/>
      <point x="568" y="708" type="curve"/>
      <point x="517" y="706"/>
      <point x="446" y="705"/>
      <point x="334" y="705" type="curve"/>
      <point x="202" y="705" type="line"/>
      <point x="186" y="705" type="line"/>
      <point x="113" y="705"/>
      <point x="59" y="707"/>
      <point x="30" y="708" type="curve"/>
      <point x="30" y="707" type="line"/>
      <point x="46" y="705" type="line"/>
      <point x="91" y="700"/>
      <point x="100" y="684"/>
      <point x="100" y="621" type="curve"/>
      <point x="100" y="87" type="line"/>
      <point x="100" y="24"/>
      <point x="91" y="8"/>
      <point x="46" y="3" type="curve"/>
      <point x="30" y="1" type="line"/>
      <point x="30" y="0" type="line"/>
      <point x="59" y="1"/>
      <point x="113" y="3"/>
    </contour>
    <contour>
      <point x="273" y="355" type="line"/>
      <point x="453" y="355" type="line"/>
      <point x="453" y="356" type="line"/>
      <point x="273" y="356" type="line"/>
    </contour>
    <contour>
      <point x="504" y="194" type="curve"/>
      <point x="505" y="194" type="line"/>
      <point x="500" y="276"/>
      <point x="499" y="314"/>
      <point x="499" y="356" type="curve" smooth="yes"/>
      <point x="499" y="394"/>
      <point x="497" y="431"/>
      <point x="502" y="518" type="curve"/>
      <point x="501" y="518" type="line"/>
      <point x="486" y="422"/>
      <point x="422" y="356"/>
      <point x="345" y="356" type="curve"/>
      <point x="345" y="355" type="line"/>
      <point x="432" y="355"/>
      <point x="491" y="296"/>
    </contour>
  </outline>
</glyph>
<glyph name="F" format="2">
  <advance width="609"/>
  <unicode hex="0046"/>
  <anchor x="301" y="0" name="bottom"/>
  <anchor x="236" y="140" name="center"/>
  <anchor x="100" y="250" name="stem"/>
  <anchor x="305" y="708" name="top"/>
  <anchor x="305" y="688" name="top_low_1"/>
  <anchor x="305" y="668" name="top_low_2"/>
  <anchor x="305" y="648" name="top_low_3"/>
  <outline>
    <contour>
      <point x="100" y="250" type="line"/>
      <point x="303" y="250" type="line"/>
      <point x="303" y="704" type="line"/>
      <point x="334" y="704" type="line"/>
      <point x="458" y="704"/>
      <point x="534" y="607"/>
      <point x="575" y="468" type="curve"/>
      <point x="576" y="468" type="line"/>
      <point x="570" y="554"/>
      <point x="567" y="634"/>
      <point x="568" y="708" type="curve"/>
      <point x="517" y="706"/>
      <point x="446" y="705"/>
      <point x="334" y="705" type="curve"/>
      <point x="202" y="705" type="line"/>
      <point x="186" y="705" type="line"/>
      <point x="113" y="705"/>
      <point x="59" y="707"/>
      <point x="30" y="708" type="curve"/>
      <point x="30" y="707" type="line"/>
      <point x="46" y="705" type="line"/>
      <point x="91" y="700"/>
      <point x="100" y="684"/>
      <point x="100" y="621" type="curve"/>
    </contour>
    <contour>
      <point x="273" y="355" type="line"/>
      <point x="453" y="355" type="line"/>
      <point x="453" y="356" type="line"/>
      <point x="273" y="356" type="line"/>
    </contour>
    <contour>
      <point x="504" y="184" type="curve"/>
      <point x="505" y="184" type="line"/>
      <point x="501" y="251"/>
      <point x="499" y="313"/>
      <point x="499" y="356" type="curve" smooth="yes"/>
      <point x="499" y="426"/>
      <point x="500" y="485"/>
      <point x="502" y="518" type="curve"/>
      <point x="501" y="518" type="line"/>
      <point x="485" y="414"/>
      <point x="429" y="356"/>
      <point x="345" y="356" type="curve"/>
      <point x="345" y="355" type="line"/>
      <point x="434" y="355"/>
      <point x="491" y="294"/>
    </contour>
    <component base="_UC-bottom-stem-normal-wide"/>
  </outline>
</glyph>
<glyph name="G" format="2">
  <advance width="757"/>
  <unicode hex="0047"/>
  <anchor x="420" y="0" name="bottom"/>
  <anchor x="394" y="708" name="top"/>
  <anchor x="394" y="688" name="top_low_1"/>
  <anchor x="394" y="668" name="top_low_2"/>
  <anchor x="394" y="648" name="top_low_3"/>
  <outline>
    <contour>
      <point x="409" y="-14" type="curve" smooth="yes"/>
      <point x="524" y="-14"/>
      <point x="602" y="57"/>
      <point x="652" y="57" type="curve" smooth="yes"/>
      <point x="687" y="57"/>
      <point x="696" y="28"/>
      <point x="700" y="-14" type="curve"/>
      <point x="701" y="-14" type="line"/>
      <point x="701" y="237" type="line" smooth="yes"/>
      <point x="701" y="311"/>
      <point x="708" y="318"/>
      <point x="742" y="323" type="curve"/>
      <point x="742" y="324" type="line"/>
      <point x="708" y="322"/>
      <point x="652" y="321"/>
      <point x="588" y="321" type="curve" smooth="yes"/>
      <point x="537" y="321"/>
      <point x="465" y="322"/>
      <point x="427" y="324" type="curve"/>
      <point x="427" y="323" type="line"/>
      <point x="486" y="318"/>
      <point x="498" y="304"/>
      <point x="498" y="227" type="curve" smooth="yes"/>
      <point x="498" y="48" type="line" smooth="yes"/>
      <point x="498" y="32"/>
      <point x="498" y="-11"/>
      <point x="429" y="-11" type="curve" smooth="yes"/>
      <point x="319" y="-11"/>
      <point x="247" y="107"/>
      <point x="247" y="342" type="curve" smooth="yes"/>
      <point x="247" y="518"/>
      <point x="293" y="711"/>
      <point x="468" y="711" type="curve" smooth="yes"/>
      <point x="596" y="711"/>
      <point x="678" y="608"/>
      <point x="682" y="458" type="curve"/>
      <point x="683" y="458" type="line"/>
      <point x="683" y="591"/>
      <point x="684" y="666"/>
      <point x="687" y="722" type="curve"/>
      <point x="686" y="722" type="line"/>
      <point x="679" y="685"/>
      <point x="666" y="668"/>
      <point x="641" y="668" type="curve" smooth="yes"/>
      <point x="584" y="668"/>
      <point x="556" y="722"/>
      <point x="401" y="722" type="curve" smooth="yes"/>
      <point x="185" y="722"/>
      <point x="37" y="577"/>
      <point x="37" y="342" type="curve" smooth="yes"/>
      <point x="37" y="120"/>
      <point x="169" y="-14"/>
    </contour>
  </outline>
</glyph>
<glyph name="I" format="2">
  <advance width="403"/>
  <unicode hex="0049"/>
  <anchor x="29" y="0" name="#entry"/>
  <anchor x="374" y="0" name="^exit"/>
  <anchor x="202" y="0" name="bottom"/>
  <anchor x="202" y="354" name="center"/>
  <anchor x="350" y="0" name="ogonek"/>
  <anchor x="201" y="708" name="top"/>
  <anchor x="201" y="688" name="top_low_1"/>
  <anchor x="201" y="668" name="top_low_2"/>
  <anchor x="201" y="648" name="top_low_3"/>
  <outline>
    <contour>
      <point x="186" y="3" type="curve"/>
      <point x="202" y="3" type="line"/>
      <point x="217" y="3" type="line"/>
      <point x="290" y="3"/>
      <point x="344" y="1"/>
      <point x="373" y="0" type="curve"/>
      <point x="373" y="1" type="line"/>
      <point x="357" y="3" type="line"/>
      <point x="312" y="8"/>
      <point x="303" y="24"/>
      <point x="303" y="87" type="curve"/>
      <point x="303" y="621" type="line"/>
      <point x="303" y="684"/>
      <point x="312" y="700"/>
      <point x="357" y="705" type="curve"/>
      <point x="373" y="707" type="line"/>
      <point x="373" y="708" type="line"/>
      <point x="344" y="707"/>
      <point x="290" y="705"/>
      <point x="217" y="705" type="curve"/>
      <point x="202" y="705" type="line"/>
      <point x="186" y="705" type="line"/>
      <point x="113" y="705"/>
      <point x="59" y="707"/>
      <point x="30" y="708" type="curve"/>
      <point x="30" y="707" type="line"/>
      <point x="46" y="705" type="line"/>
      <point x="91" y="700"/>
      <point x="100" y="684"/>
      <point x="100" y="621" type="curve"/>
      <point x="100" y="87" type="line"/>
      <point x="100" y="24"/>
      <point x="91" y="8"/>
      <point x="46" y="3" type="curve"/>
      <point x="30" y="1" type="line"/>
      <point x="30" y="0" type="line"/>
      <point x="59" y="1"/>
      <point x="113" y="3"/>
    </contour>
  </outline>
</glyph>
<glyph name="K" format="2">
  <advance width="755"/>
  <unicode hex="004B"/>
  <anchor x="415" y="0" name="bottom"/>
  <anchor x="418" y="354" name="center"/>
  <anchor x="201" y="520" name="stroke"/>
  <anchor x="392" y="708" name="top"/>
  <anchor x="392" y="688" name="top_low_1"/>
  <anchor x="392" y="668" name="top_low_2"/>
  <anchor x="392" y="648" name="top_low_3"/>
  <outline>
    <contour>
      <point x="510" y="0" type="curve"/>
      <point x="553" y="2"/>
      <point x="587" y="3"/>
      <point x="625" y="3" type="curve" smooth="yes"/>
      <point x="692" y="3"/>
      <point x="750" y="2"/>
      <point x="785" y="0" type="curve"/>
      <point x="785" y="1" type="line"/>
      <point x="743" y="11"/>
      <point x="726" y="31"/>
      <point x="700" y="97" type="curve" smooth="yes"/>
      <point x="647" y="233" type="line" smooth="yes"/>
      <point x="598" y="358"/>
      <point x="539" y="415"/>
      <point x="439" y="431" type="curve"/>
      <point x="435" y="425" type="line"/>
      <point x="545" y="549" type="line" smooth="yes"/>
      <point x="622" y="635"/>
      <point x="669" y="673"/>
      <point x="740" y="707" type="curve"/>
      <point x="740" y="708" type="line"/>
      <point x="672" y="706"/>
      <point x="644" y="705"/>
      <point x="614" y="705" type="curve" smooth="yes"/>
      <point x="566" y="705"/>
      <point x="503" y="706"/>
      <point x="420" y="708" type="curve"/>
      <point x="420" y="707" type="line"/>
      <point x="560" y="699"/>
      <point x="581" y="592"/>
      <point x="487" y="486" type="curve" smooth="yes"/>
      <point x="433" y="425" type="line" smooth="yes"/>
      <point x="395" y="383"/>
      <point x="346" y="355"/>
      <point x="304" y="355" type="curve" smooth="yes"/>
      <point x="261" y="355" type="line"/>
      <point x="261" y="354" type="line"/>
      <point x="304" y="354" type="line" smooth="yes"/>
      <point x="367" y="354"/>
      <point x="402" y="318"/>
      <point x="449" y="198" type="curve" smooth="yes"/>
      <point x="497" y="76" type="line" smooth="yes"/>
      <point x="507" y="50"/>
      <point x="511" y="25"/>
    </contour>
    <contour>
      <point x="186" y="3" type="curve"/>
      <point x="201" y="3" type="line"/>
      <point x="217" y="3" type="line"/>
      <point x="290" y="3"/>
      <point x="344" y="1"/>
      <point x="373" y="0" type="curve"/>
      <point x="373" y="1" type="line"/>
      <point x="357" y="3" type="line"/>
      <point x="312" y="8"/>
      <point x="303" y="24"/>
      <point x="303" y="87" type="curve"/>
      <point x="303" y="708" type="line"/>
      <point x="269" y="706"/>
      <point x="235" y="705"/>
      <point x="201" y="705" type="curve"/>
      <point x="186" y="705" type="line"/>
      <point x="113" y="705"/>
      <point x="59" y="707"/>
      <point x="30" y="708" type="curve"/>
      <point x="30" y="707" type="line"/>
      <point x="46" y="705" type="line"/>
      <point x="91" y="700"/>
      <point x="100" y="684"/>
      <point x="100" y="621" type="curve"/>
      <point x="100" y="87" type="line"/>
      <point x="100" y="24"/>
      <point x="91" y="8"/>
      <point x="46" y="3" type="curve"/>
      <point x="30" y="1" type="line"/>
      <point x="30" y="0" type="line"/>
      <point x="59" y="1"/>
      <point x="113" y="3"/>
    </contour>
  </outline>
</glyph>
<glyph name="M" format="2">
  <advance width="966"/>
  <unicode hex="004D"/>
  <anchor x="483" y="0" name="bottom"/>
  <anchor x="483" y="708" name="top"/>
  <anchor x="483" y="688" name="top_low_1"/>
  <anchor x="483" y="668" name="top_low_2"/>
  <anchor x="483" y="648" name="top_low_3"/>
  <outline>
    <contour>
      <point x="413" y="-15" type="line"/>
      <point x="414" y="-15" type="line"/>
      <point x="662" y="703" type="line"/>
      <point x="663" y="703" type="line"/>
      <point x="663" y="87" type="line"/>
      <point x="663" y="24"/>
      <point x="654" y="8"/>
      <point x="609" y="3" type="curve"/>
      <point x="593" y="1" type="line"/>
      <point x="593" y="0" type="line"/>
      <point x="622" y="1"/>
      <point x="676" y="3"/>
      <point x="749" y="3" type="curve"/>
      <point x="765" y="3" type="line"/>
      <point x="780" y="3" type="line"/>
      <point x="853" y="3"/>
      <point x="907" y="1"/>
      <point x="936" y="0" type="curve"/>
      <point x="936" y="1" type="line"/>
      <point x="920" y="3" type="line"/>
      <point x="875" y="8"/>
      <point x="866" y="24"/>
      <point x="866" y="87" type="curve"/>
      <point x="866" y="621" type="line"/>
      <point x="866" y="684"/>
      <point x="875" y="700"/>
      <point x="920" y="705" type="curve"/>
      <point x="936" y="707" type="line"/>
      <point x="936" y="708" type="line"/>
      <point x="907" y="707"/>
      <point x="853" y="705"/>
      <point x="780" y="705" type="curve"/>
      <point x="771" y="705" type="line"/>
      <point x="738" y="705"/>
      <point x="699" y="705"/>
      <point x="662" y="708" type="curve"/>
      <point x="504" y="250" type="line"/>
      <point x="508" y="257" type="line"/>
      <point x="304" y="708" type="line"/>
      <point x="275" y="706"/>
      <point x="241" y="705"/>
      <point x="203" y="705" type="curve"/>
      <point x="187" y="705" type="line"/>
      <point x="114" y="705"/>
      <point x="60" y="707"/>
      <point x="31" y="708" type="curve"/>
      <point x="31" y="707" type="line"/>
      <point x="47" y="705" type="line"/>
      <point x="92" y="700"/>
      <point x="101" y="684"/>
      <point x="101" y="621" type="curve"/>
      <point x="101" y="87" type="line"/>
      <point x="101" y="24"/>
      <point x="91" y="8"/>
      <point x="46" y="3" type="curve"/>
      <point x="30" y="1" type="line"/>
      <point x="30" y="0" type="line"/>
      <point x="43" y="1"/>
      <point x="68" y="3"/>
      <point x="102" y="3" type="curve"/>
      <point x="146" y="3"/>
      <point x="179" y="1"/>
      <point x="197" y="0" type="curve"/>
      <point x="197" y="1" type="line"/>
      <point x="167" y="4" type="line"/>
      <point x="114" y="9"/>
      <point x="102" y="27"/>
      <point x="102" y="87" type="curve"/>
      <point x="102" y="667" type="line"/>
      <point x="103" y="667" type="line"/>
    </contour>
  </outline>
</glyph>
<glyph name="O" format="2">
  <advance width="828"/>
  <unicode hex="004F"/>
  <anchor x="415" y="0" name="bottom"/>
  <anchor x="414" y="354" name="center"/>
  <anchor x="530" y="0" name="ogonek"/>
  <anchor x="414" y="708" name="top"/>
  <anchor x="414" y="688" name="top_low_1"/>
  <anchor x="414" y="668" name="top_low_2"/>
  <anchor x="414" y="648" name="top_low_3"/>
  <anchor x="20" y="708" name="topleft"/>
  <anchor x="807" y="708" name="topright"/>
  <outline>
    <contour>
      <point x="414" y="-14" type="curve" smooth="yes"/>
      <point x="640" y="-14"/>
      <point x="791" y="138"/>
      <point x="791" y="354" type="curve" smooth="yes"/>
      <point x="791" y="570"/>
      <point x="640" y="722"/>
      <point x="414" y="722" type="curve" smooth="yes"/>
      <point x="188" y="722"/>
      <point x="37" y="570"/>
      <point x="37" y="354" type="curve" smooth="yes"/>
      <point x="37" y="138"/>
      <point x="188" y="-14"/>
    </contour>
    <contour>
      <point x="414" y="-13" type="curve" smooth="yes"/>
      <point x="322" y="-13"/>
      <point x="247" y="129"/>
      <point x="247" y="354" type="curve" smooth="yes"/>
      <point x="247" y="579"/>
      <point x="322" y="721"/>
      <point x="414" y="721" type="curve" smooth="yes"/>
      <point x="506" y="721"/>
      <point x="581" y="579"/>
      <point x="581" y="354" type="curve" smooth="yes"/>
      <point x="581" y="129"/>
      <point x="506" y="-13"/>
    </contour>
  </outline>
</glyph>
<glyph name="S" format="2">
  <advance width="613"/>
  <unicode hex="0053"/>
  <anchor x="312" y="0" name="bottom"/>
  <anchor x="312" y="354" name="center"/>
  <anchor x="315" y="0" name="currency"/>
  <anchor x="313" y="708" name="top"/>
  <anchor x="313" y="688" name="top_low_1"/>
  <anchor x="313" y="668" name="top_low_2"/>
  <anchor x="313" y="648" name="top_low_3"/>
  <outline>
    <contour>
      <point x="301" y="-14" type="curve" smooth="yes"/>
      <point x="480" y="-14"/>
      <point x="577" y="68"/>
      <point x="577" y="220" type="curve" smooth="yes"/>
      <point x="577" y="330"/>
      <point x="518" y="396"/>
      <point x="376" y="445" type="curve" smooth="yes"/>
      <point x="252" y="488"/>
      <point x="209" y="528"/>
      <point x="209" y="600" type="curve" smooth="yes"/>
      <point x="209" y="675"/>
      <point x="253" y="719"/>
      <point x="329" y="719" type="curve" smooth="yes"/>
      <point x="443" y="719"/>
      <point x="526" y="619"/>
      <point x="537" y="468" type="curve"/>
      <point x="538" y="468" type="line"/>
      <point x="538" y="623"/>
      <point x="539" y="674"/>
      <point x="543" y="722" type="curve"/>
      <point x="542" y="722" type="line"/>
      <point x="534" y="691"/>
      <point x="523" y="680"/>
      <point x="501" y="680" type="curve" smooth="yes"/>
      <point x="459" y="680"/>
      <point x="417" y="722"/>
      <point x="304" y="722" type="curve" smooth="yes"/>
      <point x="147" y="722"/>
      <point x="54" y="641"/>
      <point x="54" y="504" type="curve" smooth="yes"/>
      <point x="54" y="395"/>
      <point x="117" y="325"/>
      <point x="259" y="278" type="curve" smooth="yes"/>
      <point x="375" y="240"/>
      <point x="422" y="190"/>
      <point x="422" y="114" type="curve" smooth="yes"/>
      <point x="422" y="34"/>
      <point x="370" y="-11"/>
      <point x="279" y="-11" type="curve" smooth="yes"/>
      <point x="143" y="-11"/>
      <point x="66" y="90"/>
      <point x="54" y="283" type="curve"/>
      <point x="53" y="283" type="line"/>
      <point x="53" y="114"/>
      <point x="52" y="40"/>
      <point x="49" y="-14" type="curve"/>
      <point x="50" y="-14" type="line"/>
      <point x="58" y="14"/>
      <point x="70" y="25"/>
      <point x="91" y="25" type="curve" smooth="yes"/>
      <point x="131" y="25"/>
      <point x="177" y="-14"/>
    </contour>
  </outline>
</glyph>
<glyph name="T" format="2">
  <advance width="699"/>
  <unicode hex="0054"/>
  <anchor x="451" y="0" name="#exit"/>
  <anchor x="451" y="0" name="%exit"/>
  <anchor x="350" y="0" name="bottom"/>
  <anchor x="350" y="354" name="center"/>
  <anchor x="350" y="285" name="center_lowered"/>
  <outline>
    <contour>
      <point x="334" y="3" type="curve"/>
      <point x="349" y="3" type="line"/>
      <point x="365" y="3" type="line"/>
      <point x="444" y="3"/>
      <point x="503" y="1"/>
      <point x="535" y="0" type="curve"/>
      <point x="535" y="1" type="line"/>
      <point x="512" y="3" type="line"/>
      <point x="461" y="10"/>
      <point x="451" y="25"/>
      <point x="451" y="87" type="curve"/>
      <point x="451" y="250" type="line"/>
      <point x="248" y="250" type="line"/>
      <point x="248" y="87" type="line"/>
      <point x="248" y="25"/>
      <point x="237" y="10"/>
      <point x="186" y="4" type="curve"/>
      <point x="164" y="1" type="line"/>
      <point x="164" y="0" type="line"/>
      <point x="195" y="1"/>
      <point x="254" y="3"/>
    </contour>
    <component base="_UC-T-upper"/>
  </outline>
</glyph>
<glyph name="V" format="2">
  <advance width="761"/>
  <unicode hex="0056"/>
  <anchor x="393" y="0" name="bottom"/>
  <anchor x="383" y="708" name="top"/>
  <anchor x="383" y="688" name="top_low_1"/>
  <anchor x="383" y="668" name="top_low_2"/>
  <anchor x="383" y="648" name="top_low_3"/>
  <outline>
    <contour>
      <point x="392" y="-15" type="line"/>
      <point x="393" y="-15" type="line"/>
      <point x="595" y="460" type="line"/>
      <point x="671" y="639"/>
      <point x="702" y="684"/>
      <point x="759" y="703" type="curve"/>
      <point x="771" y="707" type="line"/>
      <point x="771" y="708" type="line"/>
      <point x="732" y="706"/>
      <point x="709" y="705"/>
      <point x="670" y="705" type="curve"/>
      <point x="629" y="705"/>
      <point x="603" y="706"/>
      <point x="543" y="708" type="curve"/>
      <point x="543" y="707" type="line"/>
      <point x="550" y="706" type="line"/>
      <point x="637" y="694"/>
      <point x="653" y="602"/>
      <point x="593" y="460" type="curve"/>
      <point x="488" y="212" type="line"/>
      <point x="498" y="232" type="line"/>
      <point x="314" y="620" type="line"/>
      <point x="283" y="684"/>
      <point x="295" y="701"/>
      <point x="338" y="705" type="curve"/>
      <point x="358" y="707" type="line"/>
      <point x="358" y="708" type="line"/>
      <point x="323" y="707"/>
      <point x="259" y="705"/>
      <point x="171" y="705" type="curve"/>
      <point x="160" y="705" type="line"/>
      <point x="142" y="705" type="line"/>
      <point x="74" y="705"/>
      <point x="22" y="707"/>
      <point x="-5" y="708" type="curve"/>
      <point x="-5" y="707" type="line"/>
      <point x="9" y="705" type="line"/>
      <point x="43" y="700"/>
      <point x="59" y="687"/>
      <point x="75" y="651" type="curve"/>
    </contour>
  </outline>
</glyph>
<glyph name="W" format="2">
  <advance width="1086"/>
  <unicode hex="0057"/>
  <anchor x="562" y="0" name="bottom"/>
  <anchor x="559" y="355" name="currency"/>
  <anchor x="562" y="708" name="top"/>
  <anchor x="562" y="688" name="top_low_1"/>
  <anchor x="562" y="668" name="top_low_2"/>
  <anchor x="562" y="648" name="top_low_3"/>
  <outline>
    <contour>
      <point x="745" y="-15" type="line"/>
      <point x="746" y="-15" type="line"/>
      <point x="920" y="455" type="line"/>
      <point x="988" y="638"/>
      <point x="1016" y="684"/>
      <point x="1073" y="703" type="curve"/>
      <point x="1085" y="707" type="line"/>
      <point x="1085" y="708" type="line"/>
      <point x="1046" y="706"/>
      <point x="1023" y="705"/>
      <point x="984" y="705" type="curve"/>
      <point x="943" y="705"/>
      <point x="917" y="706"/>
      <point x="857" y="708" type="curve"/>
      <point x="857" y="707" type="line"/>
      <point x="864" y="706" type="line"/>
      <point x="951" y="694"/>
      <point x="972" y="600"/>
      <point x="919" y="455" type="curve"/>
      <point x="844" y="253" type="line"/>
      <point x="845" y="254" type="line"/>
      <point x="690" y="618" type="line"/>
      <point x="662" y="683"/>
      <point x="675" y="701"/>
      <point x="718" y="705" type="curve"/>
      <point x="738" y="707" type="line"/>
      <point x="738" y="708" type="line"/>
      <point x="703" y="707"/>
      <point x="639" y="705"/>
      <point x="551" y="705" type="curve"/>
      <point x="546" y="705" type="line"/>
      <point x="533" y="705" type="line"/>
      <point x="465" y="705"/>
      <point x="413" y="707"/>
      <point x="386" y="708" type="curve"/>
      <point x="386" y="707" type="line"/>
      <point x="400" y="705" type="line"/>
      <point x="434" y="700"/>
      <point x="449" y="686"/>
      <point x="463" y="650" type="curve"/>
    </contour>
    <contour>
      <point x="369" y="-15" type="line"/>
      <point x="370" y="-15" type="line"/>
      <point x="582" y="464" type="line"/>
      <point x="581" y="465" type="line"/>
      <point x="477" y="230" type="line"/>
      <point x="480" y="234" type="line"/>
      <point x="310" y="619" type="line"/>
      <point x="282" y="683"/>
      <point x="294" y="701"/>
      <point x="337" y="705" type="curve"/>
      <point x="357" y="707" type="line"/>
      <point x="357" y="708" type="line"/>
      <point x="322" y="707"/>
      <point x="258" y="705"/>
      <point x="170" y="705" type="curve"/>
      <point x="162" y="705" type="line"/>
      <point x="146" y="705" type="line"/>
      <point x="78" y="705"/>
      <point x="26" y="707"/>
      <point x="-1" y="708" type="curve"/>
      <point x="-1" y="707" type="line"/>
      <point x="13" y="705" type="line"/>
      <point x="47" y="700"/>
      <point x="62" y="686"/>
      <point x="77" y="651" type="curve"/>
    </contour>
  </outline>
</glyph>
<glyph name="X" format="2">
  <advance width="729"/>
  <unicode hex="0058"/>
  <anchor x="365" y="0" name="bottom"/>
  <anchor x="762" y="0" name="bottomright"/>
  <anchor x="365" y="708" name="top"/>
  <anchor x="365" y="688" name="top_low_1"/>
  <anchor x="365" y="668" name="top_low_2"/>
  <anchor x="365" y="648" name="top_low_3"/>
  <outline>
    <contour>
      <point x="607" y="3" type="curve"/>
      <point x="617" y="3" type="line"/>
      <point x="634" y="3" type="line"/>
      <point x="702" y="3"/>
      <point x="754" y="1"/>
      <point x="781" y="0" type="curve"/>
      <point x="781" y="1" type="line"/>
      <point x="767" y="3" type="line"/>
      <point x="733" y="8"/>
      <point x="714" y="19"/>
      <point x="693" y="52" type="curve"/>
      <point x="297" y="628" type="line"/>
      <point x="257" y="686"/>
      <point x="265" y="701"/>
      <point x="308" y="705" type="curve"/>
      <point x="328" y="707" type="line"/>
      <point x="328" y="708" type="line"/>
      <point x="293" y="707"/>
      <point x="229" y="705"/>
      <point x="141" y="705" type="curve"/>
      <point x="131" y="705" type="line"/>
      <point x="114" y="705" type="line"/>
      <point x="46" y="705"/>
      <point x="-6" y="707"/>
      <point x="-33" y="708" type="curve"/>
      <point x="-33" y="707" type="line"/>
      <point x="-19" y="705" type="line"/>
      <point x="15" y="700"/>
      <point x="34" y="689"/>
      <point x="55" y="656" type="curve"/>
      <point x="451" y="80" type="line"/>
      <point x="491" y="22"/>
      <point x="483" y="7"/>
      <point x="440" y="3" type="curve"/>
      <point x="420" y="1" type="line"/>
      <point x="420" y="0" type="line"/>
      <point x="455" y="1"/>
      <point x="519" y="3"/>
    </contour>
    <contour>
      <point x="215" y="209" type="curve"/>
      <point x="316" y="332" type="line"/>
      <point x="315" y="333" type="line"/>
      <point x="213" y="209" type="line"/>
      <point x="90" y="58"/>
      <point x="41" y="24"/>
      <point x="-16" y="5" type="curve"/>
      <point x="-28" y="1" type="line"/>
      <point x="-28" y="0" type="line"/>
      <point x="11" y="2"/>
      <point x="34" y="3"/>
      <point x="73" y="3" type="curve"/>
      <point x="114" y="3"/>
      <point x="140" y="2"/>
      <point x="200" y="0" type="curve"/>
      <point x="200" y="1" type="line"/>
      <point x="193" y="2" type="line"/>
      <point x="106" y="14"/>
      <point x="118" y="89"/>
    </contour>
    <contour>
      <point x="383" y="375" type="line"/>
      <point x="485" y="499" type="line"/>
      <point x="608" y="650"/>
      <point x="657" y="684"/>
      <point x="714" y="703" type="curve"/>
      <point x="726" y="707" type="line"/>
      <point x="726" y="708" type="line"/>
      <point x="687" y="706"/>
      <point x="664" y="705"/>
      <point x="625" y="705" type="curve"/>
      <point x="584" y="705"/>
      <point x="558" y="706"/>
      <point x="498" y="708" type="curve"/>
      <point x="498" y="707" type="line"/>
      <point x="505" y="706" type="line"/>
      <point x="592" y="694"/>
      <point x="580" y="619"/>
      <point x="483" y="499" type="curve"/>
      <point x="382" y="376" type="line"/>
    </contour>
  </outline>
</glyph>
<glyph name="Y" format="2">
  <advance width="681"/>
  <unicode hex="0059"/>
  <anchor x="358" y="0" name="bottom"/>
  <anchor x="359" y="255" name="center"/>
  <anchor x="354" y="708" name="top"/>
  <anchor x="354" y="688" name="top_low_1"/>
  <anchor x="354" y="668" name="top_low_2"/>
  <anchor x="354" y="648" name="top_low_3"/>
  <outline>
    <contour>
      <point x="306" y="199" type="line"/>
      <point x="363" y="199" type="line"/>
      <point x="499" y="468" type="line"/>
      <point x="586" y="641"/>
      <point x="622" y="684"/>
      <point x="679" y="703" type="curve"/>
      <point x="691" y="707" type="line"/>
      <point x="691" y="708" type="line"/>
      <point x="652" y="706"/>
      <point x="629" y="705"/>
      <point x="590" y="705" type="curve"/>
      <point x="549" y="705"/>
      <point x="523" y="706"/>
      <point x="463" y="708" type="curve"/>
      <point x="463" y="707" type="line"/>
      <point x="470" y="706" type="line"/>
      <point x="557" y="694"/>
      <point x="566" y="605"/>
      <point x="497" y="468" type="curve"/>
      <point x="438" y="351" type="line"/>
      <point x="447" y="360" type="line"/>
      <point x="312" y="621" type="line"/>
      <point x="279" y="684"/>
      <point x="290" y="701"/>
      <point x="333" y="705" type="curve"/>
      <point x="353" y="707" type="line"/>
      <point x="353" y="708" type="line"/>
      <point x="318" y="707"/>
      <point x="254" y="705"/>
      <point x="166" y="705" type="curve"/>
      <point x="157" y="705" type="line"/>
      <point x="137" y="706" type="line"/>
      <point x="69" y="705"/>
      <point x="17" y="707"/>
      <point x="-10" y="708" type="curve"/>
      <point x="-10" y="707" type="line"/>
      <point x="4" y="705" type="line"/>
      <point x="38" y="700"/>
      <point x="54" y="687"/>
      <point x="72" y="652" type="curve"/>
    </contour>
    <contour>
      <point x="343" y="3" type="curve"/>
      <point x="358" y="3" type="line"/>
      <point x="374" y="3" type="line"/>
      <point x="453" y="3"/>
      <point x="512" y="1"/>
      <point x="544" y="0" type="curve"/>
      <point x="544" y="1" type="line"/>
      <point x="521" y="3" type="line"/>
      <point x="470" y="10"/>
      <point x="460" y="25"/>
      <point x="460" y="87" type="curve"/>
      <point x="460" y="393" type="line"/>
      <point x="366" y="249" type="line"/>
      <point x="257" y="311" type="line"/>
      <point x="257" y="87" type="line"/>
      <point x="257" y="25"/>
      <point x="246" y="10"/>
      <point x="195" y="4" type="curve"/>
      <point x="173" y="1" type="line"/>
      <point x="173" y="0" type="line"/>
      <point x="204" y="1"/>
      <point x="263" y="3"/>
    </contour>
  </outline>
</glyph>
<glyph name="Z" format="2">
  <advance width="627"/>
  <unicode hex="005A"/>
  <anchor x="310" y="0" name="bottom"/>
  <anchor x="306" y="354" name="center"/>
  <anchor x="306" y="708" name="top"/>
  <anchor x="306" y="688" name="top_low_1"/>
  <anchor x="306" y="668" name="top_low_2"/>
  <anchor x="306" y="648" name="top_low_3"/>
  <outline>
    <contour>
      <point x="27" y="0" type="line"/>
      <point x="96" y="3"/>
      <point x="178" y="3"/>
      <point x="250" y="3" type="curve" smooth="yes"/>
      <point x="320" y="3" type="line"/>
      <point x="442" y="3"/>
      <point x="519" y="2"/>
      <point x="574" y="0" type="curve"/>
      <point x="573" y="87"/>
      <point x="577" y="181"/>
      <point x="585" y="280" type="curve"/>
      <point x="584" y="280" type="line"/>
      <point x="530" y="118"/>
      <point x="443" y="4"/>
      <point x="320" y="4" type="curve"/>
      <point x="248" y="4" type="line"/>
      <point x="571" y="707" type="line"/>
      <point x="571" y="708" type="line"/>
      <point x="502" y="705"/>
      <point x="419" y="705"/>
      <point x="348" y="705" type="curve" smooth="yes"/>
      <point x="313" y="705" type="line"/>
      <point x="191" y="705"/>
      <point x="114" y="706"/>
      <point x="59" y="708" type="curve"/>
      <point x="62" y="655"/>
      <point x="60" y="588"/>
      <point x="53" y="508" type="curve"/>
      <point x="54" y="508" type="line"/>
      <point x="100" y="632"/>
      <point x="193" y="704"/>
      <point x="313" y="704" type="curve"/>
      <point x="350" y="704" type="line"/>
      <point x="27" y="1" type="line"/>
    </contour>
  </outline>
</glyph>
<glyph name="bracketleft" format="2">
  <advance width="350"/>
  <unicode hex="005B"/>
  <outline>
    <contour>
      <point x="78" y="-181" type="line"/>
      <point x="299" y="-181" type="line"/>
      <point x="299" y="-180" type="line"/>
      <point x="258" y="-180" type="line"/>
      <point x="258" y="771" type="line"/>
      <point x="299" y="771" type="line"/>
      <point x="299" y="772" type="line"/>
      <point x="78" y="772" type="line"/>
    </contour>
  </outline>
</glyph>
<glyph name="asciicircum" format="2">
  <advance width="524"/>
  <unicode hex="005E"/>
  <outline>
    <contour>
      <point x="62" y="292" type="line"/>
      <point x="232" y="377" type="line"/>
      <point x="462" y="294" type="line"/>
      <point x="462" y="295" type="line"/>
      <point x="262" y="543" type="line"/>
      <point x="261" y="543" type="line"/>
      <point x="62" y="293" type="line"/>
    </contour>
  </outline>
</glyph>
<glyph name="c" format="2">
  <advance width="514"/>
  <unicode hex="0063"/>
  <anchor x="286" y="0" name="bottom"/>
  <anchor x="299" y="259" name="center"/>
  <anchor x="278" y="0" name="currency"/>
  <anchor x="394" y="519" name="hook"/>
  <anchor x="282" y="520" name="top"/>
  <outline>
    <contour>
      <point x="272" y="-14" type="curve" smooth="yes"/>
      <point x="379" y="-14"/>
      <point x="453" y="43"/>
      <point x="491" y="156" type="curve"/>
      <point x="490" y="156" type="line"/>
      <point x="462" y="81"/>
      <point x="422" y="46"/>
      <point x="363" y="46" type="curve" smooth="yes"/>
      <point x="274" y="46"/>
      <point x="228" y="126"/>
      <point x="228" y="280" type="curve" smooth="yes"/>
      <point x="228" y="430"/>
      <point x="272" y="527"/>
      <point x="341" y="527" type="curve" smooth="yes"/>
      <point x="366" y="527"/>
      <point x="381" y="515"/>
      <point x="381" y="495" type="curve" smooth="yes"/>
      <point x="381" y="451"/>
      <point x="312" y="430"/>
      <point x="312" y="373" type="curve" smooth="yes"/>
      <point x="312" y="336"/>
      <point x="341" y="312"/>
      <point x="386" y="312" type="curve" smooth="yes"/>
      <point x="441" y="312"/>
      <point x="479" y="348"/>
      <point x="479" y="401" type="curve" smooth="yes"/>
      <point x="479" y="481"/>
      <point x="405" y="533"/>
      <point x="292" y="533" type="curve" smooth="yes"/>
      <point x="134" y="533"/>
      <point x="41" y="430"/>
      <point x="41" y="256" type="curve" smooth="yes"/>
      <point x="41" y="88"/>
      <point x="128" y="-14"/>
    </contour>
  </outline>
</glyph>
<glyph name="e" format="2">
  <advance width="543"/>
  <unicode hex="0065"/>
  <anchor x="277" y="0" name="bottom"/>
  <anchor x="294" y="259" name="center"/>
  <anchor x="375" y="0" name="ogonek"/>
  <anchor x="281" y="520" name="top"/>
  <anchor x="281" y="500" name="top_low_1"/>
  <anchor x="281" y="480" name="top_low_2"/>
  <anchor x="281" y="460" name="top_low_3"/>
  <outline>
    <contour>
      <point x="277" y="-14" type="curve" smooth="yes"/>
      <point x="391" y="-14"/>
      <point x="470" y="43"/>
      <point x="511" y="156" type="curve"/>
      <point x="510" y="156" type="line"/>
      <point x="477" y="78"/>
      <point x="435" y="46"/>
      <point x="362" y="46" type="curve" smooth="yes"/>
      <point x="272" y="46"/>
      <point x="228" y="134"/>
      <point x="228" y="273" type="curve" smooth="yes"/>
      <point x="228" y="288"/>
      <point x="228" y="303"/>
      <point x="229" y="317" type="curve"/>
      <point x="229" y="318" type="line"/>
      <point x="238" y="480"/>
      <point x="264" y="532"/>
      <point x="296" y="532" type="curve" smooth="yes"/>
      <point x="347" y="532"/>
      <point x="362" y="433"/>
      <point x="361" y="318" type="curve"/>
      <point x="172" y="318" type="line"/>
      <point x="174" y="317" type="line"/>
      <point x="507" y="317" type="line"/>
      <point x="507" y="472"/>
      <point x="427" y="533"/>
      <point x="296" y="533" type="curve" smooth="yes"/>
      <point x="154" y="533"/>
      <point x="41" y="451"/>
      <point x="41" y="258" type="curve" smooth="yes"/>
      <point x="41" y="88"/>
      <point x="130" y="-14"/>
    </contour>
  </outline>
</glyph>
<glyph name="k" format="2">
  <advance width="609"/>
  <unicode hex="006B"/>
  <anchor x="339" y="0" name="bottom"/>
  <anchor x="340" y="758" name="top"/>
  <outline>
    <contour>
      <point x="18" y="0" type="line"/>
      <point x="47" y="1"/>
      <point x="112" y="4"/>
      <point x="168" y="4" type="curve" smooth="yes"/>
      <point x="224" y="4"/>
      <point x="283" y="1"/>
      <point x="310" y="0" type="curve"/>
      <point x="310" y="1" type="line"/>
      <point x="269" y="3"/>
      <point x="254" y="17"/>
      <point x="254" y="73" type="curve" smooth="yes"/>
      <point x="254" y="782" type="line"/>
      <point x="201" y="773"/>
      <point x="143" y="768"/>
      <point x="86" y="768" type="curve" smooth="yes"/>
      <point x="68" y="768"/>
      <point x="53" y="769"/>
      <point x="18" y="771" type="curve"/>
      <point x="18" y="770" type="line"/>
      <point x="59" y="766"/>
      <point x="74" y="743"/>
      <point x="74" y="682" type="curve" smooth="yes"/>
      <point x="74" y="73" type="line" smooth="yes"/>
      <point x="74" y="17"/>
      <point x="59" y="3"/>
      <point x="18" y="1" type="curve"/>
    </contour>
    <contour>
      <point x="387" y="0" type="curve"/>
      <point x="426" y="2"/>
      <point x="457" y="3"/>
      <point x="492" y="3" type="curve" smooth="yes"/>
      <point x="551" y="3"/>
      <point x="601" y="2"/>
      <point x="632" y="0" type="curve"/>
      <point x="632" y="1" type="line"/>
      <point x="590" y="11"/>
      <point x="572" y="31"/>
      <point x="558" y="88" type="curve" smooth="yes"/>
      <point x="540" y="162" type="line" smooth="yes"/>
      <point x="513" y="272"/>
      <point x="472" y="309"/>
      <point x="367" y="316" type="curve"/>
      <point x="352" y="296" type="line"/>
      <point x="428" y="387" type="line" smooth="yes"/>
      <point x="475" y="444"/>
      <point x="523" y="482"/>
      <point x="591" y="518" type="curve"/>
      <point x="591" y="519" type="line"/>
      <point x="524" y="517"/>
      <point x="502" y="516"/>
      <point x="475" y="516" type="curve" smooth="yes"/>
      <point x="430" y="516"/>
      <point x="391" y="517"/>
      <point x="321" y="519" type="curve"/>
      <point x="321" y="518" type="line"/>
      <point x="401" y="514"/>
      <point x="447" y="408"/>
      <point x="380" y="332" type="curve" smooth="yes"/>
      <point x="373" y="324" type="line" smooth="yes"/>
      <point x="349" y="296"/>
      <point x="310" y="278"/>
      <point x="275" y="278" type="curve" smooth="yes"/>
      <point x="248" y="278" type="line"/>
      <point x="248" y="277" type="line"/>
      <point x="265" y="277" type="line" smooth="yes"/>
      <point x="308" y="277"/>
      <point x="329" y="258"/>
      <point x="342" y="207" type="curve" smooth="yes"/>
      <point x="375" y="76" type="line" smooth="yes"/>
      <point x="383" y="44"/>
      <point x="386" y="21"/>
    </contour>
    <component base="_LC-baseline-normal-narrow"/>
    <component base="_LC-ascender-left-inserif" xOffset="6"/>
    <component base="_LC-k-legs" xOffset="259"/>
  </outline>
</glyph>
<glyph name="o" format="2">
  <advance width="596"/>
  <unicode hex="006F"/>
  <anchor x="-107" y="260" name="#entry"/>
  <anchor x="298" y="0" name="bottom"/>
  <anchor x="298" y="260" name="center"/>
  <anchor x="408" y="0" name="ogonek"/>
  <anchor x="298" y="520" name="top"/>
  <anchor x="298" y="500" name="top_low_1"/>
  <anchor x="298" y="480" name="top_low_2"/>
  <anchor x="298" y="460" name="top_low_3"/>
  <anchor x="298" y="440" name="top_low_4"/>
  <anchor x="555" y="520" name="topright"/>
  <outline>
    <contour>
      <point x="298" y="-14" type="curve" smooth="yes"/>
      <point x="453" y="-14"/>
      <point x="555" y="77"/>
      <point x="555" y="259" type="curve" smooth="yes"/>
      <point x="555" y="441"/>
      <point x="453" y="533"/>
      <point x="298" y="533" type="curve" smooth="yes"/>
      <point x="143" y="533"/>
      <point x="41" y="441"/>
      <point x="41" y="259" type="curve" smooth="yes"/>
      <point x="41" y="77"/>
      <point x="143" y="-14"/>
    </contour>
    <contour>
      <point x="298" y="-13" type="curve" smooth="yes"/>
      <point x="258" y="-13"/>
      <point x="228" y="67"/>
      <point x="228" y="259" type="curve" smooth="yes"/>
      <point x="228" y="451"/>
      <point x="258" y="532"/>
      <point x="298" y="532" type="curve" smooth="yes"/>
      <point x="338" y="532"/>
      <point x="368" y="451"/>
      <point x="368" y="259" type="curve" smooth="yes"/>
      <point x="368" y="67"/>
      <point x="338" y="-13"/>
    </contour>
  </outline>
</glyph>
<glyph name="s" format="2">
  <advance width="467"/>
  <unicode hex="0073"/>
  <anchor x="421" y="0" name="^exit"/>
  <anchor x="241" y="0" name="bottom"/>
  <anchor x="241" y="259" name="center"/>
  <anchor x="236" y="520" name="top"/>
  <anchor x="236" y="500" name="top_low_1"/>
  <anchor x="236" y="480" name="top_low_2"/>
  <anchor x="236" y="460" name="top_low_3"/>
  <anchor x="236" y="440" name="top_low_4"/>
  <outline>
    <contour>
      <point x="239" y="-14" type="curve" smooth="yes"/>
      <point x="362" y="-14"/>
      <point x="437" y="52"/>
      <point x="437" y="162" type="curve" smooth="yes"/>
      <point x="437" y="252"/>
      <point x="387" y="307"/>
      <point x="279" y="339" type="curve" smooth="yes"/>
      <point x="182" y="368"/>
      <point x="145" y="399"/>
      <point x="145" y="452" type="curve" smooth="yes"/>
      <point x="145" y="502"/>
      <point x="180" y="531"/>
      <point x="239" y="531" type="curve" smooth="yes"/>
      <point x="322" y="531"/>
      <point x="384" y="470"/>
      <point x="416" y="352" type="curve"/>
      <point x="417" y="352" type="line"/>
      <point x="414" y="442"/>
      <point x="415" y="481"/>
      <point x="421" y="533" type="curve"/>
      <point x="420" y="533" type="line"/>
      <point x="413" y="511"/>
      <point x="402" y="500"/>
      <point x="386" y="500" type="curve" smooth="yes"/>
      <point x="356" y="500"/>
      <point x="309" y="533"/>
      <point x="227" y="533" type="curve" smooth="yes"/>
      <point x="113" y="533"/>
      <point x="42" y="468"/>
      <point x="42" y="361" type="curve" smooth="yes"/>
      <point x="42" y="270"/>
      <point x="94" y="211"/>
      <point x="206" y="174" type="curve" smooth="yes"/>
      <point x="302" y="142"/>
      <point x="334" y="115"/>
      <point x="334" y="68" type="curve" smooth="yes"/>
      <point x="334" y="17"/>
      <point x="296" y="-13"/>
      <point x="236" y="-13" type="curve" smooth="yes"/>
      <point x="141" y="-13"/>
      <point x="73" y="59"/>
      <point x="44" y="193" type="curve"/>
      <point x="43" y="193" type="line"/>
      <point x="46" y="101"/>
      <point x="44" y="43"/>
      <point x="39" y="-14" type="curve"/>
      <point x="40" y="-14" type="line"/>
      <point x="49" y="8"/>
      <point x="63" y="19"/>
      <point x="85" y="19" type="curve" smooth="yes"/>
      <point x="121" y="19"/>
      <point x="152" y="-14"/>
    </contour>
  </outline>
</glyph>
<glyph name="u" format="2">
  <advance width="633"/>
  <unicode hex="0075"/>
  <anchor x="76" y="260" name="#entry"/>
  <anchor x="256" y="260" name="#exit"/>
  <anchor x="191" y="0" name="%entry"/>
  <anchor x="445" y="520" name="%exit"/>
  <anchor x="9" y="520" name="^entry"/>
  <anchor x="333" y="520" name="^exit"/>
  <anchor x="344" y="0" name="bottom"/>
  <anchor x="339" y="270" name="center"/>
  <anchor x="380" y="260" name="reversedExit"/>
  <anchor x="256" y="260" name="stem"/>
  <anchor x="316" y="520" name="top"/>
  <anchor x="316" y="500" name="top_low_1"/>
  <anchor x="316" y="480" name="top_low_2"/>
  <anchor x="316" y="460" name="top_low_3"/>
  <anchor x="560" y="520" name="topright"/>
  <outline>
    <contour>
      <point x="256" y="520" type="line"/>
      <point x="256" y="531" type="line"/>
      <point x="208" y="521"/>
      <point x="165" y="517"/>
      <point x="120" y="517" type="curve"/>
      <point x="90" y="517"/>
      <point x="61" y="517"/>
      <point x="20" y="520" type="curve"/>
      <point x="20" y="519" type="line"/>
      <point x="28" y="518" type="line"/>
      <point x="65" y="513"/>
      <point x="76" y="496"/>
      <point x="76" y="447" type="curve"/>
      <point x="76" y="260" type="line"/>
      <point x="256" y="260" type="line"/>
    </contour>
    <contour>
      <point x="256" y="260" type="line"/>
      <point x="76" y="260" type="line"/>
      <point x="76" y="140" type="line" smooth="yes"/>
      <point x="76" y="39"/>
      <point x="126" y="-13"/>
      <point x="225" y="-13" type="curve" smooth="yes"/>
      <point x="320" y="-13"/>
      <point x="385" y="30"/>
      <point x="420" y="133" type="curve"/>
      <point x="419" y="134" type="line"/>
      <point x="390" y="53"/>
      <point x="351" y="18"/>
      <point x="308" y="18" type="curve" smooth="yes"/>
      <point x="272" y="18"/>
      <point x="256" y="41"/>
      <point x="256" y="91" type="curve" smooth="yes"/>
    </contour>
    <contour>
      <point x="380" y="0" type="line"/>
      <point x="380" y="-11" type="line"/>
      <point x="428" y="-1"/>
      <point x="471" y="3"/>
      <point x="516" y="3" type="curve"/>
      <point x="546" y="3"/>
      <point x="575" y="3"/>
      <point x="616" y="0" type="curve"/>
      <point x="616" y="1" type="line"/>
      <point x="608" y="2" type="line"/>
      <point x="571" y="7"/>
      <point x="560" y="24"/>
      <point x="560" y="73" type="curve"/>
      <point x="560" y="260" type="line"/>
      <point x="380" y="260" type="line"/>
    </contour>
    <contour>
      <point x="560" y="520" type="line"/>
      <point x="560" y="531" type="line"/>
      <point x="512" y="521"/>
      <point x="469" y="517"/>
      <point x="424" y="517" type="curve"/>
      <point x="394" y="517"/>
      <point x="365" y="517"/>
      <point x="324" y="520" type="curve"/>
      <point x="324" y="519" type="line"/>
      <point x="332" y="518" type="line"/>
      <point x="369" y="513"/>
      <point x="380" y="496"/>
      <point x="380" y="447" type="curve"/>
      <point x="380" y="260" type="line"/>
      <point x="560" y="260" type="line"/>
    </contour>
  </outline>
</glyph>
<glyph name="v" format="2">
  <advance width="570"/>
  <unicode hex="0076"/>
  <anchor x="272" y="0" name="bottom"/>
  <anchor x="272" y="520" name="top"/>
  <outline>
    <contour>
      <point x="277" y="-15" type="line"/>
      <point x="278" y="-15" type="line"/>
      <point x="396" y="271" type="line"/>
      <point x="471" y="451"/>
      <point x="501" y="496"/>
      <point x="558" y="515" type="curve"/>
      <point x="570" y="519" type="line"/>
      <point x="570" y="520" type="line"/>
      <point x="531" y="518"/>
      <point x="508" y="517"/>
      <point x="469" y="517" type="curve"/>
      <point x="428" y="517"/>
      <point x="402" y="518"/>
      <point x="342" y="520" type="curve"/>
      <point x="342" y="519" type="line"/>
      <point x="349" y="518" type="line"/>
      <point x="436" y="506"/>
      <point x="453" y="414"/>
      <point x="394" y="271" type="curve"/>
      <point x="362" y="193" type="line"/>
      <point x="368" y="204" type="line"/>
      <point x="258" y="444" type="line"/>
      <point x="247" y="468"/>
      <point x="240" y="493"/>
      <point x="238" y="520" type="curve"/>
      <point x="208" y="518"/>
      <point x="182" y="517"/>
      <point x="147" y="517" type="curve"/>
      <point x="84" y="517"/>
      <point x="36" y="517"/>
      <point x="0" y="520" type="curve"/>
      <point x="0" y="519" type="line"/>
      <point x="23" y="517"/>
      <point x="42" y="499"/>
      <point x="67" y="444" type="curve"/>
    </contour>
  </outline>
</glyph>
<glyph name="w" format="2">
  <advance width="777"/>
  <unicode hex="0077"/>
  <anchor x="412" y="0" name="bottom"/>
  <anchor x="424" y="520" name="top"/>
  <outline>
    <contour>
      <point x="275" y="-15" type="line"/>
      <point x="276" y="-15" type="line"/>
      <point x="477" y="522" type="line"/>
      <point x="476" y="523" type="line"/>
      <point x="358" y="208" type="line"/>
      <point x="362" y="217" type="line"/>
      <point x="258" y="444" type="line"/>
      <point x="247" y="468"/>
      <point x="240" y="493"/>
      <point x="238" y="520" type="curve"/>
      <point x="208" y="518"/>
      <point x="182" y="517"/>
      <point x="147" y="517" type="curve"/>
      <point x="84" y="517"/>
      <point x="36" y="517"/>
      <point x="0" y="520" type="curve"/>
      <point x="0" y="519" type="line"/>
      <point x="23" y="517"/>
      <point x="42" y="499"/>
      <point x="66" y="444" type="curve"/>
    </contour>
    <contour>
      <point x="523" y="-15" type="line"/>
      <point x="524" y="-15" type="line"/>
      <point x="686" y="378" type="line"/>
      <point x="718" y="454"/>
      <point x="742" y="495"/>
      <point x="777" y="519" type="curve"/>
      <point x="777" y="520" type="line"/>
      <point x="769" y="518"/>
      <point x="751" y="517"/>
      <point x="738" y="517" type="curve"/>
      <point x="725" y="517"/>
      <point x="715" y="518"/>
      <point x="701" y="520" type="curve"/>
      <point x="710" y="472"/>
      <point x="701" y="416"/>
      <point x="680" y="368" type="curve"/>
      <point x="610" y="198" type="line"/>
      <point x="616" y="209" type="line"/>
      <point x="477" y="523" type="line"/>
      <point x="476" y="523" type="line"/>
      <point x="389" y="290" type="line"/>
    </contour>
  </outline>
</glyph>
<glyph name="x" format="2">
  <advance width="547"/>
  <unicode hex="0078"/>
  <anchor x="284" y="0" name="bottom"/>
  <anchor x="556" y="0" name="bottomright"/>
  <anchor x="290" y="520" name="top"/>
  <outline>
    <contour>
      <point x="317" y="0" type="curve"/>
      <point x="355" y="3"/>
      <point x="387" y="4"/>
      <point x="422" y="4" type="curve" smooth="yes"/>
      <point x="485" y="4"/>
      <point x="529" y="3"/>
      <point x="562" y="0" type="curve"/>
      <point x="562" y="1" type="line"/>
      <point x="540" y="3"/>
      <point x="522" y="21"/>
      <point x="500" y="57" type="curve" smooth="yes"/>
      <point x="265" y="443" type="line" smooth="yes"/>
      <point x="249" y="469"/>
      <point x="240" y="492"/>
      <point x="238" y="519" type="curve"/>
      <point x="200" y="516"/>
      <point x="168" y="515"/>
      <point x="133" y="515" type="curve" smooth="yes"/>
      <point x="70" y="515"/>
      <point x="26" y="516"/>
      <point x="-7" y="519" type="curve"/>
      <point x="-7" y="518" type="line"/>
      <point x="15" y="516"/>
      <point x="33" y="498"/>
      <point x="55" y="462" type="curve" smooth="yes"/>
      <point x="290" y="76" type="line" smooth="yes"/>
      <point x="306" y="50"/>
      <point x="315" y="27"/>
    </contour>
    <contour>
      <point x="-9" y="0" type="line"/>
      <point x="34" y="2"/>
      <point x="53" y="3"/>
      <point x="76" y="3" type="curve" smooth="yes"/>
      <point x="140" y="3"/>
      <point x="213" y="2"/>
      <point x="239" y="0" type="curve"/>
      <point x="239" y="1" type="line"/>
      <point x="156" y="10"/>
      <point x="111" y="92"/>
      <point x="189" y="195" type="curve" smooth="yes"/>
      <point x="213" y="227" type="line"/>
      <point x="212" y="228" type="line"/>
      <point x="151" y="147" type="line" smooth="yes"/>
      <point x="116" y="100"/>
      <point x="52" y="36"/>
      <point x="-9" y="1" type="curve"/>
    </contour>
    <contour>
      <point x="319" y="292" type="line"/>
      <point x="382" y="376" type="line" smooth="yes"/>
      <point x="418" y="424"/>
      <point x="479" y="489"/>
      <point x="531" y="518" type="curve"/>
      <point x="531" y="519" type="line"/>
      <point x="496" y="517"/>
      <point x="477" y="516"/>
      <point x="454" y="516" type="curve" smooth="yes"/>
      <point x="407" y="516"/>
      <point x="353" y="517"/>
      <point x="321" y="519" type="curve"/>
      <point x="321" y="518" type="line"/>
      <point x="399" y="509"/>
      <point x="419" y="428"/>
      <point x="360" y="349" type="curve" smooth="yes"/>
      <point x="318" y="293" type="line"/>
    </contour>
  </outline>
</glyph>
<glyph name="y" format="2">
  <advance width="577"/>
  <unicode hex="0079"/>
  <anchor x="-99" y="260" name="#entry"/>
  <anchor x="432" y="0" name="bottom"/>
  <anchor x="283" y="259" name="center"/>
  <anchor x="278" y="520" name="top"/>
  <outline>
    <contour>
      <point x="300" y="-87" type="line"/>
      <point x="301" y="-87" type="line"/>
      <point x="420" y="265" type="line"/>
      <point x="482" y="449"/>
      <point x="508" y="496"/>
      <point x="565" y="515" type="curve"/>
      <point x="577" y="519" type="line"/>
      <point x="577" y="520" type="line"/>
      <point x="538" y="518"/>
      <point x="515" y="517"/>
      <point x="476" y="517" type="curve"/>
      <point x="435" y="517"/>
      <point x="409" y="518"/>
      <point x="349" y="520" type="curve"/>
      <point x="349" y="519" type="line"/>
      <point x="356" y="518" type="line"/>
      <point x="443" y="506"/>
      <point x="467" y="411"/>
      <point x="418" y="265" type="curve"/>
      <point x="379" y="150" type="line"/>
      <point x="383" y="158" type="line"/>
      <point x="257" y="443" type="line"/>
      <point x="246" y="468"/>
      <point x="240" y="493"/>
      <point x="238" y="520" type="curve"/>
      <point x="208" y="518"/>
      <point x="182" y="517"/>
      <point x="147" y="517" type="curve"/>
      <point x="84" y="517"/>
      <point x="36" y="517"/>
      <point x="0" y="520" type="curve"/>
      <point x="0" y="519" type="line"/>
      <point x="23" y="517"/>
      <point x="42" y="499"/>
      <point x="66" y="444" type="curve"/>
    </contour>
    <contour>
      <point x="151" y="-239" type="curve" smooth="yes"/>
      <point x="221" y="-239"/>
      <point x="261" y="-208"/>
      <point x="283" y="-142" type="curve" smooth="yes"/>
      <point x="305" y="-75" type="line"/>
      <point x="304" y="-74" type="line"/>
      <point x="282" y="-141" type="line" smooth="yes"/>
      <point x="261" y="-205"/>
      <point x="218" y="-234"/>
      <point x="171" y="-234" type="curve" smooth="yes"/>
      <point x="157" y="-234"/>
      <point x="152" y="-230"/>
      <point x="152" y="-219" type="curve" smooth="yes"/>
      <point x="152" y="-190"/>
      <point x="181" y="-156"/>
      <point x="181" y="-120" type="curve" smooth="yes"/>
      <point x="181" y="-89"/>
      <point x="157" y="-70"/>
      <point x="117" y="-70" type="curve" smooth="yes"/>
      <point x="65" y="-70"/>
      <point x="31" y="-102"/>
      <point x="31" y="-151" type="curve" smooth="yes"/>
      <point x="31" y="-206"/>
      <point x="76" y="-239"/>
    </contour>
  </outline>
</glyph>
<glyph name="z" format="2">
  <advance width="472"/>
  <unicode hex="007A"/>
  <anchor x="240" y="0" name="bottom"/>
  <anchor x="237" y="269" name="center"/>
  <anchor x="248" y="520" name="top"/>
  <outline>
    <contour>
      <point x="27" y="0" type="line"/>
      <point x="79" y="2"/>
      <point x="137" y="3"/>
      <point x="198" y="3" type="curve" smooth="yes"/>
      <point x="219" y="3" type="line"/>
      <point x="323" y="3" type="line"/>
      <point x="359" y="3"/>
      <point x="398" y="3"/>
      <point x="434" y="1" type="curve"/>
      <point x="431" y="56"/>
      <point x="434" y="117"/>
      <point x="440" y="176" type="curve"/>
      <point x="439" y="176" type="line"/>
      <point x="409" y="89"/>
      <point x="361" y="4"/>
      <point x="219" y="4" type="curve"/>
      <point x="214" y="4" type="line"/>
      <point x="446" y="519" type="line"/>
      <point x="446" y="520" type="line"/>
      <point x="392" y="518"/>
      <point x="332" y="517"/>
      <point x="275" y="517" type="curve" smooth="yes"/>
      <point x="254" y="517" type="line"/>
      <point x="150" y="517" type="line"/>
      <point x="114" y="517"/>
      <point x="75" y="517"/>
      <point x="39" y="519" type="curve"/>
      <point x="42" y="467"/>
      <point x="39" y="410"/>
      <point x="33" y="354" type="curve"/>
      <point x="34" y="354" type="line"/>
      <point x="64" y="436"/>
      <point x="112" y="516"/>
      <point x="254" y="516" type="curve"/>
      <point x="259" y="516" type="line"/>
      <point x="27" y="1" type="line"/>
    </contour>
  </outline>
</glyph>
<glyph name="braceleft" format="2">
  <advance width="353"/>
  <unicode hex="007B"/>
  <outline>
    <contour>
      <point x="342" y="-191" type="curve"/>
      <point x="342" y="-190" type="line"/>
      <point x="279" y="-186"/>
      <point x="277" y="-180"/>
      <point x="273" y="17" type="curve" smooth="yes"/>
      <point x="269" y="212"/>
      <point x="204" y="285"/>
      <point x="35" y="299" type="curve"/>
      <point x="204" y="331"/>
      <point x="268" y="401"/>
      <point x="272" y="551" type="curve" smooth="yes"/>
      <point x="277" y="771"/>
      <point x="278" y="774"/>
      <point x="342" y="781" type="curve"/>
      <point x="342" y="782" type="line"/>
      <point x="153" y="782"/>
      <point x="99" y="732"/>
      <point x="92" y="551" type="curve" smooth="yes"/>
      <point x="83" y="307"/>
      <point x="71" y="300"/>
      <point x="16" y="300" type="curve" smooth="yes"/>
      <point x="11" y="300" type="line"/>
      <point x="11" y="298" type="line"/>
      <point x="16" y="298" type="line" smooth="yes"/>
      <point x="71" y="298"/>
      <point x="82" y="291"/>
      <point x="92" y="47" type="curve" smooth="yes"/>
      <point x="100" y="-143"/>
      <point x="150" y="-191"/>
    </contour>
  </outline>
</glyph>
<glyph name="asciitilde" format="2">
  <advance width="684"/>
  <unicode hex="007E"/>
  <anchor x="342" y="262" name="_center"/>
  <outline>
    <contour>
      <point x="467" y="174" type="curve" smooth="yes"/>
      <point x="559" y="174"/>
      <point x="624" y="247"/>
      <point x="635" y="362" type="curve"/>
      <point x="634" y="362" type="line"/>
      <point x="612" y="311"/>
      <point x="571" y="287"/>
      <point x="511" y="287" type="curve" smooth="yes"/>
      <point x="404" y="287"/>
      <point x="319" y="344"/>
      <point x="217" y="344" type="curve" smooth="yes"/>
      <point x="125" y="344"/>
      <point x="60" y="271"/>
      <point x="49" y="156" type="curve"/>
      <point x="50" y="156" type="line"/>
      <point x="72" y="207"/>
      <point x="113" y="231"/>
      <point x="173" y="231" type="curve" smooth="yes"/>
      <point x="280" y="231"/>
      <point x="365" y="174"/>
    </contour>
  </outline>
</glyph>
<glyph name="currency" format="2">
  <advance width="669"/>
  <unicode hex="00A4"/>
  <outline>
    <contour>
      <point x="113" y="36" type="line"/>
      <point x="169" y="92" type="line"/>
      <point x="212" y="50"/>
      <point x="270" y="24"/>
      <point x="335" y="24" type="curve" smooth="yes"/>
      <point x="400" y="24"/>
      <point x="459" y="51"/>
      <point x="502" y="93" type="curve"/>
      <point x="558" y="37" type="line"/>
      <point x="559" y="38" type="line"/>
      <point x="503" y="94" type="line"/>
      <point x="545" y="137"/>
      <point x="571" y="196"/>
      <point x="571" y="260" type="curve" smooth="yes"/>
      <point x="571" y="324"/>
      <point x="545" y="383"/>
      <point x="503" y="426" type="curve"/>
      <point x="560" y="483" type="line"/>
      <point x="559" y="484" type="line"/>
      <point x="502" y="427" type="line"/>
      <point x="459" y="470"/>
      <point x="400" y="496"/>
      <point x="335" y="496" type="curve" smooth="yes"/>
      <point x="270" y="496"/>
      <point x="212" y="470"/>
      <point x="169" y="428" type="curve"/>
      <point x="113" y="484" type="line"/>
      <point x="112" y="483" type="line"/>
      <point x="168" y="427" type="line"/>
      <point x="125" y="384"/>
      <point x="98" y="325"/>
      <point x="98" y="260" type="curve" smooth="yes"/>
      <point x="98" y="195"/>
      <point x="125" y="136"/>
      <point x="168" y="93" type="curve"/>
      <point x="112" y="37" type="line"/>
    </contour>
    <contour>
      <point x="335" y="156" type="curve" smooth="yes"/>
      <point x="279" y="156"/>
      <point x="234" y="204"/>
      <point x="234" y="260" type="curve" smooth="yes"/>
      <point x="234" y="317"/>
      <point x="279" y="365"/>
      <point x="335" y="365" type="curve" smooth="yes"/>
      <point x="392" y="365"/>
      <point x="438" y="317"/>
      <point x="438" y="260" type="curve" smooth="yes"/>
      <point x="438" y="204"/>
      <point x="392" y="156"/>
    </contour>
  </outline>
</glyph>
<glyph name="section" format="2">
  <advance width="627"/>
  <unicode hex="00A7"/>
  <outline>
    <contour>
      <point x="470" y="67" type="line"/>
      <point x="559" y="115"/>
      <point x="597" y="163"/>
      <point x="597" y="230" type="curve" smooth="yes"/>
      <point x="597" y="304"/>
      <point x="563" y="343"/>
      <point x="410" y="447" type="curve" smooth="yes"/>
      <point x="263" y="547"/>
      <point x="239" y="576"/>
      <point x="239" y="628" type="curve" smooth="yes"/>
      <point x="239" y="682"/>
      <point x="281" y="719"/>
      <point x="366" y="719" type="curve" smooth="yes"/>
      <point x="419" y="719"/>
      <point x="443" y="707"/>
      <point x="443" y="681" type="curve" smooth="yes"/>
      <point x="443" y="642"/>
      <point x="395" y="620"/>
      <point x="395" y="569" type="curve" smooth="yes"/>
      <point x="395" y="533"/>
      <point x="420" y="511"/>
      <point x="461" y="511" type="curve" smooth="yes"/>
      <point x="511" y="511"/>
      <point x="542" y="543"/>
      <point x="542" y="594" type="curve" smooth="yes"/>
      <point x="542" y="674"/>
      <point x="467" y="722"/>
      <point x="343" y="722" type="curve" smooth="yes"/>
      <point x="192" y="722"/>
      <point x="89" y="651"/>
      <point x="89" y="546" type="curve" smooth="yes"/>
      <point x="89" y="471"/>
      <point x="127" y="423"/>
      <point x="279" y="320" type="curve" smooth="yes"/>
      <point x="478" y="185"/>
      <point x="504" y="163"/>
      <point x="504" y="123" type="curve" smooth="yes"/>
      <point x="504" y="96"/>
      <point x="490" y="83"/>
      <point x="469" y="67" type="curve"/>
    </contour>
    <contour>
      <point x="284" y="-239" type="curve" smooth="yes"/>
      <point x="435" y="-239"/>
      <point x="538" y="-168"/>
      <point x="538" y="-63" type="curve" smooth="yes"/>
      <point x="538" y="12"/>
      <point x="500" y="60"/>
      <point x="348" y="163" type="curve" smooth="yes"/>
      <point x="149" y="298"/>
      <point x="123" y="320"/>
      <point x="123" y="360" type="curve" smooth="yes"/>
      <point x="123" y="387"/>
      <point x="137" y="401"/>
      <point x="159" y="416" type="curve"/>
      <point x="158" y="416" type="line"/>
      <point x="68" y="369"/>
      <point x="30" y="320"/>
      <point x="30" y="253" type="curve" smooth="yes"/>
      <point x="30" y="179"/>
      <point x="64" y="140"/>
      <point x="217" y="36" type="curve" smooth="yes"/>
      <point x="364" y="-64"/>
      <point x="388" y="-93"/>
      <point x="388" y="-145" type="curve" smooth="yes"/>
      <point x="388" y="-199"/>
      <point x="346" y="-236"/>
      <point x="261" y="-236" type="curve" smooth="yes"/>
      <point x="208" y="-236"/>
      <point x="184" y="-224"/>
      <point x="184" y="-198" type="curve" smooth="yes"/>
      <point x="184" y="-159"/>
      <point x="232" y="-137"/>
      <point x="232" y="-86" type="curve" smooth="yes"/>
      <point x="232" y="-50"/>
      <point x="207" y="-28"/>
      <point x="166" y="-28" type="curve" smooth="yes"/>
      <point x="116" y="-28"/>
      <point x="85" y="-60"/>
      <point x="85" y="-111" type="curve" smooth="yes"/>
      <point x="85" y="-191"/>
      <point x="160" y="-239"/>
    </contour>
  </outline>
</glyph>
<glyph name="copyright" format="2">
  <advance width="872"/>
  <unicode hex="00A9"/>
  <outline>
    <contour>
      <point x="436" y="-14" type="curve" smooth="yes"/>
      <point x="656" y="-14"/>
      <point x="834" y="164"/>
      <point x="834" y="384" type="curve" smooth="yes"/>
      <point x="834" y="604"/>
      <point x="656" y="782"/>
      <point x="436" y="782" type="curve" smooth="yes"/>
      <point x="216" y="782"/>
      <point x="38" y="604"/>
      <point x="38" y="384" type="curve" smooth="yes"/>
      <point x="38" y="164"/>
      <point x="216" y="-14"/>
    </contour>
    <contour>
      <point x="436" y="111" type="curve" smooth="yes"/>
      <point x="543" y="111"/>
      <point x="617" y="168"/>
      <point x="655" y="281" type="curve"/>
      <point x="654" y="281" type="line"/>
      <point x="626" y="206"/>
      <point x="586" y="171"/>
      <point x="527" y="171" type="curve" smooth="yes"/>
      <point x="438" y="171"/>
      <point x="392" y="251"/>
      <point x="392" y="405" type="curve" smooth="yes"/>
      <point x="392" y="555"/>
      <point x="436" y="652"/>
      <point x="505" y="652" type="curve" smooth="yes"/>
      <point x="530" y="652"/>
      <point x="545" y="640"/>
      <point x="545" y="620" type="curve" smooth="yes"/>
      <point x="545" y="576"/>
      <point x="476" y="555"/>
      <point x="476" y="498" type="curve" smooth="yes"/>
      <point x="476" y="461"/>
      <point x="505" y="437"/>
      <point x="550" y="437" type="curve" smooth="yes"/>
      <point x="605" y="437"/>
      <point x="643" y="473"/>
      <point x="643" y="526" type="curve" smooth="yes"/>
      <point x="643" y="606"/>
      <point x="569" y="658"/>
      <point x="456" y="658" type="curve" smooth="yes"/>
      <point x="298" y="658"/>
      <point x="205" y="555"/>
      <point x="205" y="381" type="curve" smooth="yes"/>
      <point x="205" y="213"/>
      <point x="292" y="111"/>
    </contour>
    <contour>
      <point x="436" y="-13" type="curve" smooth="yes"/>
      <point x="216" y="-13"/>
      <point x="39" y="165"/>
      <point x="39" y="384" type="curve" smooth="yes"/>
      <point x="39" y="603"/>
      <point x="216" y="781"/>
      <point x="436" y="781" type="curve" smooth="yes"/>
      <point x="656" y="781"/>
      <point x="833" y="603"/>
      <point x="833" y="384" type="curve" smooth="yes"/>
      <point x="833" y="165"/>
      <point x="656" y="-13"/>
    </contour>
  </outline>
</glyph>
<glyph name="ordfeminine" format="2">
  <advance width="491"/>
  <unicode hex="00AA"/>
  <outline>
    <contour>
      <point x="151" y="360" type="curve" smooth="yes"/>
      <point x="208" y="360"/>
      <point x="253" y="380"/>
      <point x="282" y="419" type="curve"/>
      <point x="283" y="380"/>
      <point x="312" y="360"/>
      <point x="368" y="360" type="curve" smooth="yes"/>
      <point x="412" y="360"/>
      <point x="445" y="372"/>
      <point x="469" y="397" type="curve"/>
      <point x="468" y="398" type="line"/>
      <point x="457" y="388"/>
      <point x="448" y="384"/>
      <point x="437" y="384" type="curve" smooth="yes"/>
      <point x="427" y="384"/>
      <point x="423" y="392"/>
      <point x="423" y="413" type="curve" smooth="yes"/>
      <point x="423" y="598" type="line" smooth="yes"/>
      <point x="423" y="688"/>
      <point x="374" y="723"/>
      <point x="248" y="723" type="curve" smooth="yes"/>
      <point x="133" y="723"/>
      <point x="60" y="687"/>
      <point x="60" y="631" type="curve" smooth="yes"/>
      <point x="60" y="599"/>
      <point x="84" y="579"/>
      <point x="122" y="579" type="curve" smooth="yes"/>
      <point x="156" y="579"/>
      <point x="179" y="595"/>
      <point x="179" y="617" type="curve" smooth="yes"/>
      <point x="179" y="654"/>
      <point x="141" y="665"/>
      <point x="141" y="691" type="curve" smooth="yes"/>
      <point x="141" y="707"/>
      <point x="165" y="718"/>
      <point x="201" y="718" type="curve" smooth="yes"/>
      <point x="255" y="718"/>
      <point x="282" y="690"/>
      <point x="282" y="633" type="curve" smooth="yes"/>
      <point x="282" y="598" type="line" smooth="yes"/>
      <point x="282" y="532"/>
      <point x="38" y="563"/>
      <point x="38" y="443" type="curve" smooth="yes"/>
      <point x="38" y="392"/>
      <point x="81" y="360"/>
    </contour>
    <contour>
      <point x="237" y="409" type="curve" smooth="yes"/>
      <point x="202" y="409"/>
      <point x="181" y="428"/>
      <point x="181" y="461" type="curve" smooth="yes"/>
      <point x="181" y="543"/>
      <point x="275" y="547"/>
      <point x="282" y="592" type="curve"/>
      <point x="282" y="420" type="line"/>
      <point x="270" y="413"/>
      <point x="254" y="409"/>
    </contour>
  </outline>
</glyph>
<glyph name="registered" format="2">
  <advance width="678"/>
  <unicode hex="00AE"/>
  <outline>
    <contour>
      <point x="339" y="224" type="curve" smooth="yes"/>
      <point x="493" y="224"/>
      <point x="618" y="349"/>
      <point x="618" y="503" type="curve" smooth="yes"/>
      <point x="618" y="657"/>
      <point x="493" y="782"/>
      <point x="339" y="782" type="curve" smooth="yes"/>
      <point x="185" y="782"/>
      <point x="60" y="657"/>
      <point x="60" y="503" type="curve" smooth="yes"/>
      <point x="60" y="349"/>
      <point x="185" y="224"/>
    </contour>
    <contour>
      <point x="339" y="225" type="curve" smooth="yes"/>
      <point x="186" y="225"/>
      <point x="61" y="350"/>
      <point x="61" y="503" type="curve" smooth="yes"/>
      <point x="61" y="657"/>
      <point x="186" y="781"/>
      <point x="339" y="781" type="curve" smooth="yes"/>
      <point x="493" y="781"/>
      <point x="617" y="657"/>
      <point x="617" y="503" type="curve" smooth="yes"/>
      <point x="617" y="350"/>
      <point x="493" y="225"/>
    </contour>
    <contour>
      <point x="175" y="352" type="line"/>
      <point x="195" y="353"/>
      <point x="236" y="353"/>
      <point x="271" y="353" type="curve" smooth="yes"/>
      <point x="306" y="353"/>
      <point x="338" y="353"/>
      <point x="362" y="352" type="curve"/>
      <point x="362" y="353" type="line"/>
      <point x="325" y="357"/>
      <point x="319" y="360"/>
      <point x="319" y="390" type="curve" smooth="yes"/>
      <point x="319" y="675" type="line"/>
      <point x="337" y="675" type="line" smooth="yes"/>
      <point x="365" y="675"/>
      <point x="380" y="645"/>
      <point x="380" y="597" type="curve" smooth="yes"/>
      <point x="380" y="545"/>
      <point x="363" y="518"/>
      <point x="333" y="518" type="curve" smooth="yes"/>
      <point x="270" y="518" type="line"/>
      <point x="270" y="517" type="line"/>
      <point x="340" y="517" type="line" smooth="yes"/>
      <point x="441" y="517"/>
      <point x="483" y="550"/>
      <point x="483" y="600" type="curve" smooth="yes"/>
      <point x="483" y="648"/>
      <point x="442" y="676"/>
      <point x="354" y="676" type="curve" smooth="yes"/>
      <point x="338" y="676"/>
      <point x="304" y="675"/>
      <point x="267" y="675" type="curve" smooth="yes"/>
      <point x="243" y="675"/>
      <point x="198" y="675"/>
      <point x="175" y="676" type="curve"/>
      <point x="175" y="675" type="line"/>
      <point x="212" y="671"/>
      <point x="218" y="668"/>
      <point x="218" y="637" type="curve" smooth="yes"/>
      <point x="218" y="390" type="line" smooth="yes"/>
      <point x="218" y="360"/>
      <point x="212" y="357"/>
      <point x="175" y="353" type="curve"/>
    </contour>
    <contour>
      <point x="454" y="347" type="curve" smooth="yes"/>
      <point x="482" y="347"/>
      <point x="501" y="353"/>
      <point x="514" y="364" type="curve"/>
      <point x="514" y="365" type="line"/>
      <point x="509" y="362"/>
      <point x="505" y="361"/>
      <point x="500" y="361" type="curve" smooth="yes"/>
      <point x="492" y="361"/>
      <point x="489" y="367"/>
      <point x="486" y="379" type="curve" smooth="yes"/>
      <point x="471" y="440" type="line" smooth="yes"/>
      <point x="456" y="500"/>
      <point x="428" y="511"/>
      <point x="340" y="518" type="curve"/>
      <point x="335" y="518" type="line"/>
      <point x="335" y="517" type="line"/>
      <point x="348" y="516"/>
      <point x="356" y="508"/>
      <point x="360" y="484" type="curve" smooth="yes"/>
      <point x="373" y="412" type="line" smooth="yes"/>
      <point x="382" y="362"/>
      <point x="410" y="347"/>
    </contour>
  </outline>
</glyph>
<glyph name="degree" format="2">
  <advance width="306"/>
  <unicode hex="00B0"/>
  <outline>
    <contour>
      <point x="153" y="539" type="curve" smooth="yes"/>
      <point x="217" y="539"/>
      <point x="274" y="584"/>
      <point x="274" y="660" type="curve" smooth="yes"/>
      <point x="274" y="736"/>
      <point x="217" y="781"/>
      <point x="153" y="781" type="curve" smooth="yes"/>
      <point x="89" y="781"/>
      <point x="32" y="736"/>
      <point x="32" y="660" type="curve" smooth="yes"/>
      <point x="32" y="584"/>
      <point x="89" y="539"/>
    </contour>
    <contour>
      <point x="153" y="540" type="curve" smooth="yes"/>
      <point x="89" y="540"/>
      <point x="33" y="585"/>
      <point x="33" y="660" type="curve" smooth="yes"/>
      <point x="33" y="735"/>
      <point x="89" y="780"/>
      <point x="153" y="780" type="curve" smooth="yes"/>
      <point x="217" y="780"/>
      <point x="273" y="735"/>
      <point x="273" y="660" type="curve" smooth="yes"/>
      <point x="273" y="585"/>
      <point x="217" y="540"/>
    </contour>
  </outline>
</glyph>
<glyph name="paragraph" format="2">
  <advance width="790"/>
  <unicode hex="00B6"/>
  <outline>
    <contour>
      <point x="385" y="-231" type="line"/>
      <point x="421" y="-229"/>
      <point x="484" y="-228"/>
      <point x="557" y="-228" type="curve" smooth="yes"/>
      <point x="630" y="-228"/>
      <point x="713" y="-229"/>
      <point x="760" y="-231" type="curve"/>
      <point x="760" y="-230" type="line"/>
      <point x="699" y="-225"/>
      <point x="689" y="-217"/>
      <point x="689" y="-144" type="curve" smooth="yes"/>
      <point x="689" y="639" type="line" smooth="yes"/>
      <point x="689" y="683"/>
      <point x="699" y="702"/>
      <point x="756" y="707" type="curve"/>
      <point x="756" y="708" type="line"/>
      <point x="661" y="702"/>
      <point x="539" y="708"/>
      <point x="467" y="708" type="curve" smooth="yes"/>
      <point x="171" y="708"/>
      <point x="37" y="589"/>
      <point x="37" y="412" type="curve" smooth="yes"/>
      <point x="37" y="245"/>
      <point x="156" y="107"/>
      <point x="486" y="107" type="curve"/>
      <point x="486" y="-134" type="line" smooth="yes"/>
      <point x="486" y="-205"/>
      <point x="469" y="-225"/>
      <point x="385" y="-230" type="curve"/>
    </contour>
    <contour>
      <point x="487" y="160" type="line"/>
      <point x="481" y="160"/>
      <point x="479" y="224"/>
      <point x="478" y="399" type="curve"/>
      <point x="322" y="246"/>
      <point x="289" y="216"/>
      <point x="283" y="213" type="curve"/>
      <point x="284" y="221"/>
      <point x="317" y="253"/>
      <point x="473" y="407" type="curve"/>
      <point x="214" y="407"/>
      <point x="149" y="408"/>
      <point x="142" y="411" type="curve"/>
      <point x="149" y="415"/>
      <point x="214" y="416"/>
      <point x="473" y="416" type="curve"/>
      <point x="318" y="568"/>
      <point x="286" y="601"/>
      <point x="283" y="607" type="curve"/>
      <point x="291" y="606"/>
      <point x="323" y="574"/>
      <point x="478" y="424" type="curve"/>
      <point x="477" y="600"/>
      <point x="481" y="656"/>
      <point x="487" y="656" type="curve"/>
    </contour>
  </outline>
</glyph>
<glyph name="ordmasculine" format="2">
  <advance width="478"/>
  <unicode hex="00BA"/>
  <outline>
    <contour>
      <point x="239" y="360" type="curve" smooth="yes"/>
      <point x="362" y="360"/>
      <point x="446" y="422"/>
      <point x="446" y="541" type="curve" smooth="yes"/>
      <point x="446" y="660"/>
      <point x="362" y="722"/>
      <point x="239" y="722" type="curve" smooth="yes"/>
      <point x="116" y="722"/>
      <point x="32" y="660"/>
      <point x="32" y="541" type="curve" smooth="yes"/>
      <point x="32" y="422"/>
      <point x="116" y="360"/>
    </contour>
    <contour>
      <point x="239" y="361" type="curve" smooth="yes"/>
      <point x="203" y="361"/>
      <point x="179" y="413"/>
      <point x="179" y="541" type="curve" smooth="yes"/>
      <point x="179" y="669"/>
      <point x="203" y="721"/>
      <point x="239" y="721" type="curve" smooth="yes"/>
      <point x="275" y="721"/>
      <point x="299" y="669"/>
      <point x="299" y="541" type="curve" smooth="yes"/>
      <point x="299" y="413"/>
      <point x="275" y="361"/>
    </contour>
  </outline>
</glyph>
<glyph name="AE" format="2">
  <advance width="942"/>
  <unicode hex="00C6"/>
  <anchor x="433" y="0" name="bottom"/>
  <anchor x="466" y="708" name="top"/>
  <anchor x="466" y="688" name="top_low_1"/>
  <anchor x="466" y="668" name="top_low_2"/>
  <anchor x="466" y="648" name="top_low_3"/>
  <outline>
    <contour>
      <point x="-17" y="0" type="line"/>
      <point x="12" y="2"/>
      <point x="44" y="3"/>
      <point x="73" y="3" type="curve" smooth="yes"/>
      <point x="110" y="3"/>
      <point x="138" y="2"/>
      <point x="204" y="0" type="curve"/>
      <point x="204" y="1" type="line"/>
      <point x="100" y="11"/>
      <point x="78" y="127"/>
      <point x="155" y="260" type="curve" smooth="yes"/>
      <point x="450" y="772" type="line"/>
      <point x="449" y="772" type="line"/>
      <point x="96" y="160" type="line" smooth="yes"/>
      <point x="53" y="86"/>
      <point x="20" y="40"/>
      <point x="-17" y="1" type="curve"/>
    </contour>
    <contour>
      <point x="209" y="355" type="line"/>
      <point x="704" y="355" type="line"/>
      <point x="704" y="356" type="line"/>
      <point x="210" y="356" type="line"/>
    </contour>
    <contour>
      <point x="477" y="3" type="curve"/>
      <point x="493" y="3" type="line"/>
      <point x="650" y="3" type="line"/>
      <point x="758" y="3"/>
      <point x="826" y="2"/>
      <point x="874" y="0" type="curve"/>
      <point x="873" y="87"/>
      <point x="877" y="181"/>
      <point x="885" y="280" type="curve"/>
      <point x="884" y="280" type="line"/>
      <point x="834" y="118"/>
      <point x="755" y="4"/>
      <point x="650" y="4" type="curve"/>
      <point x="645" y="4" type="line" smooth="yes"/>
      <point x="602" y="4"/>
      <point x="594" y="14"/>
      <point x="594" y="67" type="curve" smooth="yes"/>
      <point x="594" y="704" type="line"/>
      <point x="595" y="704" type="line"/>
      <point x="718" y="704"/>
      <point x="797" y="628"/>
      <point x="834" y="508" type="curve"/>
      <point x="835" y="508" type="line"/>
      <point x="829" y="584"/>
      <point x="827" y="651"/>
      <point x="829" y="708" type="curve"/>
      <point x="778" y="706"/>
      <point x="707" y="705"/>
      <point x="595" y="705" type="curve"/>
      <point x="493" y="705" type="line"/>
      <point x="477" y="705" type="line"/>
      <point x="404" y="705"/>
      <point x="350" y="707"/>
      <point x="321" y="708" type="curve"/>
      <point x="321" y="707" type="line"/>
      <point x="337" y="705" type="line"/>
      <point x="382" y="700"/>
      <point x="391" y="684"/>
      <point x="391" y="621" type="curve"/>
      <point x="391" y="87" type="line"/>
      <point x="391" y="24"/>
      <point x="382" y="8"/>
      <point x="337" y="3" type="curve"/>
      <point x="321" y="1" type="line"/>
      <point x="321" y="0" type="line"/>
      <point x="350" y="1"/>
      <point x="404" y="3"/>
    </contour>
    <contour>
      <point x="765" y="194" type="curve"/>
      <point x="766" y="194" type="line"/>
      <point x="761" y="276"/>
      <point x="760" y="314"/>
      <point x="760" y="356" type="curve" smooth="yes"/>
      <point x="760" y="394"/>
      <point x="758" y="431"/>
      <point x="763" y="518" type="curve"/>
      <point x="762" y="518" type="line"/>
      <point x="747" y="422"/>
      <point x="683" y="356"/>
      <point x="606" y="356" type="curve"/>
      <point x="606" y="355" type="line"/>
      <point x="693" y="355"/>
      <point x="752" y="296"/>
    </contour>
  </outline>
</glyph>
<glyph name="germandbls" format="2">
  <advance width="698"/>
  <unicode hex="00DF"/>
  <outline>
    <contour>
      <point x="449" y="-14" type="curve" smooth="yes"/>
      <point x="587" y="-14"/>
      <point x="682" y="71"/>
      <point x="682" y="193" type="curve" smooth="yes"/>
      <point x="682" y="322"/>
      <point x="578" y="405"/>
      <point x="385" y="429" type="curve"/>
      <point x="518" y="455"/>
      <point x="591" y="520"/>
      <point x="591" y="614" type="curve" smooth="yes"/>
      <point x="591" y="719"/>
      <point x="503" y="782"/>
      <point x="355" y="782" type="curve" smooth="yes"/>
      <point x="174" y="782"/>
      <point x="77" y="688"/>
      <point x="77" y="512" type="curve" smooth="yes"/>
      <point x="77" y="73" type="line"/>
      <point x="77" y="24"/>
      <point x="66" y="7"/>
      <point x="29" y="2" type="curve"/>
      <point x="21" y="1" type="line"/>
      <point x="21" y="0" type="line"/>
      <point x="62" y="3"/>
      <point x="91" y="3"/>
      <point x="121" y="3" type="curve"/>
      <point x="166" y="3"/>
      <point x="209" y="-1"/>
      <point x="257" y="-11" type="curve"/>
      <point x="257" y="0" type="line"/>
      <point x="257" y="573" type="line" smooth="yes"/>
      <point x="257" y="725"/>
      <point x="276" y="780"/>
      <point x="328" y="780" type="curve" smooth="yes"/>
      <point x="385" y="780"/>
      <point x="421" y="713"/>
      <point x="421" y="605" type="curve" smooth="yes"/>
      <point x="421" y="540"/>
      <point x="408" y="478"/>
      <point x="384" y="430" type="curve"/>
      <point x="369" y="435"/>
      <point x="356" y="438"/>
      <point x="344" y="438" type="curve" smooth="yes"/>
      <point x="330" y="438"/>
      <point x="323" y="434"/>
      <point x="323" y="427" type="curve" smooth="yes"/>
      <point x="323" y="420"/>
      <point x="329" y="416"/>
      <point x="341" y="416" type="curve" smooth="yes"/>
      <point x="352" y="416"/>
      <point x="366" y="420"/>
      <point x="384" y="428" type="curve"/>
      <point x="451" y="391"/>
      <point x="493" y="295"/>
      <point x="493" y="178" type="curve" smooth="yes"/>
      <point x="493" y="70"/>
      <point x="457" y="-10"/>
      <point x="409" y="-10" type="curve" smooth="yes"/>
      <point x="394" y="-10"/>
      <point x="386" y="0"/>
      <point x="386" y="16" type="curve" smooth="yes"/>
      <point x="386" y="56"/>
      <point x="439" y="87"/>
      <point x="439" y="147" type="curve" smooth="yes"/>
      <point x="439" y="185"/>
      <point x="417" y="207"/>
      <point x="380" y="207" type="curve" smooth="yes"/>
      <point x="328" y="207"/>
      <point x="292" y="165"/>
      <point x="292" y="106" type="curve" smooth="yes"/>
      <point x="292" y="31"/>
      <point x="350" y="-14"/>
    </contour>
  </outline>
</glyph>
<glyph name="ae" format="2">
  <advance width="757"/>
  <unicode hex="00E6"/>
  <anchor x="382" y="0" name="bottom"/>
  <anchor x="587" y="0" name="ogonek"/>
  <anchor x="387" y="520" name="top"/>
  <outline>
    <contour>
      <point x="516" y="-14" type="curve" smooth="yes"/>
      <point x="618" y="-14"/>
      <point x="689" y="43"/>
      <point x="725" y="156" type="curve"/>
      <point x="724" y="156" type="line"/>
      <point x="696" y="78"/>
      <point x="662" y="46"/>
      <point x="601" y="46" type="curve" smooth="yes"/>
      <point x="521" y="46"/>
      <point x="482" y="134"/>
      <point x="482" y="273" type="curve" smooth="yes"/>
      <point x="482" y="288"/>
      <point x="482" y="303"/>
      <point x="483" y="317" type="curve"/>
      <point x="483" y="318" type="line"/>
      <point x="490" y="480"/>
      <point x="510" y="532"/>
      <point x="535" y="532" type="curve" smooth="yes"/>
      <point x="566" y="532"/>
      <point x="576" y="433"/>
      <point x="575" y="318" type="curve"/>
      <point x="426" y="318" type="line"/>
      <point x="428" y="317" type="line"/>
      <point x="721" y="317" type="line"/>
      <point x="721" y="472"/>
      <point x="651" y="533"/>
      <point x="535" y="533" type="curve" smooth="yes"/>
      <point x="406" y="533"/>
      <point x="302" y="451"/>
      <point x="302" y="258" type="curve" smooth="yes"/>
      <point x="302" y="88"/>
      <point x="382" y="-14"/>
    </contour>
    <contour>
      <point x="267" y="46" type="curve" smooth="yes"/>
      <point x="230" y="46"/>
      <point x="210" y="76"/>
      <point x="210" y="131" type="curve" smooth="yes"/>
      <point x="210" y="243"/>
      <point x="296" y="267"/>
      <point x="302" y="329" type="curve"/>
      <point x="302" y="258" type="line"/>
      <point x="337" y="107" type="line"/>
      <point x="318" y="67"/>
      <point x="297" y="46"/>
    </contour>
    <contour>
      <point x="169" y="-14" type="curve" smooth="yes"/>
      <point x="244" y="-14"/>
      <point x="300" y="24"/>
      <point x="338" y="108" type="curve"/>
      <point x="452" y="343" type="line"/>
      <point x="452" y="471"/>
      <point x="408" y="533"/>
      <point x="288" y="533" type="curve" smooth="yes"/>
      <point x="153" y="533"/>
      <point x="64" y="481"/>
      <point x="64" y="402" type="curve" smooth="yes"/>
      <point x="64" y="352"/>
      <point x="96" y="322"/>
      <point x="149" y="322" type="curve" smooth="yes"/>
      <point x="198" y="322"/>
      <point x="231" y="348"/>
      <point x="231" y="385" type="curve" smooth="yes"/>
      <point x="231" y="431"/>
      <point x="182" y="457"/>
      <point x="182" y="493" type="curve" smooth="yes"/>
      <point x="182" y="514"/>
      <point x="200" y="527"/>
      <point x="230" y="527" type="curve" smooth="yes"/>
      <point x="275" y="527"/>
      <point x="302" y="497"/>
      <point x="302" y="446" type="curve" smooth="yes"/>
      <point x="302" y="335" type="line" smooth="yes"/>
      <point x="302" y="244"/>
      <point x="36" y="274"/>
      <point x="36" y="107" type="curve" smooth="yes"/>
      <point x="36" y="33"/>
      <point x="88" y="-14"/>
    </contour>
  </outline>
</glyph>
<glyph name="eth" format="2">
  <advance width="584"/>
  <unicode hex="00F0"/>
  <outline>
    <contour>
      <point x="288" y="-14" type="curve" smooth="yes"/>
      <point x="463" y="-14"/>
      <point x="552" y="89"/>
      <point x="552" y="276" type="curve" smooth="yes"/>
      <point x="552" y="520"/>
      <point x="401" y="698"/>
      <point x="145" y="782" type="curve"/>
      <point x="145" y="781" type="line"/>
      <point x="323" y="703"/>
      <point x="368" y="568"/>
      <point x="368" y="270" type="curve" smooth="yes"/>
      <point x="368" y="90"/>
      <point x="344" y="-12"/>
      <point x="299" y="-12" type="curve" smooth="yes"/>
      <point x="254" y="-12"/>
      <point x="228" y="88"/>
      <point x="228" y="257" type="curve" smooth="yes"/>
      <point x="228" y="440"/>
      <point x="257" y="520"/>
      <point x="323" y="520" type="curve" smooth="yes"/>
      <point x="334" y="520"/>
      <point x="345" y="518"/>
      <point x="354" y="514" type="curve"/>
      <point x="354" y="515" type="line"/>
      <point x="330" y="527"/>
      <point x="301" y="533"/>
      <point x="265" y="533" type="curve" smooth="yes"/>
      <point x="121" y="533"/>
      <point x="41" y="434"/>
      <point x="41" y="256" type="curve" smooth="yes"/>
      <point x="41" y="70"/>
      <point x="129" y="-14"/>
    </contour>
    <contour>
      <point x="121" y="600" type="line"/>
      <point x="300" y="687" type="line"/>
      <point x="299" y="688" type="line"/>
      <point x="120" y="601" type="line"/>
    </contour>
    <contour>
      <point x="308" y="692" type="line"/>
      <point x="468" y="770" type="line"/>
      <point x="467" y="771" type="line"/>
      <point x="307" y="693" type="line"/>
    </contour>
  </outline>
</glyph>
<glyph name="thorn" format="2">
  <advance width="624"/>
  <unicode hex="00FE"/>
  <anchor x="257" y="260" name="#entry"/>
  <anchor x="257" y="260" name="#exit"/>
  <anchor x="325" y="-231" name="bottom"/>
  <anchor x="330" y="261" name="center"/>
  <anchor x="77" y="0" name="lower-left"/>
  <anchor x="280" y="520" name="top"/>
  <anchor x="77" y="520" name="top-left"/>
  <outline>
    <contour>
      <point x="167" y="-228" type="curve"/>
      <point x="167" y="-228" type="line"/>
      <point x="167" y="-228" type="line"/>
      <point x="213" y="-228"/>
      <point x="256" y="-228"/>
      <point x="343" y="-231" type="curve"/>
      <point x="343" y="-230" type="line"/>
      <point x="318" y="-228" type="line"/>
      <point x="271" y="-224"/>
      <point x="257" y="-206"/>
      <point x="257" y="-158" type="curve"/>
      <point x="257" y="260" type="line"/>
      <point x="77" y="260" type="line"/>
      <point x="77" y="-158" type="line"/>
      <point x="77" y="-207"/>
      <point x="66" y="-225"/>
      <point x="31" y="-229" type="curve"/>
      <point x="21" y="-230" type="line"/>
      <point x="21" y="-231" type="line"/>
      <point x="93" y="-228"/>
      <point x="129" y="-228"/>
    </contour>
    <contour>
      <point x="382" y="534" type="curve" smooth="yes"/>
      <point x="313" y="534"/>
      <point x="267" y="505"/>
      <point x="244" y="440" type="curve"/>
      <point x="245" y="439" type="line"/>
      <point x="265" y="492"/>
      <point x="289" y="507"/>
      <point x="314" y="507" type="curve" smooth="yes"/>
      <point x="374" y="507"/>
      <point x="396" y="421"/>
      <point x="396" y="260" type="curve" smooth="yes"/>
      <point x="396" y="81"/>
      <point x="367" y="2"/>
      <point x="301" y="2" type="curve" smooth="yes"/>
      <point x="277" y="2"/>
      <point x="255" y="12"/>
      <point x="241" y="27" type="curve"/>
      <point x="241" y="26" type="line"/>
      <point x="262" y="3"/>
      <point x="303" y="-13"/>
      <point x="359" y="-13" type="curve" smooth="yes"/>
      <point x="502" y="-13"/>
      <point x="583" y="87"/>
      <point x="583" y="264" type="curve" smooth="yes"/>
      <point x="583" y="434"/>
      <point x="509" y="534"/>
    </contour>
    <component base="_LC-ascender-left-inserif"/>
  </outline>
</glyph>
<glyph name="Aogonek" format="2">
  <advance width="757"/>
  <unicode hex="0104"/>
  <anchor x="371" y="354" name="center"/>
  <anchor x="370" y="708" name="top"/>
  <anchor x="370" y="688" name="top_low_1"/>
  <anchor x="370" y="668" name="top_low_2"/>
  <anchor x="370" y="648" name="top_low_3"/>
  <outline>
    <contour>
      <point x="168" y="248" type="curve"/>
      <point x="273" y="496" type="line"/>
      <point x="263" y="476" type="line"/>
      <point x="459" y="64" type="line"/>
      <point x="489" y="1"/>
      <point x="500" y="-19"/>
      <point x="426" y="-72" type="curve"/>
      <point x="359" y="-121"/>
      <point x="331" y="-145"/>
      <point x="331" y="-178" type="curve"/>
      <point x="331" y="-216"/>
      <point x="367" y="-240"/>
      <point x="423" y="-239" type="curve"/>
      <point x="483" y="-239"/>
      <point x="533" y="-217"/>
      <point x="575" y="-171" type="curve"/>
      <point x="574" y="-170" type="line"/>
      <point x="558" y="-184"/>
      <point x="534" y="-193"/>
      <point x="511" y="-193" type="curve"/>
      <point x="472" y="-193"/>
      <point x="447" y="-167"/>
      <point x="447" y="-132" type="curve"/>
      <point x="447" y="-39"/>
      <point x="569" y="12"/>
      <point x="762" y="0" type="curve"/>
      <point x="762" y="1" type="line"/>
      <point x="723" y="7"/>
      <point x="700" y="29"/>
      <point x="671" y="89" type="curve"/>
      <point x="369" y="723" type="line"/>
      <point x="368" y="723" type="line"/>
      <point x="166" y="248" type="line"/>
      <point x="90" y="69"/>
      <point x="59" y="24"/>
      <point x="2" y="5" type="curve"/>
      <point x="-10" y="1" type="line"/>
      <point x="-10" y="0" type="line"/>
      <point x="29" y="2"/>
      <point x="52" y="3"/>
      <point x="91" y="3" type="curve"/>
      <point x="132" y="3"/>
      <point x="158" y="2"/>
      <point x="218" y="0" type="curve"/>
      <point x="218" y="1" type="line"/>
      <point x="211" y="2" type="line"/>
      <point x="124" y="14"/>
      <point x="108" y="106"/>
    </contour>
    <contour>
      <point x="158" y="228" type="line"/>
      <point x="454" y="228" type="line"/>
      <point x="454" y="229" type="line"/>
      <point x="159" y="229" type="line"/>
    </contour>
  </outline>
</glyph>
<glyph name="idotless" format="2">
  <advance width="330"/>
  <unicode hex="0131"/>
  <anchor x="77" y="260" name="#entry"/>
  <anchor x="257" y="260" name="#exit"/>
  <anchor x="-112" y="0" name="%entry"/>
  <anchor x="77" y="0" name="%exit"/>
  <anchor x="0" y="0" name="^entry"/>
  <anchor x="324" y="0" name="^exit"/>
  <anchor x="170" y="0" name="bottom"/>
  <anchor x="167" y="259" name="center"/>
  <anchor x="267" y="0" name="ogonek"/>
  <anchor x="77" y="260" name="stem"/>
  <anchor x="167" y="520" name="top"/>
  <anchor x="167" y="500" name="top_low_1"/>
  <anchor x="167" y="480" name="top_low_2"/>
  <anchor x="167" y="460" name="top_low_3"/>
  <anchor x="257" y="519" name="topright"/>
  <outline>
    <contour>
      <point x="77" y="260" type="line"/>
      <point x="257" y="260" type="line"/>
      <point x="257" y="519" type="line"/>
      <point x="257" y="530" type="line"/>
      <point x="209" y="520"/>
      <point x="166" y="516"/>
      <point x="121" y="516" type="curve"/>
      <point x="91" y="516"/>
      <point x="62" y="516"/>
      <point x="21" y="519" type="curve"/>
      <point x="21" y="518" type="line"/>
      <point x="29" y="517" type="line"/>
      <point x="66" y="512"/>
      <point x="77" y="495"/>
      <point x="77" y="446" type="curve"/>
    </contour>
    <contour>
      <point x="167" y="3" type="curve"/>
      <point x="167" y="3" type="line"/>
      <point x="167" y="3" type="line"/>
      <point x="205" y="3"/>
      <point x="241" y="3"/>
      <point x="313" y="0" type="curve"/>
      <point x="313" y="1" type="line"/>
      <point x="303" y="2" type="line"/>
      <point x="268" y="6"/>
      <point x="257" y="24"/>
      <point x="257" y="73" type="curve"/>
      <point x="257" y="260" type="line"/>
      <point x="77" y="260" type="line"/>
      <point x="77" y="73" type="line"/>
      <point x="77" y="24"/>
      <point x="66" y="6"/>
      <point x="31" y="2" type="curve"/>
      <point x="21" y="1" type="line"/>
      <point x="21" y="0" type="line"/>
      <point x="93" y="3"/>
      <point x="129" y="3"/>
    </contour>
  </outline>
</glyph>
<glyph name="kgreenlandic" format="2">
  <advance width="612"/>
  <unicode hex="0138"/>
  <anchor x="77" y="260" name="#entry"/>
  <anchor x="257" y="260" name="#exit"/>
  <anchor x="77" y="0" name="^exit"/>
  <anchor x="77" y="260" name="stem"/>
  <anchor x="257" y="519" name="topright"/>
  <outline>
    <contour>
      <point x="77" y="260" type="line"/>
      <point x="257" y="260" type="line"/>
      <point x="257" y="519" type="line"/>
      <point x="257" y="530" type="line"/>
      <point x="209" y="520"/>
      <point x="166" y="516"/>
      <point x="121" y="516" type="curve"/>
      <point x="91" y="516"/>
      <point x="62" y="516"/>
      <point x="21" y="519" type="curve"/>
      <point x="21" y="518" type="line"/>
      <point x="29" y="517" type="line"/>
      <point x="66" y="512"/>
      <point x="77" y="495"/>
      <point x="77" y="446" type="curve"/>
    </contour>
    <component base="_LC-baseline-normal-narrow"/>
    <component base="_LC-k-legs" xOffset="221" yOffset="4"/>
  </outline>
</glyph>
<glyph name="eng" format="2">
  <advance width="641"/>
  <unicode hex="014B"/>
  <anchor x="77" y="260" name="#entry"/>
  <anchor x="257" y="260" name="#exit"/>
  <anchor x="-112" y="0" name="%entry"/>
  <anchor x="77" y="0" name="%exit"/>
  <anchor x="0" y="0" name="^entry"/>
  <anchor x="324" y="0" name="^exit"/>
  <anchor x="334" y="0" name="bottom"/>
  <anchor x="257" y="260" name="reversedExit"/>
  <anchor x="77" y="260" name="stem"/>
  <anchor x="318" y="520" name="top"/>
  <anchor x="257" y="519" name="topright"/>
  <outline>
    <contour>
      <point x="167" y="3" type="curve"/>
      <point x="167" y="3" type="line"/>
      <point x="167" y="3" type="line"/>
      <point x="205" y="3"/>
      <point x="241" y="3"/>
      <point x="313" y="0" type="curve"/>
      <point x="313" y="1" type="line"/>
      <point x="303" y="2" type="line"/>
      <point x="268" y="6"/>
      <point x="257" y="24"/>
      <point x="257" y="73" type="curve"/>
      <point x="257" y="260" type="line"/>
      <point x="77" y="260" type="line"/>
      <point x="77" y="73" type="line"/>
      <point x="77" y="24"/>
      <point x="66" y="6"/>
      <point x="31" y="2" type="curve"/>
      <point x="21" y="1" type="line"/>
      <point x="21" y="0" type="line"/>
      <point x="93" y="3"/>
      <point x="129" y="3"/>
    </contour>
    <contour>
      <point x="77" y="260" type="line"/>
      <point x="257" y="260" type="line"/>
      <point x="257" y="519" type="line"/>
      <point x="257" y="530" type="line"/>
      <point x="209" y="520"/>
      <point x="166" y="516"/>
      <point x="121" y="516" type="curve"/>
      <point x="91" y="516"/>
      <point x="62" y="516"/>
      <point x="21" y="519" type="curve"/>
      <point x="21" y="518" type="line"/>
      <point x="29" y="517" type="line"/>
      <point x="66" y="512"/>
      <point x="77" y="495"/>
      <point x="77" y="446" type="curve"/>
    </contour>
    <contour>
      <point x="388" y="260" type="line"/>
      <point x="568" y="260" type="line"/>
      <point x="568" y="378" type="line" smooth="yes"/>
      <point x="568" y="480"/>
      <point x="516" y="533"/>
      <point x="414" y="533" type="curve" smooth="yes"/>
      <point x="319" y="533"/>
      <point x="254" y="492"/>
      <point x="219" y="392" type="curve"/>
      <point x="220" y="391" type="line"/>
      <point x="250" y="469"/>
      <point x="288" y="502"/>
      <point x="331" y="502" type="curve" smooth="yes"/>
      <point x="370" y="502"/>
      <point x="388" y="478"/>
      <point x="388" y="426" type="curve" smooth="yes"/>
    </contour>
    <contour>
      <point x="249" y="-239" type="line"/>
      <point x="506" y="-239"/>
      <point x="568" y="-132"/>
      <point x="568" y="45" type="curve" smooth="yes"/>
      <point x="568" y="260" type="line"/>
      <point x="388" y="260" type="line"/>
      <point x="388" y="3" type="line" smooth="yes"/>
      <point x="388" y="-168"/>
      <point x="344" y="-234"/>
      <point x="249" y="-238" type="curve"/>
    </contour>
  </outline>
</glyph>
<glyph name="OE" format="2">
  <advance width="1071"/>
  <unicode hex="0152"/>
  <anchor x="527" y="0" name="bottom"/>
  <anchor x="521" y="708" name="top"/>
  <anchor x="521" y="688" name="top_low_1"/>
  <anchor x="521" y="668" name="top_low_2"/>
  <anchor x="521" y="648" name="top_low_3"/>
  <outline>
    <contour>
      <point x="397" y="-14" type="curve" smooth="yes"/>
      <point x="472" y="-14"/>
      <point x="472" y="3"/>
      <point x="624" y="3" type="curve" smooth="yes"/>
      <point x="671" y="3"/>
      <point x="712" y="3"/>
      <point x="739" y="3" type="curve" smooth="yes"/>
      <point x="786" y="3" type="line"/>
      <point x="890" y="3"/>
      <point x="956" y="2"/>
      <point x="1003" y="0" type="curve"/>
      <point x="1003" y="90"/>
      <point x="1007" y="184"/>
      <point x="1014" y="280" type="curve"/>
      <point x="1013" y="280" type="line"/>
      <point x="969" y="121"/>
      <point x="899" y="4"/>
      <point x="786" y="4" type="curve"/>
      <point x="774" y="4" type="line" smooth="yes"/>
      <point x="731" y="4"/>
      <point x="723" y="14"/>
      <point x="723" y="67" type="curve" smooth="yes"/>
      <point x="723" y="704" type="line"/>
      <point x="788" y="704" type="line"/>
      <point x="915" y="704"/>
      <point x="973" y="623"/>
      <point x="996" y="508" type="curve"/>
      <point x="997" y="508" type="line"/>
      <point x="993" y="579"/>
      <point x="991" y="646"/>
      <point x="992" y="708" type="curve"/>
      <point x="948" y="706"/>
      <point x="886" y="705"/>
      <point x="788" y="705" type="curve"/>
      <point x="623" y="705" type="line" smooth="yes"/>
      <point x="478" y="705"/>
      <point x="469" y="722"/>
      <point x="399" y="722" type="curve" smooth="yes"/>
      <point x="186" y="722"/>
      <point x="37" y="567"/>
      <point x="37" y="345" type="curve" smooth="yes"/>
      <point x="37" y="128"/>
      <point x="180" y="-14"/>
    </contour>
    <contour>
      <point x="415" y="-12" type="curve" smooth="yes"/>
      <point x="313" y="-12"/>
      <point x="247" y="134"/>
      <point x="247" y="360" type="curve" smooth="yes"/>
      <point x="247" y="582"/>
      <point x="310" y="720"/>
      <point x="412" y="720" type="curve" smooth="yes"/>
      <point x="484" y="720"/>
      <point x="520" y="686"/>
      <point x="520" y="618" type="curve" smooth="yes"/>
      <point x="520" y="80" type="line" smooth="yes"/>
      <point x="520" y="19"/>
      <point x="484" y="-12"/>
    </contour>
    <contour>
      <point x="693" y="355" type="line"/>
      <point x="833" y="355" type="line"/>
      <point x="833" y="356" type="line"/>
      <point x="693" y="356" type="line"/>
    </contour>
    <contour>
      <point x="894" y="194" type="curve"/>
      <point x="895" y="194" type="line"/>
      <point x="890" y="276"/>
      <point x="889" y="314"/>
      <point x="889" y="356" type="curve" smooth="yes"/>
      <point x="889" y="394"/>
      <point x="887" y="431"/>
      <point x="892" y="518" type="curve"/>
      <point x="891" y="518" type="line"/>
      <point x="876" y="422"/>
      <point x="812" y="356"/>
      <point x="735" y="356" type="curve"/>
      <point x="735" y="355" type="line"/>
      <point x="822" y="355"/>
      <point x="881" y="296"/>
    </contour>
  </outline>
</glyph>
<glyph name="oe" format="2">
  <advance width="830"/>
  <unicode hex="0153"/>
  <anchor x="429" y="0" name="bottom"/>
  <anchor x="430" y="520" name="top"/>
  <outline>
    <contour>
      <point x="282" y="-14" type="curve" smooth="yes"/>
      <point x="421" y="-14"/>
      <point x="485" y="73"/>
      <point x="485" y="259" type="curve" smooth="yes"/>
      <point x="485" y="446"/>
      <point x="420" y="533"/>
      <point x="282" y="533" type="curve" smooth="yes"/>
      <point x="131" y="533"/>
      <point x="41" y="430"/>
      <point x="41" y="259" type="curve" smooth="yes"/>
      <point x="41" y="88"/>
      <point x="131" y="-14"/>
    </contour>
    <contour>
      <point x="289" y="-13" type="curve" smooth="yes"/>
      <point x="250" y="-13"/>
      <point x="228" y="85"/>
      <point x="228" y="259" type="curve" smooth="yes"/>
      <point x="228" y="432"/>
      <point x="250" y="532"/>
      <point x="288" y="532" type="curve" smooth="yes"/>
      <point x="326" y="532"/>
      <point x="348" y="431"/>
      <point x="348" y="256" type="curve" smooth="yes"/>
      <point x="348" y="83"/>
      <point x="327" y="-13"/>
    </contour>
    <contour>
      <point x="590" y="-14" type="curve" smooth="yes"/>
      <point x="688" y="-14"/>
      <point x="764" y="48"/>
      <point x="798" y="156" type="curve"/>
      <point x="797" y="156" type="line"/>
      <point x="768" y="81"/>
      <point x="726" y="46"/>
      <point x="667" y="46" type="curve" smooth="yes"/>
      <point x="579" y="46"/>
      <point x="535" y="122"/>
      <point x="535" y="275" type="curve" smooth="yes"/>
      <point x="535" y="308"/>
      <point x="535" y="310"/>
      <point x="536" y="317" type="curve"/>
      <point x="536" y="318" type="line"/>
      <point x="543" y="461"/>
      <point x="562" y="532"/>
      <point x="593" y="532" type="curve" smooth="yes"/>
      <point x="630" y="532"/>
      <point x="649" y="458"/>
      <point x="648" y="318" type="curve"/>
      <point x="479" y="318" type="line"/>
      <point x="481" y="317" type="line"/>
      <point x="794" y="317" type="line"/>
      <point x="794" y="456"/>
      <point x="727" y="533"/>
      <point x="605" y="533" type="curve" smooth="yes"/>
      <point x="470" y="533"/>
      <point x="398" y="438"/>
      <point x="398" y="260" type="curve" smooth="yes"/>
      <point x="398" y="85"/>
      <point x="467" y="-14"/>
    </contour>
  </outline>
</glyph>
<glyph name="bstroke" format="2">
  <advance width="621"/>
  <unicode hex="0180"/>
  <anchor x="254" y="260" name="#entry"/>
  <anchor x="254" y="260" name="#exit"/>
  <anchor x="327" y="261" name="center"/>
  <anchor x="277" y="520" name="top"/>
  <anchor x="74" y="520" name="top-left"/>
  <outline>
    <contour>
      <point x="379" y="534" type="curve" smooth="yes"/>
      <point x="310" y="534"/>
      <point x="264" y="505"/>
      <point x="241" y="440" type="curve"/>
      <point x="242" y="439" type="line"/>
      <point x="262" y="492"/>
      <point x="286" y="507"/>
      <point x="311" y="507" type="curve" smooth="yes"/>
      <point x="371" y="507"/>
      <point x="393" y="421"/>
      <point x="393" y="260" type="curve" smooth="yes"/>
      <point x="393" y="81"/>
      <point x="364" y="2"/>
      <point x="298" y="2" type="curve" smooth="yes"/>
      <point x="274" y="2"/>
      <point x="252" y="12"/>
      <point x="238" y="27" type="curve"/>
      <point x="238" y="26" type="line"/>
      <point x="259" y="3"/>
      <point x="300" y="-13"/>
      <point x="356" y="-13" type="curve" smooth="yes"/>
      <point x="499" y="-13"/>
      <point x="580" y="87"/>
      <point x="580" y="264" type="curve" smooth="yes"/>
      <point x="580" y="434"/>
      <point x="506" y="534"/>
    </contour>
    <component base="_LC-baseline-left-instroke"/>
    <component base="_LC-ascender-serifless" xOffset="-3"/>
    <component base="strokeshortcomb" xOffset="-28" yOffset="368"/>
  </outline>
</glyph>
<glyph name="Bhook" format="2">
  <advance width="864"/>
  <unicode hex="0181"/>
  <anchor x="512" y="0" name="bottom"/>
  <anchor x="531" y="0" name="currency"/>
  <anchor x="512" y="708" name="top"/>
  <outline>
    <contour>
      <point x="345" y="3" type="curve"/>
      <point x="355" y="3" type="line"/>
      <point x="491" y="3"/>
      <point x="539" y="0"/>
      <point x="585" y="0" type="curve" smooth="yes"/>
      <point x="748" y="0"/>
      <point x="844" y="70"/>
      <point x="844" y="179" type="curve" smooth="yes"/>
      <point x="844" y="308"/>
      <point x="742" y="367"/>
      <point x="533" y="367" type="curve"/>
      <point x="533" y="368" type="line"/>
      <point x="704" y="378"/>
      <point x="792" y="437"/>
      <point x="792" y="547" type="curve" smooth="yes"/>
      <point x="792" y="657"/>
      <point x="717" y="708"/>
      <point x="553" y="708" type="curve" smooth="yes"/>
      <point x="513" y="708"/>
      <point x="442" y="705"/>
      <point x="360" y="705" type="curve"/>
      <point x="366" y="705" type="line"/>
      <point x="313" y="705"/>
      <point x="257" y="708"/>
      <point x="197" y="708" type="curve"/>
      <point x="96" y="708"/>
      <point x="16" y="635"/>
      <point x="16" y="543" type="curve"/>
      <point x="16" y="481"/>
      <point x="49" y="445"/>
      <point x="106" y="445" type="curve"/>
      <point x="155" y="445"/>
      <point x="185" y="471"/>
      <point x="185" y="514" type="curve"/>
      <point x="185" y="586"/>
      <point x="96" y="599"/>
      <point x="96" y="649" type="curve"/>
      <point x="96" y="683"/>
      <point x="138" y="707"/>
      <point x="198" y="707" type="curve"/>
      <point x="250" y="707"/>
      <point x="259" y="695"/>
      <point x="259" y="621" type="curve"/>
      <point x="259" y="87" type="line"/>
      <point x="259" y="25"/>
      <point x="249" y="10"/>
      <point x="198" y="4" type="curve"/>
      <point x="175" y="1" type="line"/>
      <point x="175" y="0" type="line"/>
      <point x="207" y="1"/>
      <point x="265" y="3"/>
    </contour>
    <contour>
      <point x="523" y="2" type="curve" smooth="yes"/>
      <point x="475" y="2"/>
      <point x="462" y="20"/>
      <point x="462" y="87" type="curve" smooth="yes"/>
      <point x="462" y="704" type="line"/>
      <point x="502" y="704" type="line" smooth="yes"/>
      <point x="568" y="704"/>
      <point x="606" y="639"/>
      <point x="606" y="543" type="curve" smooth="yes"/>
      <point x="606" y="434"/>
      <point x="573" y="368"/>
      <point x="519" y="368" type="curve" smooth="yes"/>
      <point x="403" y="368" type="line"/>
      <point x="403" y="367" type="line"/>
      <point x="516" y="367" type="line" smooth="yes"/>
      <point x="593" y="367"/>
      <point x="634" y="300"/>
      <point x="634" y="187" type="curve" smooth="yes"/>
      <point x="634" y="67"/>
      <point x="593" y="2"/>
    </contour>
  </outline>
</glyph>
<glyph name="btopbar" format="2">
  <advance width="624"/>
  <unicode hex="0183"/>
  <anchor x="257" y="260" name="#entry"/>
  <anchor x="257" y="260" name="#exit"/>
  <anchor x="319" y="0" name="bottom"/>
  <anchor x="330" y="261" name="center"/>
  <anchor x="280" y="520" name="top"/>
  <anchor x="77" y="520" name="top-left"/>
  <outline>
    <contour>
      <point x="382" y="534" type="curve" smooth="yes"/>
      <point x="313" y="534"/>
      <point x="267" y="505"/>
      <point x="244" y="440" type="curve"/>
      <point x="245" y="439" type="line"/>
      <point x="265" y="492"/>
      <point x="289" y="507"/>
      <point x="314" y="507" type="curve" smooth="yes"/>
      <point x="374" y="507"/>
      <point x="396" y="421"/>
      <point x="396" y="260" type="curve" smooth="yes"/>
      <point x="396" y="81"/>
      <point x="367" y="2"/>
      <point x="301" y="2" type="curve" smooth="yes"/>
      <point x="277" y="2"/>
      <point x="255" y="12"/>
      <point x="241" y="27" type="curve"/>
      <point x="241" y="26" type="line"/>
      <point x="262" y="3"/>
      <point x="303" y="-13"/>
      <point x="359" y="-13" type="curve" smooth="yes"/>
      <point x="502" y="-13"/>
      <point x="583" y="87"/>
      <point x="583" y="264" type="curve" smooth="yes"/>
      <point x="583" y="434"/>
      <point x="509" y="534"/>
    </contour>
    <component base="_LC-ascender-left-bar-top"/>
    <component base="_LC-baseline-left-instroke" xOffset="3"/>
  </outline>
</glyph>
<glyph name="Chook" format="2">
  <advance width="718"/>
  <unicode hex="0187"/>
  <anchor x="418" y="0" name="bottom"/>
  <anchor x="414" y="0" name="currency"/>
  <anchor x="247" y="354" name="middlestroke"/>
  <anchor x="387" y="708" name="top"/>
  <outline>
    <contour>
      <point x="389" y="-14" type="curve" smooth="yes"/>
      <point x="534" y="-14"/>
      <point x="565" y="39"/>
      <point x="619" y="39" type="curve" smooth="yes"/>
      <point x="647" y="39"/>
      <point x="659" y="26"/>
      <point x="666" y="-14" type="curve"/>
      <point x="667" y="-14" type="line"/>
      <point x="664" y="37"/>
      <point x="663" y="108"/>
      <point x="663" y="260" type="curve"/>
      <point x="662" y="260" type="line"/>
      <point x="646" y="88"/>
      <point x="573" y="-2"/>
      <point x="462" y="-2" type="curve" smooth="yes"/>
      <point x="325" y="-2"/>
      <point x="247" y="127"/>
      <point x="247" y="355" type="curve" smooth="yes"/>
      <point x="247" y="583"/>
      <point x="323" y="709"/>
      <point x="459" y="709" type="curve" smooth="yes"/>
      <point x="571" y="709"/>
      <point x="644" y="620"/>
      <point x="662" y="448" type="curve"/>
      <point x="663" y="448" type="line"/>
      <point x="661" y="528"/>
      <point x="657" y="599"/>
      <point x="631" y="668" type="curve"/>
      <point x="562" y="668"/>
      <point x="530" y="722"/>
      <point x="384" y="722" type="curve" smooth="yes"/>
      <point x="174" y="722"/>
      <point x="37" y="575"/>
      <point x="37" y="349" type="curve" smooth="yes"/>
      <point x="37" y="125"/>
      <point x="172" y="-14"/>
    </contour>
    <contour>
      <point x="662" y="448" type="curve"/>
      <point x="663" y="448" type="line"/>
      <point x="663" y="743"/>
      <point x="563" y="716"/>
      <point x="563" y="824" type="curve" smooth="yes"/>
      <point x="563" y="849"/>
      <point x="570" y="859"/>
      <point x="587" y="859" type="curve" smooth="yes"/>
      <point x="617" y="859"/>
      <point x="655" y="830"/>
      <point x="701" y="830" type="curve" smooth="yes"/>
      <point x="745" y="830"/>
      <point x="773" y="856"/>
      <point x="773" y="896" type="curve" smooth="yes"/>
      <point x="773" y="940"/>
      <point x="741" y="967"/>
      <point x="690" y="967" type="curve" smooth="yes"/>
      <point x="616" y="967"/>
      <point x="562" y="908"/>
      <point x="562" y="824" type="curve" smooth="yes"/>
      <point x="562" y="715"/>
      <point x="662" y="741"/>
    </contour>
  </outline>
</glyph>
<glyph name="Dhook" format="2">
  <advance width="971"/>
  <unicode hex="018A"/>
  <anchor x="546" y="0" name="bottom"/>
  <anchor x="371" y="356" name="center"/>
  <anchor x="561" y="708" name="top"/>
  <outline>
    <contour>
      <point x="504" y="0" type="curve"/>
      <point x="512" y="0" type="line" smooth="yes"/>
      <point x="776" y="0"/>
      <point x="934" y="139"/>
      <point x="934" y="370" type="curve" smooth="yes"/>
      <point x="934" y="591"/>
      <point x="790" y="708"/>
      <point x="516" y="708" type="curve" smooth="yes"/>
      <point x="483" y="708"/>
      <point x="427" y="705"/>
      <point x="362" y="705" type="curve"/>
      <point x="366" y="705" type="line"/>
      <point x="313" y="705"/>
      <point x="257" y="708"/>
      <point x="197" y="708" type="curve"/>
      <point x="96" y="708"/>
      <point x="16" y="635"/>
      <point x="16" y="543" type="curve"/>
      <point x="16" y="481"/>
      <point x="49" y="445"/>
      <point x="106" y="445" type="curve"/>
      <point x="155" y="445"/>
      <point x="185" y="471"/>
      <point x="185" y="514" type="curve"/>
      <point x="185" y="586"/>
      <point x="96" y="599"/>
      <point x="96" y="649" type="curve"/>
      <point x="96" y="683"/>
      <point x="138" y="707"/>
      <point x="198" y="707" type="curve"/>
      <point x="250" y="707"/>
      <point x="259" y="695"/>
      <point x="259" y="621" type="curve"/>
      <point x="259" y="87" type="line"/>
      <point x="259" y="26"/>
      <point x="247" y="10"/>
      <point x="198" y="4" type="curve"/>
      <point x="167" y="1" type="line"/>
      <point x="167" y="0" type="line"/>
      <point x="220" y="1"/>
      <point x="289" y="3"/>
      <point x="363" y="3" type="curve"/>
      <point x="433" y="3"/>
      <point x="477" y="0"/>
    </contour>
    <contour>
      <point x="531" y="2" type="curve" smooth="yes"/>
      <point x="476" y="2"/>
      <point x="462" y="18"/>
      <point x="462" y="85" type="curve" smooth="yes"/>
      <point x="462" y="705" type="line"/>
      <point x="522" y="705" type="line" smooth="yes"/>
      <point x="666" y="705"/>
      <point x="724" y="600"/>
      <point x="724" y="356" type="curve" smooth="yes"/>
      <point x="724" y="110"/>
      <point x="665" y="2"/>
    </contour>
  </outline>
</glyph>
<glyph name="Schwa" format="2">
  <advance width="813"/>
  <unicode hex="018F"/>
  <anchor x="425" y="0" name="bottom"/>
  <anchor x="425" y="708" name="top"/>
  <anchor x="425" y="688" name="top_low_1"/>
  <anchor x="425" y="668" name="top_low_2"/>
  <anchor x="425" y="648" name="top_low_3"/>
  <outline>
    <contour>
      <point x="399" y="-14" type="curve" smooth="yes"/>
      <point x="629" y="-14"/>
      <point x="776" y="131"/>
      <point x="776" y="360" type="curve" smooth="yes"/>
      <point x="776" y="583"/>
      <point x="636" y="722"/>
      <point x="410" y="722" type="curve" smooth="yes"/>
      <point x="251" y="722"/>
      <point x="130" y="654"/>
      <point x="71" y="533" type="curve"/>
      <point x="72" y="533" type="line"/>
      <point x="126" y="637"/>
      <point x="207" y="689"/>
      <point x="312" y="689" type="curve" smooth="yes"/>
      <point x="479" y="689"/>
      <point x="569" y="557"/>
      <point x="569" y="311" type="curve" smooth="yes"/>
      <point x="569" y="111"/>
      <point x="508" y="-12"/>
      <point x="410" y="-12" type="curve" smooth="yes"/>
      <point x="301" y="-12"/>
      <point x="226" y="140"/>
      <point x="244" y="327" type="curve"/>
      <point x="625" y="327" type="line"/>
      <point x="623" y="328" type="line"/>
      <point x="37" y="328" type="line"/>
      <point x="33" y="120"/>
      <point x="175" y="-14"/>
    </contour>
  </outline>
</glyph>
<glyph name="Eopen" format="2">
  <advance width="640"/>
  <unicode hex="0190"/>
  <anchor x="329" y="0" name="bottom"/>
  <anchor x="329" y="708" name="top"/>
  <outline>
    <contour>
      <point x="284" y="-14" type="curve" smooth="yes"/>
      <point x="437" y="-14"/>
      <point x="491" y="28"/>
      <point x="543" y="28" type="curve" smooth="yes"/>
      <point x="567" y="28"/>
      <point x="580" y="16"/>
      <point x="588" y="-14" type="curve"/>
      <point x="589" y="-14" type="line"/>
      <point x="586" y="37"/>
      <point x="585" y="103"/>
      <point x="585" y="250" type="curve"/>
      <point x="584" y="250" type="line"/>
      <point x="576" y="91"/>
      <point x="506" y="0"/>
      <point x="392" y="0" type="curve" smooth="yes"/>
      <point x="295" y="0"/>
      <point x="230" y="72"/>
      <point x="230" y="179" type="curve" smooth="yes"/>
      <point x="230" y="263"/>
      <point x="268" y="331"/>
      <point x="326" y="353" type="curve"/>
      <point x="349" y="348"/>
      <point x="367" y="344"/>
      <point x="378" y="344" type="curve" smooth="yes"/>
      <point x="389" y="344"/>
      <point x="395" y="347"/>
      <point x="395" y="352" type="curve" smooth="yes"/>
      <point x="395" y="357"/>
      <point x="387" y="360"/>
      <point x="374" y="360" type="curve" smooth="yes"/>
      <point x="363" y="360"/>
      <point x="349" y="358"/>
      <point x="326" y="355" type="curve"/>
      <point x="268" y="377"/>
      <point x="230" y="445"/>
      <point x="230" y="529" type="curve" smooth="yes"/>
      <point x="230" y="637"/>
      <point x="295" y="709"/>
      <point x="392" y="709" type="curve" smooth="yes"/>
      <point x="506" y="709"/>
      <point x="576" y="617"/>
      <point x="584" y="458" type="curve"/>
      <point x="585" y="458" type="line"/>
      <point x="585" y="605"/>
      <point x="586" y="671"/>
      <point x="589" y="722" type="curve"/>
      <point x="588" y="722" type="line"/>
      <point x="580" y="692"/>
      <point x="567" y="680"/>
      <point x="543" y="680" type="curve" smooth="yes"/>
      <point x="493" y="680"/>
      <point x="440" y="722"/>
      <point x="292" y="722" type="curve" smooth="yes"/>
      <point x="102" y="722"/>
      <point x="38" y="638"/>
      <point x="38" y="541" type="curve" smooth="yes"/>
      <point x="38" y="419"/>
      <point x="165" y="359"/>
      <point x="322" y="355" type="curve"/>
      <point x="322" y="354" type="line"/>
      <point x="133" y="350"/>
      <point x="20" y="289"/>
      <point x="20" y="167" type="curve" smooth="yes"/>
      <point x="20" y="70"/>
      <point x="86" y="-14"/>
    </contour>
  </outline>
</glyph>
<glyph name="Fhook" format="2">
  <advance width="609"/>
  <unicode hex="0191"/>
  <anchor x="301" y="0" name="bottom"/>
  <anchor x="236" y="140" name="center"/>
  <anchor x="100" y="250" name="stem"/>
  <anchor x="305" y="708" name="top"/>
  <anchor x="305" y="688" name="top_low_1"/>
  <anchor x="305" y="668" name="top_low_2"/>
  <anchor x="305" y="648" name="top_low_3"/>
  <outline>
    <contour>
      <point x="100" y="250" type="line"/>
      <point x="303" y="250" type="line"/>
      <point x="303" y="704" type="line"/>
      <point x="334" y="704" type="line"/>
      <point x="458" y="704"/>
      <point x="534" y="607"/>
      <point x="575" y="468" type="curve"/>
      <point x="576" y="468" type="line"/>
      <point x="570" y="554"/>
      <point x="567" y="634"/>
      <point x="568" y="708" type="curve"/>
      <point x="517" y="706"/>
      <point x="446" y="705"/>
      <point x="334" y="705" type="curve"/>
      <point x="202" y="705" type="line"/>
      <point x="186" y="705" type="line"/>
      <point x="113" y="705"/>
      <point x="59" y="707"/>
      <point x="30" y="708" type="curve"/>
      <point x="30" y="707" type="line"/>
      <point x="46" y="705" type="line"/>
      <point x="91" y="700"/>
      <point x="100" y="684"/>
      <point x="100" y="621" type="curve"/>
    </contour>
    <contour>
      <point x="273" y="305" type="line"/>
      <point x="453" y="305" type="line"/>
      <point x="453" y="306" type="line"/>
      <point x="273" y="306" type="line"/>
    </contour>
    <contour>
      <point x="504" y="124" type="curve"/>
      <point x="505" y="124" type="line"/>
      <point x="501" y="195"/>
      <point x="499" y="261"/>
      <point x="499" y="306" type="curve" smooth="yes"/>
      <point x="499" y="380"/>
      <point x="500" y="443"/>
      <point x="502" y="478" type="curve"/>
      <point x="501" y="478" type="line"/>
      <point x="485" y="368"/>
      <point x="429" y="306"/>
      <point x="345" y="306" type="curve"/>
      <point x="345" y="305" type="line"/>
      <point x="434" y="305"/>
      <point x="491" y="240"/>
    </contour>
    <component base="_UC-J-descender-stump" xOffset="1"/>
  </outline>
</glyph>
<glyph name="Ghook" format="2">
  <advance width="777"/>
  <unicode hex="0193"/>
  <anchor x="420" y="0" name="bottom"/>
  <anchor x="414" y="0" name="currency"/>
  <anchor x="394" y="708" name="top"/>
  <outline>
    <contour>
      <point x="394" y="-14" type="curve" smooth="yes"/>
      <point x="533" y="-14"/>
      <point x="599" y="40"/>
      <point x="659" y="40" type="curve" smooth="yes"/>
      <point x="677" y="40"/>
      <point x="691" y="37"/>
      <point x="702" y="31" type="curve"/>
      <point x="703" y="31" type="line"/>
      <point x="703" y="237" type="line"/>
      <point x="703" y="298"/>
      <point x="708" y="314"/>
      <point x="731" y="321" type="curve"/>
      <point x="738" y="323" type="line"/>
      <point x="738" y="324" type="line"/>
      <point x="693" y="322"/>
      <point x="653" y="321"/>
      <point x="616" y="321" type="curve"/>
      <point x="602" y="321" type="line"/>
      <point x="586" y="321" type="line"/>
      <point x="497" y="321"/>
      <point x="431" y="323"/>
      <point x="395" y="324" type="curve"/>
      <point x="395" y="323" type="line"/>
      <point x="428" y="319" type="line"/>
      <point x="488" y="311"/>
      <point x="500" y="297"/>
      <point x="500" y="237" type="curve"/>
      <point x="500" y="48" type="line" smooth="yes"/>
      <point x="500" y="10"/>
      <point x="474" y="-11"/>
      <point x="427" y="-11" type="curve" smooth="yes"/>
      <point x="314" y="-11"/>
      <point x="247" y="119"/>
      <point x="247" y="339" type="curve" smooth="yes"/>
      <point x="247" y="581"/>
      <point x="327" y="713"/>
      <point x="477" y="713" type="curve" smooth="yes"/>
      <point x="599" y="713"/>
      <point x="682" y="626"/>
      <point x="702" y="458" type="curve"/>
      <point x="703" y="458" type="line"/>
      <point x="701" y="534"/>
      <point x="697" y="602"/>
      <point x="673" y="668" type="curve"/>
      <point x="600" y="668"/>
      <point x="566" y="722"/>
      <point x="412" y="722" type="curve" smooth="yes"/>
      <point x="181" y="722"/>
      <point x="37" y="577"/>
      <point x="37" y="345" type="curve" smooth="yes"/>
      <point x="37" y="122"/>
      <point x="173" y="-14"/>
    </contour>
    <contour>
      <point x="702" y="458" type="curve"/>
      <point x="703" y="458" type="line"/>
      <point x="703" y="745"/>
      <point x="603" y="719"/>
      <point x="603" y="824" type="curve" smooth="yes"/>
      <point x="603" y="849"/>
      <point x="610" y="859"/>
      <point x="627" y="859" type="curve" smooth="yes"/>
      <point x="657" y="859"/>
      <point x="695" y="830"/>
      <point x="741" y="830" type="curve" smooth="yes"/>
      <point x="785" y="830"/>
      <point x="813" y="856"/>
      <point x="813" y="896" type="curve" smooth="yes"/>
      <point x="813" y="940"/>
      <point x="781" y="967"/>
      <point x="730" y="967" type="curve" smooth="yes"/>
      <point x="656" y="967"/>
      <point x="602" y="908"/>
      <point x="602" y="824" type="curve" smooth="yes"/>
      <point x="602" y="718"/>
      <point x="702" y="743"/>
    </contour>
  </outline>
</glyph>
<glyph name="khook" format="2">
  <advance width="612"/>
  <unicode hex="0199"/>
  <anchor x="257" y="260" name="#entry"/>
  <anchor x="257" y="260" name="#exit"/>
  <anchor x="622" y="520" name="2ndTittle"/>
  <anchor x="336" y="0" name="^exit"/>
  <anchor x="77" y="520" name="bar"/>
  <anchor x="167" y="520" name="center"/>
  <anchor x="77" y="260" name="stem"/>
  <anchor x="286" y="771" name="top"/>
  <outline>
    <contour>
      <point x="77" y="260" type="line"/>
      <point x="257" y="260" type="line"/>
      <point x="257" y="619" type="line"/>
      <point x="257" y="728"/>
      <point x="284" y="778"/>
      <point x="343" y="778" type="curve"/>
      <point x="371" y="778"/>
      <point x="386" y="768"/>
      <point x="386" y="750" type="curve"/>
      <point x="386" y="719"/>
      <point x="347" y="680"/>
      <point x="347" y="637" type="curve"/>
      <point x="347" y="603"/>
      <point x="372" y="581"/>
      <point x="413" y="581" type="curve"/>
      <point x="463" y="581"/>
      <point x="494" y="613"/>
      <point x="494" y="664" type="curve"/>
      <point x="494" y="736"/>
      <point x="421" y="782"/>
      <point x="306" y="782" type="curve"/>
      <point x="156" y="782"/>
      <point x="77" y="694"/>
      <point x="77" y="527" type="curve"/>
    </contour>
    <component base="_LC-baseline-normal-narrow"/>
    <component base="_LC-k-legs" xOffset="221" yOffset="4"/>
  </outline>
</glyph>
<glyph name="lambdastroke-latin" format="2">
  <advance width="556"/>
  <unicode hex="019B"/>
  <anchor x="284" y="0" name="bottom"/>
  <anchor x="284" y="250" name="center"/>
  <anchor x="284" y="771" name="top"/>
  <outline>
    <contour>
      <point x="257" y="77" type="curve"/>
      <point x="384" y="362" type="line"/>
      <point x="380" y="370" type="line"/>
      <point x="422" y="245" type="line"/>
      <point x="470" y="105"/>
      <point x="462" y="14"/>
      <point x="401" y="2" type="curve"/>
      <point x="397" y="1" type="line"/>
      <point x="397" y="0" type="line"/>
      <point x="439" y="2"/>
      <point x="457" y="3"/>
      <point x="485" y="3" type="curve"/>
      <point x="513" y="3"/>
      <point x="529" y="2"/>
      <point x="556" y="0" type="curve"/>
      <point x="556" y="1" type="line"/>
      <point x="548" y="5" type="line"/>
      <point x="508" y="24"/>
      <point x="484" y="68"/>
      <point x="424" y="245" type="curve"/>
      <point x="302" y="607" type="line"/>
      <point x="301" y="607" type="line"/>
      <point x="66" y="76" type="line"/>
      <point x="42" y="21"/>
      <point x="23" y="3"/>
      <point x="0" y="1" type="curve"/>
      <point x="0" y="0" type="line"/>
      <point x="36" y="3"/>
      <point x="84" y="3"/>
      <point x="147" y="3" type="curve"/>
      <point x="182" y="3"/>
      <point x="208" y="2"/>
      <point x="238" y="0" type="curve"/>
      <point x="240" y="27"/>
      <point x="246" y="52"/>
    </contour>
    <contour>
      <point x="123" y="518" type="line"/>
      <point x="302" y="605" type="line"/>
      <point x="301" y="606" type="line"/>
      <point x="122" y="519" type="line"/>
    </contour>
    <contour>
      <point x="303" y="599" type="line"/>
      <point x="304" y="600" type="line"/>
      <point x="276" y="685" type="line" smooth="yes"/>
      <point x="254" y="751"/>
      <point x="214" y="782"/>
      <point x="144" y="782" type="curve" smooth="yes"/>
      <point x="69" y="782"/>
      <point x="24" y="749"/>
      <point x="24" y="694" type="curve" smooth="yes"/>
      <point x="24" y="645"/>
      <point x="58" y="613"/>
      <point x="110" y="613" type="curve" smooth="yes"/>
      <point x="150" y="613"/>
      <point x="174" y="632"/>
      <point x="174" y="663" type="curve" smooth="yes"/>
      <point x="174" y="699"/>
      <point x="145" y="733"/>
      <point x="145" y="762" type="curve" smooth="yes"/>
      <point x="145" y="773"/>
      <point x="150" y="777"/>
      <point x="164" y="777" type="curve" smooth="yes"/>
      <point x="211" y="777"/>
      <point x="254" y="748"/>
      <point x="275" y="684" type="curve" smooth="yes"/>
    </contour>
    <contour>
      <point x="302" y="606" type="line"/>
      <point x="462" y="684" type="line"/>
      <point x="461" y="685" type="line"/>
      <point x="301" y="607" type="line"/>
    </contour>
  </outline>
</glyph>
<glyph name="Mturned" format="2">
  <advance width="1392"/>
  <unicode hex="019C"/>
  <anchor x="699" y="0" name="bottom"/>
  <anchor x="699" y="708" name="top"/>
  <outline>
    <contour>
      <point x="387" y="-14" type="curve" smooth="yes"/>
      <point x="568" y="-14"/>
      <point x="645" y="70"/>
      <point x="645" y="270" type="curve"/>
      <point x="644" y="270" type="line"/>
      <point x="644" y="97"/>
      <point x="582" y="11"/>
      <point x="457" y="11" type="curve" smooth="yes"/>
      <point x="355" y="11"/>
      <point x="303" y="69"/>
      <point x="303" y="184" type="curve" smooth="yes"/>
      <point x="303" y="621" type="line"/>
      <point x="303" y="684"/>
      <point x="312" y="700"/>
      <point x="357" y="705" type="curve"/>
      <point x="373" y="707" type="line"/>
      <point x="373" y="708" type="line"/>
      <point x="344" y="707"/>
      <point x="290" y="705"/>
      <point x="217" y="705" type="curve"/>
      <point x="205" y="705" type="line"/>
      <point x="186" y="706" type="line"/>
      <point x="113" y="705"/>
      <point x="59" y="708"/>
      <point x="30" y="709" type="curve"/>
      <point x="30" y="708" type="line"/>
      <point x="46" y="706" type="line"/>
      <point x="91" y="701"/>
      <point x="100" y="685"/>
      <point x="100" y="622" type="curve"/>
      <point x="100" y="278" type="line" smooth="yes"/>
      <point x="100" y="82"/>
      <point x="194" y="-14"/>
    </contour>
    <contour>
      <point x="868" y="-14" type="curve" smooth="yes"/>
      <point x="1039" y="-14"/>
      <point x="1109" y="69"/>
      <point x="1109" y="270" type="curve"/>
      <point x="1108" y="270" type="line"/>
      <point x="1108" y="97"/>
      <point x="1052" y="11"/>
      <point x="940" y="11" type="curve" smooth="yes"/>
      <point x="846" y="11"/>
      <point x="797" y="70"/>
      <point x="797" y="184" type="curve" smooth="yes"/>
      <point x="797" y="621" type="line"/>
      <point x="797" y="684"/>
      <point x="806" y="700"/>
      <point x="851" y="705" type="curve"/>
      <point x="867" y="707" type="line"/>
      <point x="867" y="708" type="line"/>
      <point x="838" y="707"/>
      <point x="784" y="705"/>
      <point x="711" y="705" type="curve"/>
      <point x="699" y="705" type="line"/>
      <point x="680" y="706" type="line"/>
      <point x="607" y="705"/>
      <point x="553" y="708"/>
      <point x="524" y="709" type="curve"/>
      <point x="524" y="708" type="line"/>
      <point x="540" y="706" type="line"/>
      <point x="585" y="701"/>
      <point x="594" y="685"/>
      <point x="594" y="622" type="curve"/>
      <point x="594" y="278" type="line" smooth="yes"/>
      <point x="594" y="83"/>
      <point x="685" y="-14"/>
    </contour>
    <contour>
      <point x="1088" y="0" type="line"/>
      <point x="1088" y="70" type="line"/>
      <point x="1088" y="-10" type="line"/>
      <point x="1148" y="-1"/>
      <point x="1201" y="3"/>
      <point x="1267" y="3" type="curve"/>
      <point x="1297" y="3"/>
      <point x="1325" y="2"/>
      <point x="1362" y="0" type="curve"/>
      <point x="1362" y="1" type="line"/>
      <point x="1339" y="4" type="line"/>
      <point x="1302" y="9"/>
      <point x="1291" y="25"/>
      <point x="1291" y="74" type="curve"/>
      <point x="1291" y="621" type="line"/>
      <point x="1291" y="684"/>
      <point x="1300" y="700"/>
      <point x="1345" y="705" type="curve"/>
      <point x="1361" y="707" type="line"/>
      <point x="1361" y="708" type="line"/>
      <point x="1332" y="707"/>
      <point x="1278" y="705"/>
      <point x="1205" y="705" type="curve"/>
      <point x="1193" y="705" type="line"/>
      <point x="1174" y="706" type="line"/>
      <point x="1101" y="705"/>
      <point x="1047" y="708"/>
      <point x="1018" y="709" type="curve"/>
      <point x="1018" y="708" type="line"/>
      <point x="1034" y="706" type="line"/>
      <point x="1079" y="701"/>
      <point x="1088" y="685"/>
      <point x="1088" y="622" type="curve"/>
    </contour>
  </outline>
</glyph>
<glyph name="nlongrightleg" format="2">
  <advance width="674"/>
  <unicode hex="019E"/>
  <anchor x="77" y="260" name="#entry"/>
  <anchor x="257" y="260" name="#exit"/>
  <anchor x="-112" y="0" name="%entry"/>
  <anchor x="77" y="0" name="%exit"/>
  <anchor x="0" y="0" name="^entry"/>
  <anchor x="324" y="0" name="^exit"/>
  <anchor x="346" y="0" name="bottom"/>
  <anchor x="257" y="260" name="reversedExit"/>
  <anchor x="77" y="260" name="stem"/>
  <anchor x="318" y="520" name="top"/>
  <anchor x="257" y="519" name="topright"/>
  <outline>
    <contour>
      <point x="167" y="3" type="curve"/>
      <point x="167" y="3" type="line"/>
      <point x="167" y="3" type="line"/>
      <point x="205" y="3"/>
      <point x="241" y="3"/>
      <point x="313" y="0" type="curve"/>
      <point x="313" y="1" type="line"/>
      <point x="303" y="2" type="line"/>
      <point x="268" y="6"/>
      <point x="257" y="24"/>
      <point x="257" y="73" type="curve"/>
      <point x="257" y="260" type="line"/>
      <point x="77" y="260" type="line"/>
      <point x="77" y="73" type="line"/>
      <point x="77" y="24"/>
      <point x="66" y="6"/>
      <point x="31" y="2" type="curve"/>
      <point x="21" y="1" type="line"/>
      <point x="21" y="0" type="line"/>
      <point x="93" y="3"/>
      <point x="129" y="3"/>
    </contour>
    <contour>
      <point x="77" y="260" type="line"/>
      <point x="257" y="260" type="line"/>
      <point x="257" y="519" type="line"/>
      <point x="257" y="530" type="line"/>
      <point x="209" y="520"/>
      <point x="166" y="516"/>
      <point x="121" y="516" type="curve"/>
      <point x="91" y="516"/>
      <point x="62" y="516"/>
      <point x="21" y="519" type="curve"/>
      <point x="21" y="518" type="line"/>
      <point x="29" y="517" type="line"/>
      <point x="66" y="512"/>
      <point x="77" y="495"/>
      <point x="77" y="446" type="curve"/>
    </contour>
    <contour>
      <point x="427" y="260" type="line"/>
      <point x="607" y="260" type="line"/>
      <point x="607" y="366" type="line" smooth="yes"/>
      <point x="607" y="477"/>
      <point x="546" y="533"/>
      <point x="427" y="533" type="curve" smooth="yes"/>
      <point x="336" y="533"/>
      <point x="271" y="499"/>
      <point x="226" y="423" type="curve"/>
      <point x="227" y="422" type="line"/>
      <point x="263" y="478"/>
      <point x="299" y="502"/>
      <point x="346" y="502" type="curve" smooth="yes"/>
      <point x="402" y="502"/>
      <point x="427" y="474"/>
      <point x="427" y="410" type="curve" smooth="yes"/>
    </contour>
    <contour>
      <point x="517" y="-228" type="curve"/>
      <point x="517" y="-228" type="line"/>
      <point x="517" y="-228" type="line"/>
      <point x="555" y="-228"/>
      <point x="591" y="-228"/>
      <point x="663" y="-231" type="curve"/>
      <point x="663" y="-230" type="line"/>
      <point x="653" y="-229" type="line"/>
      <point x="618" y="-225"/>
      <point x="607" y="-207"/>
      <point x="607" y="-158" type="curve"/>
      <point x="607" y="260" type="line"/>
      <point x="427" y="260" type="line"/>
      <point x="427" y="-158" type="line"/>
      <point x="427" y="-207"/>
      <point x="416" y="-225"/>
      <point x="381" y="-229" type="curve"/>
      <point x="371" y="-230" type="line"/>
      <point x="371" y="-231" type="line"/>
      <point x="443" y="-228"/>
      <point x="479" y="-228"/>
    </contour>
  </outline>
</glyph>
<glyph name="phook" format="2">
  <advance width="624"/>
  <unicode hex="01A5"/>
  <anchor x="257" y="260" name="#entry"/>
  <anchor x="257" y="260" name="#exit"/>
  <anchor x="622" y="520" name="2ndTittle"/>
  <anchor x="336" y="0" name="^exit"/>
  <anchor x="77" y="520" name="bar"/>
  <anchor x="325" y="-231" name="bottom"/>
  <anchor x="167" y="520" name="center"/>
  <anchor x="77" y="0" name="lower-left"/>
  <anchor x="77" y="260" name="stem"/>
  <anchor x="286" y="771" name="top"/>
  <anchor x="77" y="520" name="top-left"/>
  <outline>
    <contour>
      <point x="77" y="260" type="line"/>
      <point x="257" y="260" type="line"/>
      <point x="257" y="619" type="line"/>
      <point x="257" y="728"/>
      <point x="284" y="778"/>
      <point x="343" y="778" type="curve"/>
      <point x="371" y="778"/>
      <point x="386" y="768"/>
      <point x="386" y="750" type="curve"/>
      <point x="386" y="719"/>
      <point x="347" y="680"/>
      <point x="347" y="637" type="curve"/>
      <point x="347" y="603"/>
      <point x="372" y="581"/>
      <point x="413" y="581" type="curve"/>
      <point x="463" y="581"/>
      <point x="494" y="613"/>
      <point x="494" y="664" type="curve"/>
      <point x="494" y="736"/>
      <point x="421" y="782"/>
      <point x="306" y="782" type="curve"/>
      <point x="156" y="782"/>
      <point x="77" y="694"/>
      <point x="77" y="527" type="curve"/>
    </contour>
    <contour>
      <point x="167" y="-228" type="curve"/>
      <point x="167" y="-228" type="line"/>
      <point x="167" y="-228" type="line"/>
      <point x="213" y="-228"/>
      <point x="256" y="-228"/>
      <point x="343" y="-231" type="curve"/>
      <point x="343" y="-230" type="line"/>
      <point x="318" y="-228" type="line"/>
      <point x="271" y="-224"/>
      <point x="257" y="-206"/>
      <point x="257" y="-158" type="curve"/>
      <point x="257" y="260" type="line"/>
      <point x="77" y="260" type="line"/>
      <point x="77" y="-158" type="line"/>
      <point x="77" y="-207"/>
      <point x="66" y="-225"/>
      <point x="31" y="-229" type="curve"/>
      <point x="21" y="-230" type="line"/>
      <point x="21" y="-231" type="line"/>
      <point x="93" y="-228"/>
      <point x="129" y="-228"/>
    </contour>
    <contour>
      <point x="382" y="534" type="curve" smooth="yes"/>
      <point x="313" y="534"/>
      <point x="267" y="505"/>
      <point x="244" y="440" type="curve"/>
      <point x="245" y="439" type="line"/>
      <point x="265" y="492"/>
      <point x="289" y="507"/>
      <point x="314" y="507" type="curve" smooth="yes"/>
      <point x="374" y="507"/>
      <point x="396" y="421"/>
      <point x="396" y="260" type="curve" smooth="yes"/>
      <point x="396" y="81"/>
      <point x="367" y="2"/>
      <point x="301" y="2" type="curve" smooth="yes"/>
      <point x="277" y="2"/>
      <point x="255" y="12"/>
      <point x="241" y="27" type="curve"/>
      <point x="241" y="26" type="line"/>
      <point x="262" y="3"/>
      <point x="303" y="-13"/>
      <point x="359" y="-13" type="curve" smooth="yes"/>
      <point x="502" y="-13"/>
      <point x="583" y="87"/>
      <point x="583" y="264" type="curve" smooth="yes"/>
      <point x="583" y="434"/>
      <point x="509" y="534"/>
    </contour>
  </outline>
</glyph>
<glyph name="Esh" format="2">
  <advance width="628"/>
  <unicode hex="01A9"/>
  <outline>
    <contour>
      <point x="37" y="0" type="line"/>
      <point x="107" y="3"/>
      <point x="217" y="3"/>
      <point x="290" y="3" type="curve" smooth="yes"/>
      <point x="310" y="3" type="line"/>
      <point x="432" y="3"/>
      <point x="509" y="2"/>
      <point x="564" y="0" type="curve"/>
      <point x="563" y="90"/>
      <point x="566" y="203"/>
      <point x="571" y="318" type="curve"/>
      <point x="570" y="318" type="line"/>
      <point x="526" y="203"/>
      <point x="466" y="163"/>
      <point x="365" y="163" type="curve"/>
      <point x="200" y="163" type="line"/>
      <point x="180" y="143" type="line"/>
      <point x="425" y="389" type="line"/>
      <point x="243" y="704" type="line"/>
      <point x="285" y="704" type="line"/>
      <point x="405" y="704"/>
      <point x="498" y="632"/>
      <point x="544" y="508" type="curve"/>
      <point x="545" y="508" type="line"/>
      <point x="538" y="588"/>
      <point x="536" y="655"/>
      <point x="539" y="708" type="curve"/>
      <point x="484" y="706"/>
      <point x="407" y="705"/>
      <point x="285" y="705" type="curve"/>
      <point x="250" y="705" type="line" smooth="yes"/>
      <point x="178" y="705"/>
      <point x="96" y="705"/>
      <point x="27" y="708" type="curve"/>
      <point x="27" y="707" type="line"/>
      <point x="289" y="253" type="line"/>
      <point x="301" y="266" type="line"/>
      <point x="37" y="1" type="line"/>
    </contour>
  </outline>
</glyph>
<glyph name="Thook" format="2">
  <advance width="747"/>
  <unicode hex="01AC"/>
  <anchor x="499" y="0" name="#exit"/>
  <anchor x="499" y="0" name="%exit"/>
  <anchor x="398" y="0" name="bottom"/>
  <outline>
    <contour>
      <point x="382" y="3" type="curve"/>
      <point x="397" y="3" type="line"/>
      <point x="413" y="3" type="line"/>
      <point x="492" y="3"/>
      <point x="551" y="1"/>
      <point x="583" y="0" type="curve"/>
      <point x="583" y="1" type="line"/>
      <point x="560" y="3" type="line"/>
      <point x="509" y="10"/>
      <point x="499" y="25"/>
      <point x="499" y="87" type="curve"/>
      <point x="499" y="250" type="line"/>
      <point x="296" y="250" type="line"/>
      <point x="296" y="87" type="line"/>
      <point x="296" y="25"/>
      <point x="285" y="10"/>
      <point x="234" y="4" type="curve"/>
      <point x="212" y="1" type="line"/>
      <point x="212" y="0" type="line"/>
      <point x="243" y="1"/>
      <point x="302" y="3"/>
    </contour>
    <component base="_UC-T-hook-top-stroke"/>
    <component base="_UC-T-upper-stroke" xOffset="266"/>
  </outline>
</glyph>
<glyph name="thook" format="2">
  <advance width="350"/>
  <unicode hex="01AD"/>
  <anchor x="252" y="260" name="#entry"/>
  <anchor x="252" y="260" name="#exit"/>
  <anchor x="647" y="520" name="2ndTittle"/>
  <anchor x="331" y="0" name="^exit"/>
  <anchor x="72" y="520" name="bar"/>
  <anchor x="162" y="520" name="center"/>
  <anchor x="72" y="260" name="stem"/>
  <anchor x="281" y="771" name="top"/>
  <outline>
    <contour>
      <point x="72" y="260" type="line"/>
      <point x="252" y="260" type="line"/>
      <point x="252" y="639" type="line"/>
      <point x="252" y="733"/>
      <point x="276" y="778"/>
      <point x="326" y="778" type="curve"/>
      <point x="343" y="778"/>
      <point x="351" y="772"/>
      <point x="351" y="759" type="curve"/>
      <point x="351" y="728"/>
      <point x="312" y="689"/>
      <point x="312" y="646" type="curve"/>
      <point x="312" y="612"/>
      <point x="337" y="590"/>
      <point x="378" y="590" type="curve"/>
      <point x="427" y="590"/>
      <point x="459" y="622"/>
      <point x="459" y="671" type="curve"/>
      <point x="459" y="739"/>
      <point x="395" y="782"/>
      <point x="293" y="782" type="curve"/>
      <point x="148" y="782"/>
      <point x="72" y="695"/>
      <point x="72" y="529" type="curve"/>
    </contour>
    <component base="_LC-baseline-tail"/>
    <component base="_LC-t-bar"/>
  </outline>
</glyph>
<glyph name="Vhook" format="2">
  <advance width="699"/>
  <unicode hex="01B2"/>
  <anchor x="384" y="0" name="bottom"/>
  <anchor x="384" y="708" name="top"/>
  <outline>
    <contour>
      <point x="377" y="-14" type="curve" smooth="yes"/>
      <point x="570" y="-14"/>
      <point x="654" y="111"/>
      <point x="654" y="371" type="curve" smooth="yes"/>
      <point x="654" y="636"/>
      <point x="593" y="722"/>
      <point x="510" y="722" type="curve" smooth="yes"/>
      <point x="462" y="722"/>
      <point x="429" y="692"/>
      <point x="429" y="647" type="curve" smooth="yes"/>
      <point x="429" y="511"/>
      <point x="653" y="540"/>
      <point x="653" y="371" type="curve" smooth="yes"/>
      <point x="653" y="115"/>
      <point x="563" y="11"/>
      <point x="450" y="11" type="curve" smooth="yes"/>
      <point x="350" y="11"/>
      <point x="303" y="70"/>
      <point x="303" y="184" type="curve" smooth="yes"/>
      <point x="303" y="621" type="line"/>
      <point x="303" y="682"/>
      <point x="308" y="698"/>
      <point x="331" y="705" type="curve"/>
      <point x="338" y="707" type="line"/>
      <point x="338" y="708" type="line"/>
      <point x="293" y="706"/>
      <point x="253" y="705"/>
      <point x="216" y="705" type="curve"/>
      <point x="201" y="705" type="line"/>
      <point x="186" y="705" type="line"/>
      <point x="113" y="705"/>
      <point x="59" y="707"/>
      <point x="30" y="708" type="curve"/>
      <point x="30" y="707" type="line"/>
      <point x="46" y="705" type="line"/>
      <point x="91" y="700"/>
      <point x="100" y="684"/>
      <point x="100" y="621" type="curve"/>
      <point x="100" y="278" type="line" smooth="yes"/>
      <point x="100" y="72"/>
      <point x="185" y="-14"/>
    </contour>
  </outline>
</glyph>
<glyph name="Yhook" format="2">
  <advance width="870"/>
  <unicode hex="01B3"/>
  <anchor x="358" y="0" name="bottom"/>
  <anchor x="359" y="255" name="center"/>
  <anchor x="354" y="708" name="top"/>
  <outline>
    <contour>
      <point x="306" y="199" type="line"/>
      <point x="363" y="199" type="line"/>
      <point x="535" y="540" type="line"/>
      <point x="624" y="714"/>
      <point x="657" y="721"/>
      <point x="708" y="721" type="curve"/>
      <point x="736" y="721"/>
      <point x="751" y="711"/>
      <point x="751" y="693" type="curve"/>
      <point x="751" y="661"/>
      <point x="712" y="621"/>
      <point x="712" y="577" type="curve"/>
      <point x="712" y="543"/>
      <point x="737" y="521"/>
      <point x="778" y="521" type="curve"/>
      <point x="828" y="521"/>
      <point x="859" y="553"/>
      <point x="859" y="604" type="curve"/>
      <point x="859" y="676"/>
      <point x="786" y="722"/>
      <point x="708" y="722" type="curve"/>
      <point x="656" y="722"/>
      <point x="624" y="715"/>
      <point x="534" y="540" type="curve"/>
      <point x="438" y="351" type="line"/>
      <point x="447" y="360" type="line"/>
      <point x="312" y="621" type="line"/>
      <point x="279" y="684"/>
      <point x="290" y="701"/>
      <point x="333" y="705" type="curve"/>
      <point x="353" y="707" type="line"/>
      <point x="353" y="708" type="line"/>
      <point x="318" y="707"/>
      <point x="254" y="705"/>
      <point x="166" y="705" type="curve"/>
      <point x="157" y="705" type="line"/>
      <point x="137" y="706" type="line"/>
      <point x="69" y="705"/>
      <point x="17" y="707"/>
      <point x="-10" y="708" type="curve"/>
      <point x="-10" y="707" type="line"/>
      <point x="4" y="705" type="line"/>
      <point x="38" y="700"/>
      <point x="54" y="687"/>
      <point x="72" y="652" type="curve"/>
    </contour>
    <contour>
      <point x="343" y="3" type="curve"/>
      <point x="358" y="3" type="line"/>
      <point x="374" y="3" type="line"/>
      <point x="453" y="3"/>
      <point x="512" y="1"/>
      <point x="544" y="0" type="curve"/>
      <point x="544" y="1" type="line"/>
      <point x="521" y="3" type="line"/>
      <point x="470" y="10"/>
      <point x="460" y="25"/>
      <point x="460" y="87" type="curve"/>
      <point x="460" y="393" type="line"/>
      <point x="366" y="249" type="line"/>
      <point x="257" y="311" type="line"/>
      <point x="257" y="87" type="line"/>
      <point x="257" y="25"/>
      <point x="246" y="10"/>
      <point x="195" y="4" type="curve"/>
      <point x="173" y="1" type="line"/>
      <point x="173" y="0" type="line"/>
      <point x="204" y="1"/>
      <point x="263" y="3"/>
    </contour>
  </outline>
</glyph>
<glyph name="yhook" format="2">
  <advance width="725"/>
  <unicode hex="01B4"/>
  <anchor x="444" y="0" name="bottom"/>
  <anchor x="295" y="259" name="center"/>
  <anchor x="290" y="520" name="top"/>
  <outline>
    <contour>
      <point x="312" y="-87" type="line"/>
      <point x="313" y="-87" type="line"/>
      <point x="482" y="415" type="line"/>
      <point x="506" y="488"/>
      <point x="539" y="525"/>
      <point x="580" y="525" type="curve"/>
      <point x="598" y="525"/>
      <point x="606" y="518"/>
      <point x="606" y="503" type="curve"/>
      <point x="606" y="471"/>
      <point x="567" y="438"/>
      <point x="567" y="397" type="curve"/>
      <point x="567" y="363"/>
      <point x="593" y="342"/>
      <point x="634" y="342" type="curve"/>
      <point x="684" y="342"/>
      <point x="714" y="374"/>
      <point x="714" y="429" type="curve"/>
      <point x="714" y="493"/>
      <point x="673" y="533"/>
      <point x="605" y="533" type="curve"/>
      <point x="544" y="533"/>
      <point x="507" y="498"/>
      <point x="480" y="415" type="curve"/>
      <point x="391" y="150" type="line"/>
      <point x="395" y="158" type="line"/>
      <point x="275" y="430" type="line"/>
      <point x="247" y="495"/>
      <point x="259" y="512"/>
      <point x="301" y="517" type="curve"/>
      <point x="320" y="519" type="line"/>
      <point x="320" y="520" type="line"/>
      <point x="289" y="519"/>
      <point x="232" y="517"/>
      <point x="154" y="517" type="curve"/>
      <point x="139" y="517" type="line"/>
      <point x="144" y="517" type="line"/>
      <point x="83" y="517"/>
      <point x="32" y="519"/>
      <point x="0" y="520" type="curve"/>
      <point x="0" y="519" type="line"/>
      <point x="12" y="517" type="line"/>
      <point x="38" y="514"/>
      <point x="50" y="503"/>
      <point x="65" y="471" type="curve"/>
    </contour>
    <contour>
      <point x="163" y="-239" type="curve" smooth="yes"/>
      <point x="233" y="-239"/>
      <point x="273" y="-208"/>
      <point x="295" y="-142" type="curve" smooth="yes"/>
      <point x="317" y="-75" type="line"/>
      <point x="316" y="-74" type="line"/>
      <point x="294" y="-141" type="line" smooth="yes"/>
      <point x="273" y="-205"/>
      <point x="230" y="-234"/>
      <point x="183" y="-234" type="curve" smooth="yes"/>
      <point x="169" y="-234"/>
      <point x="164" y="-230"/>
      <point x="164" y="-219" type="curve" smooth="yes"/>
      <point x="164" y="-190"/>
      <point x="193" y="-156"/>
      <point x="193" y="-120" type="curve" smooth="yes"/>
      <point x="193" y="-89"/>
      <point x="169" y="-70"/>
      <point x="129" y="-70" type="curve" smooth="yes"/>
      <point x="77" y="-70"/>
      <point x="43" y="-102"/>
      <point x="43" y="-151" type="curve" smooth="yes"/>
      <point x="43" y="-206"/>
      <point x="88" y="-239"/>
    </contour>
  </outline>
</glyph>
<glyph name="Ezh" format="2">
  <advance width="606"/>
  <unicode hex="01B7"/>
  <anchor x="304" y="0" name="bottom"/>
  <anchor x="306" y="708" name="top"/>
  <anchor x="306" y="688" name="top_low_1"/>
  <anchor x="306" y="668" name="top_low_2"/>
  <anchor x="306" y="648" name="top_low_3"/>
  <outline>
    <contour>
      <point x="293" y="-14" type="curve" smooth="yes"/>
      <point x="478" y="-14"/>
      <point x="586" y="60"/>
      <point x="586" y="186" type="curve" smooth="yes"/>
      <point x="586" y="294"/>
      <point x="520" y="356"/>
      <point x="373" y="388" type="curve"/>
      <point x="407" y="360" type="line"/>
      <point x="581" y="707" type="line"/>
      <point x="581" y="708" type="line"/>
      <point x="509" y="705"/>
      <point x="422" y="705"/>
      <point x="348" y="705" type="curve" smooth="yes"/>
      <point x="280" y="705" type="line"/>
      <point x="172" y="705"/>
      <point x="104" y="706"/>
      <point x="56" y="708" type="curve"/>
      <point x="57" y="633"/>
      <point x="54" y="552"/>
      <point x="48" y="468" type="curve"/>
      <point x="49" y="468" type="line"/>
      <point x="85" y="606"/>
      <point x="154" y="704"/>
      <point x="280" y="704" type="curve"/>
      <point x="362" y="704" type="line"/>
      <point x="210" y="400" type="line"/>
      <point x="210" y="399" type="line"/>
      <point x="320" y="342"/>
      <point x="376" y="280"/>
      <point x="376" y="158" type="curve" smooth="yes"/>
      <point x="376" y="43"/>
      <point x="317" y="-10"/>
      <point x="246" y="-10" type="curve" smooth="yes"/>
      <point x="113" y="-10"/>
      <point x="47" y="92"/>
      <point x="34" y="283" type="curve"/>
      <point x="33" y="283" type="line"/>
      <point x="33" y="114"/>
      <point x="32" y="41"/>
      <point x="29" y="-14" type="curve"/>
      <point x="30" y="-14" type="line"/>
      <point x="37" y="15"/>
      <point x="50" y="25"/>
      <point x="70" y="25" type="curve" smooth="yes"/>
      <point x="111" y="25"/>
      <point x="165" y="-14"/>
    </contour>
  </outline>
</glyph>
<glyph name="clickdental" format="2">
  <advance width="334"/>
  <unicode hex="01C0"/>
  <anchor x="77" y="0" name="#entry"/>
  <anchor x="334" y="0" name="#exit"/>
  <anchor x="167" y="386" name="center"/>
  <outline>
    <contour>
      <point x="77" y="0" type="line"/>
      <point x="257" y="0" type="line"/>
      <point x="257" y="771" type="line"/>
      <point x="77" y="771" type="line"/>
    </contour>
  </outline>
</glyph>
